CooperHewittInterpol2-Heavy.ufo
<glyph name="dollar" format="1">
  <advance width="600"/>
  <unicode hex="0024"/>
  <outline>
    <contour>
      <point x="301" y="200" type="line" smooth="yes"/>
      <point x="257" y="209" type="line" smooth="yes"/>
      <point x="232" y="237" type="line" smooth="yes"/>
      <point x="224" y="283" type="line" smooth="yes"/>
      <point x="37" y="283" type="line" smooth="yes"/>
      <point x="37" y="278" type="line" smooth="yes"/>
      <point x="51" y="184" type="line" smooth="yes"/>
      <point x="92" y="116" type="line" smooth="yes"/>
      <point x="157" y="72" type="line" smooth="yes"/>
      <point x="126" y="-60" type="line" smooth="yes"/>
      <point x="266" y="-60" type="line" smooth="yes"/>
      <point x="292" y="49" type="line" smooth="yes"/>
      <point x="300" y="49" type="line" smooth="yes"/>
      <point x="446" y="74" type="line" smooth="yes"/>
      <point x="534" y="147" type="line" smooth="yes"/>
      <point x="564" y="262" type="line" smooth="yes"/>
      <point x="564" y="273" type="line" smooth="yes"/>
      <point x="539" y="373" type="line" smooth="yes"/>
      <point x="466" y="429" type="line" smooth="yes"/>
      <point x="348" y="459" type="line" smooth="yes"/>
      <point x="275" y="472" type="line" smooth="yes"/>
      <point x="239" y="491" type="line" smooth="yes"/>
      <point x="229" y="525" type="line" smooth="yes"/>
      <point x="235" y="553" type="line" smooth="yes"/>
      <point x="256" y="573" type="line" smooth="yes"/>
      <point x="294" y="581" type="line" smooth="yes"/>
      <point x="299" y="581" type="line" smooth="yes"/>
      <point x="344" y="569" type="line" smooth="yes"/>
      <point x="366" y="536" type="line" smooth="yes"/>
      <point x="373" y="490" type="line" smooth="yes"/>
      <point x="558" y="490" type="line" smooth="yes"/>
      <point x="558" y="503" type="line" smooth="yes"/>
      <point x="546" y="592" type="line" smooth="yes"/>
      <point x="510" y="659" type="line" smooth="yes"/>
      <point x="449" y="705" type="line" smooth="yes"/>
      <point x="481" y="840" type="line" smooth="yes"/>
      <point x="341" y="840" type="line" smooth="yes"/>
      <point x="315" y="732" type="line" smooth="yes"/>
      <point x="300" y="732" type="line" smooth="yes"/>
      <point x="164" y="708" type="line" smooth="yes"/>
      <point x="75" y="638" type="line" smooth="yes"/>
      <point x="43" y="522" type="line" smooth="yes"/>
      <point x="43" y="511" type="line" smooth="yes"/>
      <point x="67" y="412" type="line" smooth="yes"/>
      <point x="138" y="356" type="line" smooth="yes"/>
      <point x="252" y="325" type="line" smooth="yes"/>
      <point x="328" y="308" type="line" smooth="yes"/>
      <point x="366" y="287" type="line" smooth="yes"/>
      <point x="376" y="251" type="line" smooth="yes"/>
      <point x="369" y="228" type="line" smooth="yes"/>
      <point x="345" y="208" type="line" smooth="yes"/>
      <point x="306" y="200" type="line" smooth="yes"/>
    </contour>
  </outline>
</glyph>
<glyph name="percent" format="1">
  <advance width="1000"/>
  <unicode hex="0025"/>
  <outline>
    <contour>
      <point x="281" y="600" type="line" smooth="yes"/>
      <point x="281" y="588" type="line" smooth="yes"/>
      <point x="274" y="558" type="line" smooth="yes"/>
      <point x="254" y="538" type="line" smooth="yes"/>
      <point x="223" y="530" type="line" smooth="yes"/>
      <point x="217" y="530" type="line" smooth="yes"/>
      <point x="186" y="538" type="line" smooth="yes"/>
      <point x="166" y="558" type="line" smooth="yes"/>
      <point x="159" y="588" type="line" smooth="yes"/>
      <point x="159" y="600" type="line" smooth="yes"/>
      <point x="166" y="630" type="line" smooth="yes"/>
      <point x="186" y="650" type="line" smooth="yes"/>
      <point x="217" y="658" type="line" smooth="yes"/>
      <point x="223" y="658" type="line" smooth="yes"/>
      <point x="254" y="650" type="line" smooth="yes"/>
      <point x="274" y="630" type="line" smooth="yes"/>
    </contour>
    <contour>
      <point x="719" y="180" type="line" smooth="yes"/>
      <point x="719" y="192" type="line" smooth="yes"/>
      <point x="726" y="222" type="line" smooth="yes"/>
      <point x="746" y="242" type="line" smooth="yes"/>
      <point x="777" y="250" type="line" smooth="yes"/>
      <point x="783" y="250" type="line" smooth="yes"/>
      <point x="814" y="242" type="line" smooth="yes"/>
      <point x="834" y="222" type="line" smooth="yes"/>
      <point x="841" y="192" type="line" smooth="yes"/>
      <point x="841" y="180" type="line" smooth="yes"/>
      <point x="834" y="150" type="line" smooth="yes"/>
      <point x="814" y="130" type="line" smooth="yes"/>
      <point x="783" y="122" type="line" smooth="yes"/>
      <point x="777" y="122" type="line" smooth="yes"/>
      <point x="746" y="130" type="line" smooth="yes"/>
      <point x="726" y="150" type="line" smooth="yes"/>
    </contour>
    <contour>
      <point x="584" y="192" type="line" smooth="yes"/>
      <point x="584" y="180" type="line" smooth="yes"/>
      <point x="609" y="74" type="line" smooth="yes"/>
      <point x="678" y="9" type="line" smooth="yes"/>
      <point x="780" y="-14" type="line" smooth="yes"/>
      <point x="882" y="9" type="line" smooth="yes"/>
      <point x="951" y="74" type="line" smooth="yes"/>
      <point x="976" y="180" type="line" smooth="yes"/>
      <point x="976" y="192" type="line" smooth="yes"/>
      <point x="951" y="298" type="line" smooth="yes"/>
      <point x="882" y="363" type="line" smooth="yes"/>
      <point x="780" y="386" type="line" smooth="yes"/>
      <point x="678" y="363" type="line" smooth="yes"/>
      <point x="609" y="298" type="line" smooth="yes"/>
    </contour>
    <contour>
      <point x="417" y="0" type="line" smooth="yes"/>
      <point x="709" y="700" type="line" smooth="yes"/>
      <point x="709" y="784" type="line" smooth="yes"/>
      <point x="658" y="771" type="line" smooth="yes"/>
      <point x="581" y="758" type="line" smooth="yes"/>
      <point x="490" y="752" type="line" smooth="yes"/>
      <point x="414" y="754" type="line" smooth="yes"/>
      <point x="357" y="763" type="line" smooth="yes"/>
      <point x="303" y="780" type="line" smooth="yes"/>
      <point x="277" y="788" type="line" smooth="yes"/>
      <point x="249" y="792" type="line" smooth="yes"/>
      <point x="220" y="794" type="line" smooth="yes"/>
      <point x="118" y="771" type="line" smooth="yes"/>
      <point x="49" y="706" type="line" smooth="yes"/>
      <point x="24" y="600" type="line" smooth="yes"/>
      <point x="24" y="588" type="line" smooth="yes"/>
      <point x="49" y="482" type="line" smooth="yes"/>
      <point x="118" y="417" type="line" smooth="yes"/>
      <point x="220" y="394" type="line" smooth="yes"/>
      <point x="322" y="417" type="line" smooth="yes"/>
      <point x="391" y="482" type="line" smooth="yes"/>
      <point x="416" y="588" type="line" smooth="yes"/>
      <point x="416" y="608" type="line" smooth="yes"/>
      <point x="428" y="607" type="line" smooth="yes"/>
      <point x="441" y="606" type="line" smooth="yes"/>
      <point x="455" y="606" type="line" smooth="yes"/>
      <point x="476" y="607" type="line" smooth="yes"/>
      <point x="495" y="608" type="line" smooth="yes"/>
      <point x="512" y="611" type="line" smooth="yes"/>
      <point x="257" y="0" type="line" smooth="yes"/>
    </contour>
  </outline>
</glyph>
<glyph name="ampersand" format="1">
  <advance width="700"/>
  <unicode hex="0026"/>
  <outline>
    <contour>
      <point x="250" y="602" type="line" smooth="yes"/>
      <point x="254" y="624" type="line" smooth="yes"/>
      <point x="267" y="638" type="line" smooth="yes"/>
      <point x="286" y="643" type="line" smooth="yes"/>
      <point x="292" y="643" type="line" smooth="yes"/>
      <point x="311" y="638" type="line" smooth="yes"/>
      <point x="324" y="624" type="line" smooth="yes"/>
      <point x="328" y="602" type="line" smooth="yes"/>
      <point x="328" y="597" type="line" smooth="yes"/>
      <point x="321" y="566" type="line" smooth="yes"/>
      <point x="301" y="541" type="line" smooth="yes"/>
      <point x="271" y="518" type="line" smooth="yes"/>
      <point x="260" y="544" type="line" smooth="yes"/>
      <point x="253" y="570" type="line" smooth="yes"/>
      <point x="250" y="597" type="line" smooth="yes"/>
    </contour>
    <contour>
      <point x="278" y="144" type="line" smooth="yes"/>
      <point x="236" y="154" type="line" smooth="yes"/>
      <point x="210" y="184" type="line" smooth="yes"/>
      <point x="201" y="231" type="line" smooth="yes"/>
      <point x="201" y="236" type="line" smooth="yes"/>
      <point x="204" y="260" type="line" smooth="yes"/>
      <point x="211" y="281" type="line" smooth="yes"/>
      <point x="222" y="300" type="line" smooth="yes"/>
      <point x="342" y="153" type="line" smooth="yes"/>
      <point x="323" y="148" type="line" smooth="yes"/>
      <point x="304" y="145" type="line" smooth="yes"/>
      <point x="283" y="144" type="line" smooth="yes"/>
    </contour>
    <contour>
      <point x="246" y="-14" type="line" smooth="yes"/>
      <point x="319" y="-9" type="line" smooth="yes"/>
      <point x="385" y="6" type="line" smooth="yes"/>
      <point x="444" y="28" type="line" smooth="yes"/>
      <point x="467" y="0" type="line" smooth="yes"/>
      <point x="688" y="0" type="line" smooth="yes"/>
      <point x="580" y="132" type="line" smooth="yes"/>
      <point x="637" y="218" type="line" smooth="yes"/>
      <point x="670" y="307" type="line" smooth="yes"/>
      <point x="681" y="390" type="line" smooth="yes"/>
      <point x="681" y="395" type="line" smooth="yes"/>
      <point x="486" y="395" type="line" smooth="yes"/>
      <point x="486" y="393" type="line" smooth="yes"/>
      <point x="483" y="355" type="line" smooth="yes"/>
      <point x="475" y="315" type="line" smooth="yes"/>
      <point x="462" y="276" type="line" smooth="yes"/>
      <point x="366" y="394" type="line" smooth="yes"/>
      <point x="438" y="440" type="line" smooth="yes"/>
      <point x="492" y="504" type="line" smooth="yes"/>
      <point x="514" y="598" type="line" smooth="yes"/>
      <point x="514" y="609" type="line" smooth="yes"/>
      <point x="492" y="701" type="line" smooth="yes"/>
      <point x="420" y="768" type="line" smooth="yes"/>
      <point x="289" y="794" type="line" smooth="yes"/>
      <point x="158" y="768" type="line" smooth="yes"/>
      <point x="86" y="701" type="line" smooth="yes"/>
      <point x="64" y="609" type="line" smooth="yes"/>
      <point x="64" y="598" type="line" smooth="yes"/>
      <point x="70" y="532" type="line" smooth="yes"/>
      <point x="88" y="479" type="line" smooth="yes"/>
      <point x="118" y="430" type="line" smooth="yes"/>
      <point x="65" y="381" type="line" smooth="yes"/>
      <point x="27" y="314" type="line" smooth="yes"/>
      <point x="12" y="224" type="line" smooth="yes"/>
      <point x="12" y="213" type="line" smooth="yes"/>
      <point x="39" y="95" type="line" smooth="yes"/>
      <point x="119" y="15" type="line" smooth="yes"/>
    </contour>
  </outline>
</glyph>
<glyph name="quotesingle" format="1">
  <advance width="280"/>
  <unicode hex="0027"/>
  <outline>
    <contour>
      <point x="40" y="780" type="line" smooth="yes"/>
      <point x="68" y="440" type="line" smooth="yes"/>
      <point x="212" y="440" type="line" smooth="yes"/>
      <point x="240" y="780" type="line" smooth="yes"/>
    </contour>
  </outline>
</glyph>
<glyph name="parenleft" format="1">
  <advance width="380"/>
  <unicode hex="0028"/>
  <outline>
    <contour>
      <point x="35" y="350" type="line" smooth="yes"/>
      <point x="54" y="151" type="line" smooth="yes"/>
      <point x="103" y="2" type="line" smooth="yes"/>
      <point x="175" y="-120" type="line" smooth="yes"/>
      <point x="366" y="-120" type="line" smooth="yes"/>
      <point x="292" y="13" type="line" smooth="yes"/>
      <point x="240" y="167" type="line" smooth="yes"/>
      <point x="220" y="350" type="line" smooth="yes"/>
      <point x="220" y="370" type="line" smooth="yes"/>
      <point x="240" y="553" type="line" smooth="yes"/>
      <point x="292" y="707" type="line" smooth="yes"/>
      <point x="366" y="840" type="line" smooth="yes"/>
      <point x="175" y="840" type="line" smooth="yes"/>
      <point x="103" y="718" type="line" smooth="yes"/>
      <point x="54" y="569" type="line" smooth="yes"/>
      <point x="35" y="370" type="line" smooth="yes"/>
    </contour>
  </outline>
</glyph>
<glyph name="parenright" format="1">
  <advance width="380"/>
  <unicode hex="0029"/>
  <outline>
    <contour>
      <point x="345" y="370" type="line" smooth="yes"/>
      <point x="326" y="569" type="line" smooth="yes"/>
      <point x="277" y="718" type="line" smooth="yes"/>
      <point x="205" y="840" type="line" smooth="yes"/>
      <point x="14" y="840" type="line" smooth="yes"/>
      <point x="88" y="707" type="line" smooth="yes"/>
      <point x="140" y="553" type="line" smooth="yes"/>
      <point x="160" y="370" type="line" smooth="yes"/>
      <point x="160" y="350" type="line" smooth="yes"/>
      <point x="140" y="167" type="line" smooth="yes"/>
      <point x="88" y="13" type="line" smooth="yes"/>
      <point x="14" y="-120" type="line" smooth="yes"/>
      <point x="205" y="-120" type="line" smooth="yes"/>
      <point x="277" y="2" type="line" smooth="yes"/>
      <point x="326" y="151" type="line" smooth="yes"/>
      <point x="345" y="350" type="line" smooth="yes"/>
    </contour>
  </outline>
</glyph>
<glyph name="comma" format="1">
  <advance width="280"/>
  <unicode hex="002C"/>
  <outline>
    <contour>
      <point x="235" y="190" type="line" smooth="yes"/>
      <point x="45" y="190" type="line" smooth="yes"/>
      <point x="45" y="0" type="line" smooth="yes"/>
      <point x="139" y="0" type="line" smooth="yes"/>
      <point x="120" y="-33" type="line" smooth="yes"/>
      <point x="89" y="-53" type="line" smooth="yes"/>
      <point x="45" y="-60" type="line" smooth="yes"/>
      <point x="45" y="-150" type="line" smooth="yes"/>
      <point x="150" y="-129" type="line" smooth="yes"/>
      <point x="214" y="-65" type="line" smooth="yes"/>
      <point x="235" y="40" type="line" smooth="yes"/>
    </contour>
  </outline>
</glyph>
<glyph name="zero" format="1">
  <advance width="600"/>
  <unicode hex="0030"/>
  <outline>
    <contour>
      <point x="374" y="560" type="line" smooth="yes"/>
      <point x="374" y="220" type="line" smooth="yes"/>
      <point x="366" y="183" type="line" smooth="yes"/>
      <point x="342" y="157" type="line" smooth="yes"/>
      <point x="302" y="148" type="line" smooth="yes"/>
      <point x="298" y="148" type="line" smooth="yes"/>
      <point x="258" y="157" type="line" smooth="yes"/>
      <point x="234" y="183" type="line" smooth="yes"/>
      <point x="226" y="220" type="line" smooth="yes"/>
      <point x="226" y="560" type="line" smooth="yes"/>
      <point x="234" y="597" type="line" smooth="yes"/>
      <point x="258" y="623" type="line" smooth="yes"/>
      <point x="298" y="632" type="line" smooth="yes"/>
      <point x="302" y="632" type="line" smooth="yes"/>
      <point x="342" y="623" type="line" smooth="yes"/>
      <point x="366" y="597" type="line" smooth="yes"/>
    </contour>
    <contour>
      <point x="560" y="220" type="line" smooth="yes"/>
      <point x="560" y="560" type="line" smooth="yes"/>
      <point x="530" y="681" type="line" smooth="yes"/>
      <point x="443" y="763" type="line" smooth="yes"/>
      <point x="300" y="794" type="line" smooth="yes"/>
      <point x="157" y="763" type="line" smooth="yes"/>
      <point x="70" y="681" type="line" smooth="yes"/>
      <point x="40" y="560" type="line" smooth="yes"/>
      <point x="40" y="220" type="line" smooth="yes"/>
      <point x="70" y="99" type="line" smooth="yes"/>
      <point x="157" y="17" type="line" smooth="yes"/>
      <point x="300" y="-14" type="line" smooth="yes"/>
      <point x="443" y="17" type="line" smooth="yes"/>
      <point x="530" y="99" type="line" smooth="yes"/>
    </contour>
  </outline>
</glyph>
<glyph name="two" format="1">
  <advance width="600"/>
  <unicode hex="0032"/>
  <outline>
    <contour>
      <point x="370" y="162" type="line" smooth="yes"/>
      <point x="300" y="161" type="line" smooth="yes"/>
      <point x="473" y="353" type="line" smooth="yes"/>
      <point x="520" y="411" type="line" smooth="yes"/>
      <point x="550" y="474" type="line" smooth="yes"/>
      <point x="560" y="555" type="line" smooth="yes"/>
      <point x="560" y="575" type="line" smooth="yes"/>
      <point x="537" y="674" type="line" smooth="yes"/>
      <point x="456" y="759" type="line" smooth="yes"/>
      <point x="300" y="794" type="line" smooth="yes"/>
      <point x="154" y="766" type="line" smooth="yes"/>
      <point x="68" y="681" type="line" smooth="yes"/>
      <point x="40" y="539" type="line" smooth="yes"/>
      <point x="40" y="520" type="line" smooth="yes"/>
      <point x="226" y="520" type="line" smooth="yes"/>
      <point x="235" y="587" type="line" smooth="yes"/>
      <point x="260" y="622" type="line" smooth="yes"/>
      <point x="295" y="632" type="line" smooth="yes"/>
      <point x="305" y="632" type="line" smooth="yes"/>
      <point x="340" y="622" type="line" smooth="yes"/>
      <point x="365" y="592" type="line" smooth="yes"/>
      <point x="374" y="540" type="line" smooth="yes"/>
      <point x="374" y="530" type="line" smooth="yes"/>
      <point x="369" y="496" type="line" smooth="yes"/>
      <point x="354" y="468" type="line" smooth="yes"/>
      <point x="330" y="440" type="line" smooth="yes"/>
      <point x="40" y="117" type="line" smooth="yes"/>
      <point x="40" y="0" type="line" smooth="yes"/>
      <point x="560" y="0" type="line" smooth="yes"/>
      <point x="560" y="162" type="line" smooth="yes"/>
    </contour>
  </outline>
</glyph>
<glyph name="three" format="1">
  <advance width="600"/>
  <unicode hex="0033"/>
  <outline>
    <contour>
      <point x="221" y="250" type="line" smooth="yes"/>
      <point x="35" y="250" type="line" smooth="yes"/>
      <point x="35" y="236" type="line" smooth="yes"/>
      <point x="65" y="100" type="line" smooth="yes"/>
      <point x="153" y="15" type="line" smooth="yes"/>
      <point x="300" y="-14" type="line" smooth="yes"/>
      <point x="457" y="24" type="line" smooth="yes"/>
      <point x="541" y="112" type="line" smooth="yes"/>
      <point x="565" y="211" type="line" smooth="yes"/>
      <point x="565" y="231" type="line" smooth="yes"/>
      <point x="553" y="305" type="line" smooth="yes"/>
      <point x="521" y="360" type="line" smooth="yes"/>
      <point x="476" y="399" type="line" smooth="yes"/>
      <point x="519" y="438" type="line" smooth="yes"/>
      <point x="549" y="493" type="line" smooth="yes"/>
      <point x="560" y="565" type="line" smooth="yes"/>
      <point x="560" y="585" type="line" smooth="yes"/>
      <point x="537" y="677" type="line" smooth="yes"/>
      <point x="456" y="759" type="line" smooth="yes"/>
      <point x="300" y="794" type="line" smooth="yes"/>
      <point x="154" y="766" type="line" smooth="yes"/>
      <point x="68" y="681" type="line" smooth="yes"/>
      <point x="40" y="539" type="line" smooth="yes"/>
      <point x="40" y="520" type="line" smooth="yes"/>
      <point x="226" y="520" type="line" smooth="yes"/>
      <point x="235" y="587" type="line" smooth="yes"/>
      <point x="260" y="622" type="line" smooth="yes"/>
      <point x="295" y="632" type="line" smooth="yes"/>
      <point x="305" y="632" type="line" smooth="yes"/>
      <point x="340" y="623" type="line" smooth="yes"/>
      <point x="365" y="599" type="line" smooth="yes"/>
      <point x="374" y="563" type="line" smooth="yes"/>
      <point x="374" y="553" type="line" smooth="yes"/>
      <point x="366" y="512" type="line" smooth="yes"/>
      <point x="342" y="487" type="line" smooth="yes"/>
      <point x="302" y="479" type="line" smooth="yes"/>
      <point x="200" y="479" type="line" smooth="yes"/>
      <point x="200" y="317" type="line" smooth="yes"/>
      <point x="305" y="317" type="line" smooth="yes"/>
      <point x="346" y="309" type="line" smooth="yes"/>
      <point x="370" y="284" type="line" smooth="yes"/>
      <point x="379" y="243" type="line" smooth="yes"/>
      <point x="379" y="233" type="line" smooth="yes"/>
      <point x="368" y="184" type="line" smooth="yes"/>
      <point x="342" y="157" type="line" smooth="yes"/>
      <point x="305" y="148" type="line" smooth="yes"/>
      <point x="295" y="148" type="line" smooth="yes"/>
      <point x="258" y="157" type="line" smooth="yes"/>
      <point x="232" y="188" type="line" smooth="yes"/>
    </contour>
  </outline>
</glyph>
<glyph name="five" format="1">
  <advance width="600"/>
  <unicode hex="0035"/>
  <outline>
    <contour>
      <point x="35" y="250" type="line" smooth="yes"/>
      <point x="35" y="236" type="line" smooth="yes"/>
      <point x="65" y="100" type="line" smooth="yes"/>
      <point x="153" y="15" type="line" smooth="yes"/>
      <point x="300" y="-14" type="line" smooth="yes"/>
      <point x="448" y="18" type="line" smooth="yes"/>
      <point x="536" y="106" type="line" smooth="yes"/>
      <point x="565" y="238" type="line" smooth="yes"/>
      <point x="565" y="258" type="line" smooth="yes"/>
      <point x="536" y="390" type="line" smooth="yes"/>
      <point x="451" y="478" type="line" smooth="yes"/>
      <point x="310" y="510" type="line" smooth="yes"/>
      <point x="274" y="508" type="line" smooth="yes"/>
      <point x="241" y="502" type="line" smooth="yes"/>
      <point x="209" y="492" type="line" smooth="yes"/>
      <point x="214" y="618" type="line" smooth="yes"/>
      <point x="555" y="618" type="line" smooth="yes"/>
      <point x="555" y="780" type="line" smooth="yes"/>
      <point x="59" y="780" type="line" smooth="yes"/>
      <point x="41" y="355" type="line" smooth="yes"/>
      <point x="201" y="300" type="line" smooth="yes"/>
      <point x="225" y="327" type="line" smooth="yes"/>
      <point x="257" y="343" type="line" smooth="yes"/>
      <point x="290" y="348" type="line" smooth="yes"/>
      <point x="295" y="348" type="line" smooth="yes"/>
      <point x="339" y="339" type="line" smooth="yes"/>
      <point x="368" y="309" type="line" smooth="yes"/>
      <point x="379" y="253" type="line" smooth="yes"/>
      <point x="379" y="243" type="line" smooth="yes"/>
      <point x="368" y="187" type="line" smooth="yes"/>
      <point x="342" y="157" type="line" smooth="yes"/>
      <point x="305" y="148" type="line" smooth="yes"/>
      <point x="295" y="148" type="line" smooth="yes"/>
      <point x="258" y="157" type="line" smooth="yes"/>
      <point x="232" y="188" type="line" smooth="yes"/>
      <point x="221" y="250" type="line" smooth="yes"/>
    </contour>
  </outline>
</glyph>
<glyph name="six" format="1">
  <advance width="600"/>
  <unicode hex="0036"/>
  <outline>
    <contour>
      <point x="302" y="331" type="line" smooth="yes"/>
      <point x="307" y="331" type="line" smooth="yes"/>
      <point x="343" y="323" type="line" smooth="yes"/>
      <point x="369" y="298" type="line" smooth="yes"/>
      <point x="379" y="251" type="line" smooth="yes"/>
      <point x="379" y="231" type="line" smooth="yes"/>
      <point x="368" y="185" type="line" smooth="yes"/>
      <point x="340" y="158" type="line" smooth="yes"/>
      <point x="303" y="148" type="line" smooth="yes"/>
      <point x="297" y="148" type="line" smooth="yes"/>
      <point x="259" y="160" type="line" smooth="yes"/>
      <point x="231" y="198" type="line" smooth="yes"/>
      <point x="221" y="260" type="line" smooth="yes"/>
      <point x="221" y="286" type="line" smooth="yes"/>
      <point x="245" y="312" type="line" smooth="yes"/>
      <point x="273" y="326" type="line" smooth="yes"/>
    </contour>
    <contour>
      <point x="525" y="794" type="line" smooth="yes"/>
      <point x="371" y="782" type="line" smooth="yes"/>
      <point x="245" y="738" type="line" smooth="yes"/>
      <point x="145" y="650" type="line" smooth="yes"/>
      <point x="80" y="535" type="line" smooth="yes"/>
      <point x="45" y="414" type="line" smooth="yes"/>
      <point x="35" y="290" type="line" smooth="yes"/>
      <point x="35" y="276" type="line" smooth="yes"/>
      <point x="65" y="125" type="line" smooth="yes"/>
      <point x="153" y="23" type="line" smooth="yes"/>
      <point x="300" y="-14" type="line" smooth="yes"/>
      <point x="448" y="17" type="line" smooth="yes"/>
      <point x="536" y="104" type="line" smooth="yes"/>
      <point x="565" y="236" type="line" smooth="yes"/>
      <point x="565" y="246" type="line" smooth="yes"/>
      <point x="538" y="377" type="line" smooth="yes"/>
      <point x="464" y="462" type="line" smooth="yes"/>
      <point x="351" y="492" type="line" smooth="yes"/>
      <point x="311" y="489" type="line" smooth="yes"/>
      <point x="275" y="479" type="line" smooth="yes"/>
      <point x="244" y="464" type="line" smooth="yes"/>
      <point x="256" y="495" type="line" smooth="yes"/>
      <point x="270" y="523" type="line" smooth="yes"/>
      <point x="288" y="547" type="line" smooth="yes"/>
      <point x="345" y="594" type="line" smooth="yes"/>
      <point x="422" y="621" type="line" smooth="yes"/>
      <point x="525" y="630" type="line" smooth="yes"/>
    </contour>
  </outline>
</glyph>
<glyph name="nine" format="1">
  <advance width="600"/>
  <unicode hex="0039"/>
  <outline>
    <contour>
      <point x="298" y="449" type="line" smooth="yes"/>
      <point x="293" y="449" type="line" smooth="yes"/>
      <point x="257" y="457" type="line" smooth="yes"/>
      <point x="231" y="482" type="line" smooth="yes"/>
      <point x="221" y="529" type="line" smooth="yes"/>
      <point x="221" y="549" type="line" smooth="yes"/>
      <point x="232" y="595" type="line" smooth="yes"/>
      <point x="260" y="622" type="line" smooth="yes"/>
      <point x="297" y="632" type="line" smooth="yes"/>
      <point x="303" y="632" type="line" smooth="yes"/>
      <point x="341" y="620" type="line" smooth="yes"/>
      <point x="369" y="582" type="line" smooth="yes"/>
      <point x="379" y="520" type="line" smooth="yes"/>
      <point x="379" y="493" type="line" smooth="yes"/>
      <point x="355" y="468" type="line" smooth="yes"/>
      <point x="327" y="454" type="line" smooth="yes"/>
    </contour>
    <contour>
      <point x="75" y="-14" type="line" smooth="yes"/>
      <point x="229" y="-2" type="line" smooth="yes"/>
      <point x="355" y="42" type="line" smooth="yes"/>
      <point x="455" y="130" type="line" smooth="yes"/>
      <point x="520" y="245" type="line" smooth="yes"/>
      <point x="555" y="366" type="line" smooth="yes"/>
      <point x="565" y="490" type="line" smooth="yes"/>
      <point x="565" y="504" type="line" smooth="yes"/>
      <point x="535" y="655" type="line" smooth="yes"/>
      <point x="447" y="757" type="line" smooth="yes"/>
      <point x="300" y="794" type="line" smooth="yes"/>
      <point x="152" y="763" type="line" smooth="yes"/>
      <point x="64" y="676" type="line" smooth="yes"/>
      <point x="35" y="544" type="line" smooth="yes"/>
      <point x="35" y="534" type="line" smooth="yes"/>
      <point x="62" y="403" type="line" smooth="yes"/>
      <point x="136" y="318" type="line" smooth="yes"/>
      <point x="249" y="288" type="line" smooth="yes"/>
      <point x="289" y="291" type="line" smooth="yes"/>
      <point x="324" y="300" type="line" smooth="yes"/>
      <point x="356" y="315" type="line" smooth="yes"/>
      <point x="344" y="284" type="line" smooth="yes"/>
      <point x="329" y="257" type="line" smooth="yes"/>
      <point x="312" y="233" type="line" smooth="yes"/>
      <point x="255" y="186" type="line" smooth="yes"/>
      <point x="178" y="159" type="line" smooth="yes"/>
      <point x="75" y="150" type="line" smooth="yes"/>
    </contour>
  </outline>
</glyph>
<glyph name="colon" format="1">
  <advance width="280"/>
  <unicode hex="003A"/>
  <outline>
    <contour>
      <point x="235" y="485" type="line" smooth="yes"/>
      <point x="45" y="485" type="line" smooth="yes"/>
      <point x="45" y="295" type="line" smooth="yes"/>
      <point x="235" y="295" type="line" smooth="yes"/>
    </contour>
    <contour>
      <point x="235" y="190" type="line" smooth="yes"/>
      <point x="45" y="190" type="line" smooth="yes"/>
      <point x="45" y="0" type="line" smooth="yes"/>
      <point x="235" y="0" type="line" smooth="yes"/>
    </contour>
  </outline>
</glyph>
<glyph name="question" format="1">
  <advance width="510"/>
  <unicode hex="003F"/>
  <outline>
    <contour>
      <point x="345" y="190" type="line" smooth="yes"/>
      <point x="155" y="190" type="line" smooth="yes"/>
      <point x="155" y="0" type="line" smooth="yes"/>
      <point x="345" y="0" type="line" smooth="yes"/>
    </contour>
    <contour>
      <point x="260" y="632" type="line" smooth="yes"/>
      <point x="289" y="626" type="line" smooth="yes"/>
      <point x="304" y="608" type="line" smooth="yes"/>
      <point x="309" y="580" type="line" smooth="yes"/>
      <point x="273" y="501" type="line" smooth="yes"/>
      <point x="210" y="395" type="line" smooth="yes"/>
      <point x="185" y="240" type="line" smooth="yes"/>
      <point x="315" y="240" type="line" smooth="yes"/>
      <point x="369" y="369" type="line" smooth="yes"/>
      <point x="452" y="454" type="line" smooth="yes"/>
      <point x="495" y="595" type="line" smooth="yes"/>
      <point x="476" y="687" type="line" smooth="yes"/>
      <point x="404" y="763" type="line" smooth="yes"/>
      <point x="260" y="794" type="line" smooth="yes"/>
      <point x="120" y="766" type="line" smooth="yes"/>
      <point x="43" y="681" type="line" smooth="yes"/>
      <point x="20" y="539" type="line" smooth="yes"/>
      <point x="20" y="520" type="line" smooth="yes"/>
      <point x="206" y="520" type="line" smooth="yes"/>
      <point x="211" y="587" type="line" smooth="yes"/>
      <point x="229" y="622" type="line" smooth="yes"/>
    </contour>
  </outline>
</glyph>
<glyph name="at" format="1">
  <advance width="1000"/>
  <unicode hex="0040"/>
  <outline>
    <contour>
      <point x="483" y="187" type="line" smooth="yes"/>
      <point x="446" y="197" type="line" smooth="yes"/>
      <point x="425" y="228" type="line" smooth="yes"/>
      <point x="418" y="277" type="line" smooth="yes"/>
      <point x="418" y="313" type="line" smooth="yes"/>
      <point x="425" y="362" type="line" smooth="yes"/>
      <point x="446" y="393" type="line" smooth="yes"/>
      <point x="483" y="403" type="line" smooth="yes"/>
      <point x="515" y="397" type="line" smooth="yes"/>
      <point x="538" y="382" type="line" smooth="yes"/>
      <point x="552" y="366" type="line" smooth="yes"/>
      <point x="552" y="224" type="line" smooth="yes"/>
      <point x="538" y="208" type="line" smooth="yes"/>
      <point x="515" y="193" type="line" smooth="yes"/>
    </contour>
    <contour>
      <point x="517" y="-96" type="line" smooth="yes"/>
      <point x="323" y="-56" type="line" smooth="yes"/>
      <point x="193" y="65" type="line" smooth="yes"/>
      <point x="145" y="270" type="line" smooth="yes"/>
      <point x="145" y="310" type="line" smooth="yes"/>
      <point x="193" y="515" type="line" smooth="yes"/>
      <point x="323" y="636" type="line" smooth="yes"/>
      <point x="512" y="676" type="line" smooth="yes"/>
      <point x="518" y="676" type="line" smooth="yes"/>
      <point x="677" y="655" type="line" smooth="yes"/>
      <point x="802" y="574" type="line" smooth="yes"/>
      <point x="853" y="401" type="line" smooth="yes"/>
      <point x="853" y="371" type="line" smooth="yes"/>
      <point x="841" y="261" type="line" smooth="yes"/>
      <point x="798" y="200" type="line" smooth="yes"/>
      <point x="712" y="178" type="line" smooth="yes"/>
      <point x="712" y="396" type="line" smooth="yes"/>
      <point x="722" y="530" type="line" smooth="yes"/>
      <point x="577" y="530" type="line" smooth="yes"/>
      <point x="566" y="474" type="line" smooth="yes"/>
      <point x="534" y="510" type="line" smooth="yes"/>
      <point x="490" y="535" type="line" smooth="yes"/>
      <point x="432" y="544" type="line" smooth="yes"/>
      <point x="332" y="515" type="line" smooth="yes"/>
      <point x="271" y="434" type="line" smooth="yes"/>
      <point x="250" y="313" type="line" smooth="yes"/>
      <point x="250" y="277" type="line" smooth="yes"/>
      <point x="271" y="156" type="line" smooth="yes"/>
      <point x="332" y="75" type="line" smooth="yes"/>
      <point x="432" y="46" type="line" smooth="yes"/>
      <point x="490" y="55" type="line" smooth="yes"/>
      <point x="534" y="79" type="line" smooth="yes"/>
      <point x="566" y="115" type="line" smooth="yes"/>
      <point x="577" y="60" type="line" smooth="yes"/>
      <point x="700" y="60" type="line" smooth="yes"/>
      <point x="840" y="87" type="line" smooth="yes"/>
      <point x="938" y="184" type="line" smooth="yes"/>
      <point x="975" y="371" type="line" smooth="yes"/>
      <point x="975" y="401" type="line" smooth="yes"/>
      <point x="910" y="630" type="line" smooth="yes"/>
      <point x="743" y="755" type="line" smooth="yes"/>
      <point x="515" y="794" type="line" smooth="yes"/>
      <point x="264" y="739" type="line" smooth="yes"/>
      <point x="90" y="575" type="line" smooth="yes"/>
      <point x="25" y="310" type="line" smooth="yes"/>
      <point x="25" y="270" type="line" smooth="yes"/>
      <point x="90" y="5" type="line" smooth="yes"/>
      <point x="264" y="-159" type="line" smooth="yes"/>
      <point x="520" y="-214" type="line" smooth="yes"/>
      <point x="644" y="-204" type="line" smooth="yes"/>
      <point x="779" y="-164" type="line" smooth="yes"/>
      <point x="921" y="-77" type="line" smooth="yes"/>
      <point x="853" y="15" type="line" smooth="yes"/>
      <point x="751" y="-46" type="line" smooth="yes"/>
      <point x="641" y="-83" type="line" smooth="yes"/>
      <point x="523" y="-96" type="line" smooth="yes"/>
    </contour>
  </outline>
</glyph>
<glyph name="C" format="1">
  <advance width="660"/>
  <unicode hex="0043"/>
  <outline>
    <contour>
      <point x="226" y="370" type="line" smooth="yes"/>
      <point x="226" y="410" type="line" smooth="yes"/>
      <point x="233" y="527" type="line" smooth="yes"/>
      <point x="265" y="603" type="line" smooth="yes"/>
      <point x="335" y="630" type="line" smooth="yes"/>
      <point x="345" y="630" type="line" smooth="yes"/>
      <point x="402" y="611" type="line" smooth="yes"/>
      <point x="428" y="559" type="line" smooth="yes"/>
      <point x="435" y="480" type="line" smooth="yes"/>
      <point x="625" y="480" type="line" smooth="yes"/>
      <point x="625" y="519" type="line" smooth="yes"/>
      <point x="592" y="680" type="line" smooth="yes"/>
      <point x="495" y="767" type="line" smooth="yes"/>
      <point x="335" y="794" type="line" smooth="yes"/>
      <point x="163" y="754" type="line" smooth="yes"/>
      <point x="65" y="630" type="line" smooth="yes"/>
      <point x="33" y="410" type="line" smooth="yes"/>
      <point x="33" y="370" type="line" smooth="yes"/>
      <point x="65" y="150" type="line" smooth="yes"/>
      <point x="163" y="26" type="line" smooth="yes"/>
      <point x="335" y="-14" type="line" smooth="yes"/>
      <point x="495" y="13" type="line" smooth="yes"/>
      <point x="592" y="100" type="line" smooth="yes"/>
      <point x="625" y="261" type="line" smooth="yes"/>
      <point x="625" y="270" type="line" smooth="yes"/>
      <point x="435" y="270" type="line" smooth="yes"/>
      <point x="427" y="208" type="line" smooth="yes"/>
      <point x="398" y="166" type="line" smooth="yes"/>
      <point x="345" y="150" type="line" smooth="yes"/>
      <point x="335" y="150" type="line" smooth="yes"/>
      <point x="265" y="177" type="line" smooth="yes"/>
      <point x="233" y="253" type="line" smooth="yes"/>
    </contour>
  </outline>
</glyph>
<glyph name="M" format="1">
  <advance width="890"/>
  <unicode hex="004D"/>
  <outline>
    <contour>
      <point x="655" y="450" type="line" smooth="yes"/>
      <point x="650" y="300" type="line" smooth="yes"/>
      <point x="650" y="0" type="line" smooth="yes"/>
      <point x="840" y="0" type="line" smooth="yes"/>
      <point x="840" y="780" type="line" smooth="yes"/>
      <point x="557" y="780" type="line" smooth="yes"/>
      <point x="445" y="330" type="line" smooth="yes"/>
      <point x="333" y="780" type="line" smooth="yes"/>
      <point x="50" y="780" type="line" smooth="yes"/>
      <point x="50" y="0" type="line" smooth="yes"/>
      <point x="240" y="0" type="line" smooth="yes"/>
      <point x="240" y="300" type="line" smooth="yes"/>
      <point x="235" y="450" type="line" smooth="yes"/>
      <point x="347" y="0" type="line" smooth="yes"/>
      <point x="543" y="0" type="line" smooth="yes"/>
    </contour>
  </outline>
</glyph>
<glyph name="Q" format="1">
  <advance width="680"/>
  <unicode hex="0051"/>
  <outline>
    <contour>
      <point x="400" y="273" type="line" smooth="yes"/>
      <point x="260" y="273" type="line" smooth="yes"/>
      <point x="306" y="153" type="line" smooth="yes"/>
      <point x="256" y="190" type="line" smooth="yes"/>
      <point x="232" y="264" type="line" smooth="yes"/>
      <point x="226" y="370" type="line" smooth="yes"/>
      <point x="226" y="410" type="line" smooth="yes"/>
      <point x="234" y="527" type="line" smooth="yes"/>
      <point x="267" y="603" type="line" smooth="yes"/>
      <point x="335" y="630" type="line" smooth="yes"/>
      <point x="345" y="630" type="line" smooth="yes"/>
      <point x="413" y="603" type="line" smooth="yes"/>
      <point x="446" y="527" type="line" smooth="yes"/>
      <point x="454" y="410" type="line" smooth="yes"/>
      <point x="454" y="370" type="line" smooth="yes"/>
      <point x="452" y="302" type="line" smooth="yes"/>
      <point x="444" y="245" type="line" smooth="yes"/>
      <point x="429" y="200" type="line" smooth="yes"/>
    </contour>
    <contour>
      <point x="340" y="-14" type="line" smooth="yes"/>
      <point x="350" y="-14" type="line" smooth="yes"/>
      <point x="361" y="-13" type="line" smooth="yes"/>
      <point x="371" y="-13" type="line" smooth="yes"/>
      <point x="405" y="-100" type="line" smooth="yes"/>
      <point x="550" y="-100" type="line" smooth="yes"/>
      <point x="502" y="19" type="line" smooth="yes"/>
      <point x="583" y="92" type="line" smooth="yes"/>
      <point x="631" y="207" type="line" smooth="yes"/>
      <point x="647" y="370" type="line" smooth="yes"/>
      <point x="647" y="410" type="line" smooth="yes"/>
      <point x="614" y="630" type="line" smooth="yes"/>
      <point x="513" y="754" type="line" smooth="yes"/>
      <point x="340" y="794" type="line" smooth="yes"/>
      <point x="167" y="754" type="line" smooth="yes"/>
      <point x="66" y="630" type="line" smooth="yes"/>
      <point x="33" y="410" type="line" smooth="yes"/>
      <point x="33" y="370" type="line" smooth="yes"/>
      <point x="66" y="150" type="line" smooth="yes"/>
      <point x="167" y="26" type="line" smooth="yes"/>
    </contour>
  </outline>
</glyph>
<glyph name="V" format="1">
  <advance width="650"/>
  <unicode hex="0056"/>
  <outline>
    <contour>
      <point x="455" y="0" type="line" smooth="yes"/>
      <point x="641" y="780" type="line" smooth="yes"/>
      <point x="437" y="780" type="line" smooth="yes"/>
      <point x="325" y="220" type="line" smooth="yes"/>
      <point x="212" y="780" type="line" smooth="yes"/>
      <point x="9" y="780" type="line" smooth="yes"/>
      <point x="195" y="0" type="line" smooth="yes"/>
    </contour>
  </outline>
</glyph>
<glyph name="X" format="1">
  <advance width="660"/>
  <unicode hex="0058"/>
  <outline>
    <contour>
      <point x="15" y="0" type="line" smooth="yes"/>
      <point x="225" y="0" type="line" smooth="yes"/>
      <point x="330" y="265" type="line" smooth="yes"/>
      <point x="435" y="0" type="line" smooth="yes"/>
      <point x="645" y="0" type="line" smooth="yes"/>
      <point x="464" y="413" type="line" smooth="yes"/>
      <point x="645" y="780" type="line" smooth="yes"/>
      <point x="425" y="780" type="line" smooth="yes"/>
      <point x="330" y="542" type="line" smooth="yes"/>
      <point x="235" y="780" type="line" smooth="yes"/>
      <point x="15" y="780" type="line" smooth="yes"/>
      <point x="195" y="413" type="line" smooth="yes"/>
    </contour>
  </outline>
</glyph>
<glyph name="asciicircum" format="1">
  <advance width="600"/>
  <unicode hex="005E"/>
  <outline>
    <contour>
      <point x="390" y="780" type="line" smooth="yes"/>
      <point x="210" y="780" type="line" smooth="yes"/>
      <point x="14" y="260" type="line" smooth="yes"/>
      <point x="196" y="260" type="line" smooth="yes"/>
      <point x="300" y="559" type="line" smooth="yes"/>
      <point x="404" y="260" type="line" smooth="yes"/>
      <point x="586" y="260" type="line" smooth="yes"/>
    </contour>
  </outline>
</glyph>
<glyph name="b" format="1">
  <advance width="585"/>
  <unicode hex="0062"/>
  <outline>
    <contour>
      <point x="233" y="345" type="line" smooth="yes"/>
      <point x="249" y="362" type="line" smooth="yes"/>
      <point x="274" y="379" type="line" smooth="yes"/>
      <point x="310" y="386" type="line" smooth="yes"/>
      <point x="350" y="374" type="line" smooth="yes"/>
      <point x="371" y="340" type="line" smooth="yes"/>
      <point x="377" y="285" type="line" smooth="yes"/>
      <point x="377" y="245" type="line" smooth="yes"/>
      <point x="371" y="190" type="line" smooth="yes"/>
      <point x="350" y="156" type="line" smooth="yes"/>
      <point x="310" y="144" type="line" smooth="yes"/>
      <point x="274" y="151" type="line" smooth="yes"/>
      <point x="249" y="168" type="line" smooth="yes"/>
      <point x="233" y="185" type="line" smooth="yes"/>
    </contour>
    <contour>
      <point x="233" y="800" type="line" smooth="yes"/>
      <point x="49" y="800" type="line" smooth="yes"/>
      <point x="49" y="150" type="line" smooth="yes"/>
      <point x="39" y="0" type="line" smooth="yes"/>
      <point x="205" y="0" type="line" smooth="yes"/>
      <point x="216" y="61" type="line" smooth="yes"/>
      <point x="252" y="22" type="line" smooth="yes"/>
      <point x="301" y="-4" type="line" smooth="yes"/>
      <point x="365" y="-14" type="line" smooth="yes"/>
      <point x="480" y="19" type="line" smooth="yes"/>
      <point x="542" y="109" type="line" smooth="yes"/>
      <point x="560" y="245" type="line" smooth="yes"/>
      <point x="560" y="285" type="line" smooth="yes"/>
      <point x="542" y="421" type="line" smooth="yes"/>
      <point x="480" y="511" type="line" smooth="yes"/>
      <point x="365" y="544" type="line" smooth="yes"/>
      <point x="311" y="537" type="line" smooth="yes"/>
      <point x="267" y="518" type="line" smooth="yes"/>
      <point x="233" y="490" type="line" smooth="yes"/>
    </contour>
  </outline>
</glyph>
<glyph name="d" format="1">
  <advance width="595"/>
  <unicode hex="0064"/>
  <outline>
    <contour>
      <point x="361" y="185" type="line" smooth="yes"/>
      <point x="345" y="168" type="line" smooth="yes"/>
      <point x="320" y="151" type="line" smooth="yes"/>
      <point x="284" y="144" type="line" smooth="yes"/>
      <point x="244" y="156" type="line" smooth="yes"/>
      <point x="223" y="190" type="line" smooth="yes"/>
      <point x="217" y="245" type="line" smooth="yes"/>
      <point x="217" y="285" type="line" smooth="yes"/>
      <point x="223" y="340" type="line" smooth="yes"/>
      <point x="244" y="374" type="line" smooth="yes"/>
      <point x="284" y="386" type="line" smooth="yes"/>
      <point x="320" y="379" type="line" smooth="yes"/>
      <point x="345" y="362" type="line" smooth="yes"/>
      <point x="361" y="345" type="line" smooth="yes"/>
    </contour>
    <contour>
      <point x="229" y="544" type="line" smooth="yes"/>
      <point x="114" y="511" type="line" smooth="yes"/>
      <point x="52" y="421" type="line" smooth="yes"/>
      <point x="34" y="285" type="line" smooth="yes"/>
      <point x="34" y="245" type="line" smooth="yes"/>
      <point x="52" y="109" type="line" smooth="yes"/>
      <point x="114" y="19" type="line" smooth="yes"/>
      <point x="229" y="-14" type="line" smooth="yes"/>
      <point x="293" y="-4" type="line" smooth="yes"/>
      <point x="341" y="22" type="line" smooth="yes"/>
      <point x="377" y="61" type="line" smooth="yes"/>
      <point x="389" y="0" type="line" smooth="yes"/>
      <point x="555" y="0" type="line" smooth="yes"/>
      <point x="545" y="150" type="line" smooth="yes"/>
      <point x="545" y="800" type="line" smooth="yes"/>
      <point x="361" y="800" type="line" smooth="yes"/>
      <point x="361" y="490" type="line" smooth="yes"/>
      <point x="327" y="518" type="line" smooth="yes"/>
      <point x="283" y="537" type="line" smooth="yes"/>
    </contour>
  </outline>
</glyph>
<glyph name="e" format="1">
  <advance width="560"/>
  <unicode hex="0065"/>
  <outline>
    <contour>
      <point x="280" y="406" type="line" smooth="yes"/>
      <point x="316" y="399" type="line" smooth="yes"/>
      <point x="340" y="375" type="line" smooth="yes"/>
      <point x="351" y="330" type="line" smooth="yes"/>
      <point x="209" y="330" type="line" smooth="yes"/>
      <point x="220" y="375" type="line" smooth="yes"/>
      <point x="244" y="399" type="line" smooth="yes"/>
    </contour>
    <contour>
      <point x="535" y="200" type="line" smooth="yes"/>
      <point x="535" y="280" type="line" smooth="yes"/>
      <point x="508" y="417" type="line" smooth="yes"/>
      <point x="425" y="510" type="line" smooth="yes"/>
      <point x="284" y="544" type="line" smooth="yes"/>
      <point x="141" y="510" type="line" smooth="yes"/>
      <point x="54" y="417" type="line" smooth="yes"/>
      <point x="25" y="280" type="line" smooth="yes"/>
      <point x="25" y="250" type="line" smooth="yes"/>
      <point x="53" y="113" type="line" smooth="yes"/>
      <point x="141" y="20" type="line" smooth="yes"/>
      <point x="290" y="-14" type="line" smooth="yes"/>
      <point x="422" y="9" type="line" smooth="yes"/>
      <point x="506" y="72" type="line" smooth="yes"/>
      <point x="535" y="166" type="line" smooth="yes"/>
      <point x="535" y="170" type="line" smooth="yes"/>
      <point x="362" y="170" type="line" smooth="yes"/>
      <point x="352" y="147" type="line" smooth="yes"/>
      <point x="327" y="130" type="line" smooth="yes"/>
      <point x="291" y="124" type="line" smooth="yes"/>
      <point x="251" y="130" type="line" smooth="yes"/>
      <point x="223" y="154" type="line" smooth="yes"/>
      <point x="209" y="200" type="line" smooth="yes"/>
    </contour>
  </outline>
</glyph>
<glyph name="h" format="1">
  <advance width="595"/>
  <unicode hex="0068"/>
  <outline>
    <contour>
      <point x="234" y="800" type="line" smooth="yes"/>
      <point x="50" y="800" type="line" smooth="yes"/>
      <point x="50" y="0" type="line" smooth="yes"/>
      <point x="234" y="0" type="line" smooth="yes"/>
      <point x="234" y="345" type="line" smooth="yes"/>
      <point x="250" y="362" type="line" smooth="yes"/>
      <point x="275" y="379" type="line" smooth="yes"/>
      <point x="311" y="386" type="line" smooth="yes"/>
      <point x="348" y="376" type="line" smooth="yes"/>
      <point x="364" y="352" type="line" smooth="yes"/>
      <point x="367" y="325" type="line" smooth="yes"/>
      <point x="367" y="0" type="line" smooth="yes"/>
      <point x="551" y="0" type="line" smooth="yes"/>
      <point x="551" y="355" type="line" smooth="yes"/>
      <point x="536" y="446" type="line" smooth="yes"/>
      <point x="484" y="516" type="line" smooth="yes"/>
      <point x="386" y="544" type="line" smooth="yes"/>
      <point x="324" y="536" type="line" smooth="yes"/>
      <point x="273" y="515" type="line" smooth="yes"/>
      <point x="234" y="483" type="line" smooth="yes"/>
    </contour>
  </outline>
</glyph>
<glyph name="m" format="1">
  <advance width="880"/>
  <unicode hex="006D"/>
  <outline>
    <contour>
      <point x="836" y="0" type="line" smooth="yes"/>
      <point x="836" y="360" type="line" smooth="yes"/>
      <point x="820" y="452" type="line" smooth="yes"/>
      <point x="769" y="519" type="line" smooth="yes"/>
      <point x="676" y="544" type="line" smooth="yes"/>
      <point x="607" y="534" type="line" smooth="yes"/>
      <point x="553" y="505" type="line" smooth="yes"/>
      <point x="514" y="463" type="line" smooth="yes"/>
      <point x="483" y="505" type="line" smooth="yes"/>
      <point x="437" y="534" type="line" smooth="yes"/>
      <point x="375" y="544" type="line" smooth="yes"/>
      <point x="308" y="535" type="line" smooth="yes"/>
      <point x="256" y="508" type="line" smooth="yes"/>
      <point x="217" y="469" type="line" smooth="yes"/>
      <point x="206" y="530" type="line" smooth="yes"/>
      <point x="40" y="530" type="line" smooth="yes"/>
      <point x="50" y="380" type="line" smooth="yes"/>
      <point x="50" y="0" type="line" smooth="yes"/>
      <point x="234" y="0" type="line" smooth="yes"/>
      <point x="234" y="350" type="line" smooth="yes"/>
      <point x="248" y="366" type="line" smooth="yes"/>
      <point x="270" y="380" type="line" smooth="yes"/>
      <point x="300" y="386" type="line" smooth="yes"/>
      <point x="331" y="378" type="line" smooth="yes"/>
      <point x="347" y="358" type="line" smooth="yes"/>
      <point x="351" y="330" type="line" smooth="yes"/>
      <point x="351" y="0" type="line" smooth="yes"/>
      <point x="535" y="0" type="line" smooth="yes"/>
      <point x="535" y="350" type="line" smooth="yes"/>
      <point x="549" y="366" type="line" smooth="yes"/>
      <point x="571" y="380" type="line" smooth="yes"/>
      <point x="601" y="386" type="line" smooth="yes"/>
      <point x="632" y="378" type="line" smooth="yes"/>
      <point x="648" y="358" type="line" smooth="yes"/>
      <point x="652" y="330" type="line" smooth="yes"/>
      <point x="652" y="0" type="line" smooth="yes"/>
    </contour>
  </outline>
</glyph>
<glyph name="n" format="1">
  <advance width="595"/>
  <unicode hex="006E"/>
  <outline>
    <contour>
      <point x="551" y="0" type="line" smooth="yes"/>
      <point x="551" y="355" type="line" smooth="yes"/>
      <point x="536" y="446" type="line" smooth="yes"/>
      <point x="484" y="516" type="line" smooth="yes"/>
      <point x="386" y="544" type="line" smooth="yes"/>
      <point x="315" y="534" type="line" smooth="yes"/>
      <point x="260" y="506" type="line" smooth="yes"/>
      <point x="218" y="464" type="line" smooth="yes"/>
      <point x="206" y="530" type="line" smooth="yes"/>
      <point x="40" y="530" type="line" smooth="yes"/>
      <point x="50" y="380" type="line" smooth="yes"/>
      <point x="50" y="0" type="line" smooth="yes"/>
      <point x="234" y="0" type="line" smooth="yes"/>
      <point x="234" y="345" type="line" smooth="yes"/>
      <point x="250" y="362" type="line" smooth="yes"/>
      <point x="275" y="379" type="line" smooth="yes"/>
      <point x="311" y="386" type="line" smooth="yes"/>
      <point x="348" y="376" type="line" smooth="yes"/>
      <point x="364" y="352" type="line" smooth="yes"/>
      <point x="367" y="325" type="line" smooth="yes"/>
      <point x="367" y="0" type="line" smooth="yes"/>
    </contour>
  </outline>
</glyph>
<glyph name="q" format="1">
  <advance width="593"/>
  <unicode hex="0071"/>
  <outline>
    <contour>
      <point x="278" y="144" type="line" smooth="yes"/>
      <point x="238" y="156" type="line" smooth="yes"/>
      <point x="217" y="190" type="line" smooth="yes"/>
      <point x="211" y="245" type="line" smooth="yes"/>
      <point x="211" y="285" type="line" smooth="yes"/>
      <point x="217" y="340" type="line" smooth="yes"/>
      <point x="238" y="374" type="line" smooth="yes"/>
      <point x="278" y="386" type="line" smooth="yes"/>
      <point x="314" y="379" type="line" smooth="yes"/>
      <point x="339" y="362" type="line" smooth="yes"/>
      <point x="355" y="345" type="line" smooth="yes"/>
      <point x="355" y="185" type="line" smooth="yes"/>
      <point x="339" y="168" type="line" smooth="yes"/>
      <point x="314" y="151" type="line" smooth="yes"/>
    </contour>
    <contour>
      <point x="355" y="-200" type="line" smooth="yes"/>
      <point x="539" y="-200" type="line" smooth="yes"/>
      <point x="539" y="380" type="line" smooth="yes"/>
      <point x="549" y="530" type="line" smooth="yes"/>
      <point x="383" y="530" type="line" smooth="yes"/>
      <point x="371" y="468" type="line" smooth="yes"/>
      <point x="335" y="508" type="line" smooth="yes"/>
      <point x="287" y="534" type="line" smooth="yes"/>
      <point x="223" y="544" type="line" smooth="yes"/>
      <point x="108" y="511" type="line" smooth="yes"/>
      <point x="46" y="421" type="line" smooth="yes"/>
      <point x="28" y="285" type="line" smooth="yes"/>
      <point x="28" y="245" type="line" smooth="yes"/>
      <point x="46" y="109" type="line" smooth="yes"/>
      <point x="108" y="19" type="line" smooth="yes"/>
      <point x="223" y="-14" type="line" smooth="yes"/>
      <point x="277" y="-7" type="line" smooth="yes"/>
      <point x="321" y="11" type="line" smooth="yes"/>
      <point x="355" y="40" type="line" smooth="yes"/>
    </contour>
  </outline>
</glyph>
<glyph name="braceleft" format="1">
  <advance width="380"/>
  <unicode hex="007B"/>
  <outline>
    <contour>
      <point x="350" y="840" type="line" smooth="yes"/>
      <point x="320" y="840" type="line" smooth="yes"/>
      <point x="199" y="822" type="line" smooth="yes"/>
      <point x="122" y="761" type="line" smooth="yes"/>
      <point x="95" y="650" type="line" smooth="yes"/>
      <point x="95" y="520" type="line" smooth="yes"/>
      <point x="87" y="475" type="line" smooth="yes"/>
      <point x="64" y="449" type="line" smooth="yes"/>
      <point x="24" y="440" type="line" smooth="yes"/>
      <point x="24" y="280" type="line" smooth="yes"/>
      <point x="64" y="271" type="line" smooth="yes"/>
      <point x="87" y="245" type="line" smooth="yes"/>
      <point x="95" y="200" type="line" smooth="yes"/>
      <point x="95" y="70" type="line" smooth="yes"/>
      <point x="122" y="-41" type="line" smooth="yes"/>
      <point x="199" y="-102" type="line" smooth="yes"/>
      <point x="320" y="-120" type="line" smooth="yes"/>
      <point x="350" y="-120" type="line" smooth="yes"/>
      <point x="350" y="40" type="line" smooth="yes"/>
      <point x="310" y="49" type="line" smooth="yes"/>
      <point x="287" y="75" type="line" smooth="yes"/>
      <point x="279" y="120" type="line" smooth="yes"/>
      <point x="279" y="240" type="line" smooth="yes"/>
      <point x="272" y="292" type="line" smooth="yes"/>
      <point x="251" y="331" type="line" smooth="yes"/>
      <point x="217" y="360" type="line" smooth="yes"/>
      <point x="251" y="388" type="line" smooth="yes"/>
      <point x="272" y="428" type="line" smooth="yes"/>
      <point x="279" y="480" type="line" smooth="yes"/>
      <point x="279" y="600" type="line" smooth="yes"/>
      <point x="287" y="645" type="line" smooth="yes"/>
      <point x="310" y="671" type="line" smooth="yes"/>
      <point x="350" y="680" type="line" smooth="yes"/>
    </contour>
  </outline>
</glyph>
<glyph name="braceright" format="1">
  <advance width="380"/>
  <unicode hex="007D"/>
  <outline>
    <contour>
      <point x="30" y="-120" type="line" smooth="yes"/>
      <point x="60" y="-120" type="line" smooth="yes"/>
      <point x="181" y="-102" type="line" smooth="yes"/>
      <point x="258" y="-41" type="line" smooth="yes"/>
      <point x="285" y="70" type="line" smooth="yes"/>
      <point x="285" y="208" type="line" smooth="yes"/>
      <point x="294" y="248" type="line" smooth="yes"/>
      <point x="317" y="272" type="line" smooth="yes"/>
      <point x="356" y="280" type="line" smooth="yes"/>
      <point x="356" y="440" type="line" smooth="yes"/>
      <point x="316" y="449" type="line" smooth="yes"/>
      <point x="293" y="475" type="line" smooth="yes"/>
      <point x="285" y="520" type="line" smooth="yes"/>
      <point x="285" y="650" type="line" smooth="yes"/>
      <point x="258" y="761" type="line" smooth="yes"/>
      <point x="181" y="822" type="line" smooth="yes"/>
      <point x="60" y="840" type="line" smooth="yes"/>
      <point x="30" y="840" type="line" smooth="yes"/>
      <point x="30" y="680" type="line" smooth="yes"/>
      <point x="70" y="671" type="line" smooth="yes"/>
      <point x="93" y="645" type="line" smooth="yes"/>
      <point x="101" y="600" type="line" smooth="yes"/>
      <point x="101" y="480" type="line" smooth="yes"/>
      <point x="108" y="428" type="line" smooth="yes"/>
      <point x="128" y="388" type="line" smooth="yes"/>
      <point x="162" y="360" type="line" smooth="yes"/>
      <point x="128" y="331" type="line" smooth="yes"/>
      <point x="108" y="292" type="line" smooth="yes"/>
      <point x="101" y="240" type="line" smooth="yes"/>
      <point x="101" y="120" type="line" smooth="yes"/>
      <point x="93" y="75" type="line" smooth="yes"/>
      <point x="70" y="49" type="line" smooth="yes"/>
      <point x="30" y="40" type="line" smooth="yes"/>
    </contour>
  </outline>
</glyph>
<glyph name="asciitilde" format="1">
  <advance width="600"/>
  <unicode hex="007E"/>
  <outline>
    <contour>
      <point x="186" y="492" type="line" smooth="yes"/>
      <point x="120" y="478" type="line" smooth="yes"/>
      <point x="67" y="442" type="line" smooth="yes"/>
      <point x="25" y="391" type="line" smooth="yes"/>
      <point x="110" y="306" type="line" smooth="yes"/>
      <point x="130" y="326" type="line" smooth="yes"/>
      <point x="159" y="344" type="line" smooth="yes"/>
      <point x="195" y="352" type="line" smooth="yes"/>
      <point x="259" y="335" type="line" smooth="yes"/>
      <point x="326" y="305" type="line" smooth="yes"/>
      <point x="414" y="288" type="line" smooth="yes"/>
      <point x="480" y="302" type="line" smooth="yes"/>
      <point x="533" y="338" type="line" smooth="yes"/>
      <point x="575" y="389" type="line" smooth="yes"/>
      <point x="490" y="474" type="line" smooth="yes"/>
      <point x="470" y="454" type="line" smooth="yes"/>
      <point x="441" y="436" type="line" smooth="yes"/>
      <point x="405" y="428" type="line" smooth="yes"/>
      <point x="341" y="445" type="line" smooth="yes"/>
      <point x="274" y="475" type="line" smooth="yes"/>
    </contour>
  </outline>
</glyph>
<glyph name="cent" format="1">
  <advance width="600"/>
  <unicode hex="00A2"/>
  <outline>
    <contour>
      <point x="568" y="463" type="line" smooth="yes"/>
      <point x="568" y="494" type="line" smooth="yes"/>
      <point x="554" y="595" type="line" smooth="yes"/>
      <point x="512" y="666" type="line" smooth="yes"/>
      <point x="442" y="710" type="line" smooth="yes"/>
      <point x="473" y="840" type="line" smooth="yes"/>
      <point x="333" y="840" type="line" smooth="yes"/>
      <point x="307" y="732" type="line" smooth="yes"/>
      <point x="305" y="732" type="line" smooth="yes"/>
      <point x="150" y="696" type="line" smooth="yes"/>
      <point x="61" y="588" type="line" smooth="yes"/>
      <point x="32" y="410" type="line" smooth="yes"/>
      <point x="32" y="370" type="line" smooth="yes"/>
      <point x="45" y="243" type="line" smooth="yes"/>
      <point x="84" y="147" type="line" smooth="yes"/>
      <point x="152" y="84" type="line" smooth="yes"/>
      <point x="118" y="-60" type="line" smooth="yes"/>
      <point x="258" y="-60" type="line" smooth="yes"/>
      <point x="284" y="49" type="line" smooth="yes"/>
      <point x="305" y="49" type="line" smooth="yes"/>
      <point x="450" y="74" type="line" smooth="yes"/>
      <point x="538" y="151" type="line" smooth="yes"/>
      <point x="568" y="281" type="line" smooth="yes"/>
      <point x="568" y="298" type="line" smooth="yes"/>
      <point x="385" y="298" type="line" smooth="yes"/>
      <point x="376" y="252" type="line" smooth="yes"/>
      <point x="352" y="221" type="line" smooth="yes"/>
      <point x="312" y="209" type="line" smooth="yes"/>
      <point x="304" y="209" type="line" smooth="yes"/>
      <point x="253" y="230" type="line" smooth="yes"/>
      <point x="226" y="288" type="line" smooth="yes"/>
      <point x="219" y="371" type="line" smooth="yes"/>
      <point x="219" y="409" type="line" smooth="yes"/>
      <point x="226" y="492" type="line" smooth="yes"/>
      <point x="253" y="550" type="line" smooth="yes"/>
      <point x="304" y="571" type="line" smooth="yes"/>
      <point x="312" y="571" type="line" smooth="yes"/>
      <point x="353" y="559" type="line" smooth="yes"/>
      <point x="378" y="523" type="line" smooth="yes"/>
      <point x="386" y="463" type="line" smooth="yes"/>
    </contour>
  </outline>
</glyph>
<glyph name="sterling" format="1">
  <advance width="600"/>
  <unicode hex="00A3"/>
  <outline>
    <contour>
      <point x="320" y="632" type="line" smooth="yes"/>
      <point x="351" y="617" type="line" smooth="yes"/>
      <point x="369" y="572" type="line" smooth="yes"/>
      <point x="374" y="500" type="line" smooth="yes"/>
      <point x="560" y="500" type="line" smooth="yes"/>
      <point x="560" y="519" type="line" smooth="yes"/>
      <point x="537" y="675" type="line" smooth="yes"/>
      <point x="460" y="765" type="line" smooth="yes"/>
      <point x="320" y="794" type="line" smooth="yes"/>
      <point x="176" y="761" type="line" smooth="yes"/>
      <point x="104" y="682" type="line" smooth="yes"/>
      <point x="85" y="585" type="line" smooth="yes"/>
      <point x="88" y="533" type="line" smooth="yes"/>
      <point x="94" y="484" type="line" smooth="yes"/>
      <point x="105" y="440" type="line" smooth="yes"/>
      <point x="40" y="440" type="line" smooth="yes"/>
      <point x="40" y="280" type="line" smooth="yes"/>
      <point x="159" y="280" type="line" smooth="yes"/>
      <point x="171" y="243" type="line" smooth="yes"/>
      <point x="181" y="203" type="line" smooth="yes"/>
      <point x="189" y="162" type="line" smooth="yes"/>
      <point x="40" y="162" type="line" smooth="yes"/>
      <point x="40" y="0" type="line" smooth="yes"/>
      <point x="560" y="0" type="line" smooth="yes"/>
      <point x="560" y="162" type="line" smooth="yes"/>
      <point x="351" y="162" type="line" smooth="yes"/>
      <point x="347" y="203" type="line" smooth="yes"/>
      <point x="341" y="243" type="line" smooth="yes"/>
      <point x="334" y="280" type="line" smooth="yes"/>
      <point x="461" y="280" type="line" smooth="yes"/>
      <point x="461" y="440" type="line" smooth="yes"/>
      <point x="293" y="440" type="line" smooth="yes"/>
      <point x="282" y="485" type="line" smooth="yes"/>
      <point x="274" y="529" type="line" smooth="yes"/>
      <point x="271" y="570" type="line" smooth="yes"/>
      <point x="276" y="603" type="line" smooth="yes"/>
      <point x="291" y="624" type="line" smooth="yes"/>
    </contour>
  </outline>
</glyph>
<glyph name="section" format="1">
  <advance width="560"/>
  <unicode hex="00A7"/>
  <outline>
    <contour>
      <point x="280" y="444" type="line" smooth="yes"/>
      <point x="320" y="437" type="line" smooth="yes"/>
      <point x="341" y="417" type="line" smooth="yes"/>
      <point x="348" y="390" type="line" smooth="yes"/>
      <point x="341" y="363" type="line" smooth="yes"/>
      <point x="320" y="343" type="line" smooth="yes"/>
      <point x="280" y="336" type="line" smooth="yes"/>
      <point x="272" y="336" type="line" smooth="yes"/>
      <point x="237" y="344" type="line" smooth="yes"/>
      <point x="218" y="364" type="line" smooth="yes"/>
      <point x="212" y="390" type="line" smooth="yes"/>
      <point x="218" y="416" type="line" smooth="yes"/>
      <point x="237" y="435" type="line" smooth="yes"/>
      <point x="272" y="444" type="line" smooth="yes"/>
    </contour>
    <contour>
      <point x="532" y="394" type="line" smooth="yes"/>
      <point x="532" y="404" type="line" smooth="yes"/>
      <point x="502" y="501" type="line" smooth="yes"/>
      <point x="421" y="552" type="line" smooth="yes"/>
      <point x="303" y="572" type="line" smooth="yes"/>
      <point x="268" y="581" type="line" smooth="yes"/>
      <point x="250" y="597" type="line" smooth="yes"/>
      <point x="245" y="620" type="line" smooth="yes"/>
      <point x="251" y="639" type="line" smooth="yes"/>
      <point x="267" y="651" type="line" smooth="yes"/>
      <point x="295" y="656" type="line" smooth="yes"/>
      <point x="323" y="650" type="line" smooth="yes"/>
      <point x="339" y="632" type="line" smooth="yes"/>
      <point x="345" y="605" type="line" smooth="yes"/>
      <point x="525" y="605" type="line" smooth="yes"/>
      <point x="525" y="610" type="line" smooth="yes"/>
      <point x="501" y="710" type="line" smooth="yes"/>
      <point x="425" y="772" type="line" smooth="yes"/>
      <point x="295" y="794" type="line" smooth="yes"/>
      <point x="179" y="776" type="line" smooth="yes"/>
      <point x="97" y="719" type="line" smooth="yes"/>
      <point x="65" y="614" type="line" smooth="yes"/>
      <point x="65" y="604" type="line" smooth="yes"/>
      <point x="68" y="569" type="line" smooth="yes"/>
      <point x="78" y="538" type="line" smooth="yes"/>
      <point x="93" y="511" type="line" smooth="yes"/>
      <point x="57" y="480" type="line" smooth="yes"/>
      <point x="35" y="438" type="line" smooth="yes"/>
      <point x="28" y="386" type="line" smooth="yes"/>
      <point x="28" y="376" type="line" smooth="yes"/>
      <point x="58" y="279" type="line" smooth="yes"/>
      <point x="139" y="228" type="line" smooth="yes"/>
      <point x="257" y="208" type="line" smooth="yes"/>
      <point x="292" y="199" type="line" smooth="yes"/>
      <point x="310" y="183" type="line" smooth="yes"/>
      <point x="315" y="160" type="line" smooth="yes"/>
      <point x="309" y="141" type="line" smooth="yes"/>
      <point x="293" y="129" type="line" smooth="yes"/>
      <point x="265" y="124" type="line" smooth="yes"/>
      <point x="237" y="130" type="line" smooth="yes"/>
      <point x="221" y="148" type="line" smooth="yes"/>
      <point x="215" y="175" type="line" smooth="yes"/>
      <point x="35" y="175" type="line" smooth="yes"/>
      <point x="35" y="170" type="line" smooth="yes"/>
      <point x="59" y="70" type="line" smooth="yes"/>
      <point x="135" y="8" type="line" smooth="yes"/>
      <point x="265" y="-14" type="line" smooth="yes"/>
      <point x="381" y="4" type="line" smooth="yes"/>
      <point x="463" y="61" type="line" smooth="yes"/>
      <point x="495" y="166" type="line" smooth="yes"/>
      <point x="495" y="176" type="line" smooth="yes"/>
      <point x="492" y="211" type="line" smooth="yes"/>
      <point x="482" y="242" type="line" smooth="yes"/>
      <point x="466" y="268" type="line" smooth="yes"/>
      <point x="502" y="299" type="line" smooth="yes"/>
      <point x="524" y="341" type="line" smooth="yes"/>
    </contour>
  </outline>
</glyph>
<glyph name="copyright" format="1">
  <advance width="920"/>
  <unicode hex="00A9"/>
  <outline>
    <contour>
      <point x="464" y="282" type="line" smooth="yes"/>
      <point x="429" y="292" type="line" smooth="yes"/>
      <point x="411" y="323" type="line" smooth="yes"/>
      <point x="405" y="372" type="line" smooth="yes"/>
      <point x="405" y="408" type="line" smooth="yes"/>
      <point x="411" y="457" type="line" smooth="yes"/>
      <point x="429" y="488" type="line" smooth="yes"/>
      <point x="464" y="498" type="line" smooth="yes"/>
      <point x="492" y="492" type="line" smooth="yes"/>
      <point x="510" y="473" type="line" smooth="yes"/>
      <point x="516" y="439" type="line" smooth="yes"/>
      <point x="671" y="439" type="line" smooth="yes"/>
      <point x="671" y="461" type="line" smooth="yes"/>
      <point x="647" y="558" type="line" smooth="yes"/>
      <point x="576" y="619" type="line" smooth="yes"/>
      <point x="460" y="640" type="line" smooth="yes"/>
      <point x="335" y="611" type="line" smooth="yes"/>
      <point x="264" y="530" type="line" smooth="yes"/>
      <point x="241" y="408" type="line" smooth="yes"/>
      <point x="241" y="372" type="line" smooth="yes"/>
      <point x="264" y="250" type="line" smooth="yes"/>
      <point x="335" y="169" type="line" smooth="yes"/>
      <point x="460" y="140" type="line" smooth="yes"/>
      <point x="576" y="161" type="line" smooth="yes"/>
      <point x="647" y="220" type="line" smooth="yes"/>
      <point x="671" y="310" type="line" smooth="yes"/>
      <point x="671" y="332" type="line" smooth="yes"/>
      <point x="516" y="332" type="line" smooth="yes"/>
      <point x="510" y="305" type="line" smooth="yes"/>
      <point x="492" y="288" type="line" smooth="yes"/>
    </contour>
    <contour>
      <point x="116" y="390" type="line" smooth="yes"/>
      <point x="163" y="564" type="line" smooth="yes"/>
      <point x="286" y="687" type="line" smooth="yes"/>
      <point x="460" y="734" type="line" smooth="yes"/>
      <point x="634" y="687" type="line" smooth="yes"/>
      <point x="757" y="564" type="line" smooth="yes"/>
      <point x="804" y="390" type="line" smooth="yes"/>
      <point x="757" y="216" type="line" smooth="yes"/>
      <point x="634" y="93" type="line" smooth="yes"/>
      <point x="460" y="46" type="line" smooth="yes"/>
      <point x="286" y="93" type="line" smooth="yes"/>
      <point x="163" y="216" type="line" smooth="yes"/>
    </contour>
    <contour>
      <point x="56" y="390" type="line" smooth="yes"/>
      <point x="111" y="186" type="line" smooth="yes"/>
      <point x="256" y="41" type="line" smooth="yes"/>
      <point x="460" y="-14" type="line" smooth="yes"/>
      <point x="664" y="41" type="line" smooth="yes"/>
      <point x="809" y="186" type="line" smooth="yes"/>
      <point x="864" y="390" type="line" smooth="yes"/>
      <point x="809" y="594" type="line" smooth="yes"/>
      <point x="664" y="739" type="line" smooth="yes"/>
      <point x="460" y="794" type="line" smooth="yes"/>
      <point x="256" y="739" type="line" smooth="yes"/>
      <point x="111" y="594" type="line" smooth="yes"/>
    </contour>
  </outline>
</glyph>
<glyph name="ordfeminine" format="1">
  <advance width="440"/>
  <unicode hex="00AA"/>
  <outline>
    <contour>
      <point x="212" y="503" type="line" smooth="yes"/>
      <point x="195" y="507" type="line" smooth="yes"/>
      <point x="186" y="515" type="line" smooth="yes"/>
      <point x="184" y="527" type="line" smooth="yes"/>
      <point x="184" y="530" type="line" smooth="yes"/>
      <point x="186" y="542" type="line" smooth="yes"/>
      <point x="195" y="551" type="line" smooth="yes"/>
      <point x="211" y="557" type="line" smooth="yes"/>
      <point x="250" y="563" type="line" smooth="yes"/>
      <point x="250" y="516" type="line" smooth="yes"/>
      <point x="239" y="510" type="line" smooth="yes"/>
      <point x="225" y="505" type="line" smooth="yes"/>
    </contour>
    <contour>
      <point x="37" y="172" type="line" smooth="yes"/>
      <point x="415" y="172" type="line" smooth="yes"/>
      <point x="415" y="309" type="line" smooth="yes"/>
      <point x="37" y="309" type="line" smooth="yes"/>
    </contour>
    <contour>
      <point x="273" y="387" type="line" smooth="yes"/>
      <point x="418" y="387" type="line" smooth="yes"/>
      <point x="410" y="499" type="line" smooth="yes"/>
      <point x="410" y="640" type="line" smooth="yes"/>
      <point x="393" y="725" type="line" smooth="yes"/>
      <point x="335" y="777" type="line" smooth="yes"/>
      <point x="224" y="794" type="line" smooth="yes"/>
      <point x="115" y="776" type="line" smooth="yes"/>
      <point x="57" y="727" type="line" smooth="yes"/>
      <point x="40" y="659" type="line" smooth="yes"/>
      <point x="40" y="652" type="line" smooth="yes"/>
      <point x="190" y="652" type="line" smooth="yes"/>
      <point x="193" y="663" type="line" smooth="yes"/>
      <point x="202" y="672" type="line" smooth="yes"/>
      <point x="220" y="676" type="line" smooth="yes"/>
      <point x="236" y="673" type="line" smooth="yes"/>
      <point x="245" y="665" type="line" smooth="yes"/>
      <point x="249" y="652" type="line" smooth="yes"/>
      <point x="175" y="640" type="line" smooth="yes"/>
      <point x="94" y="619" type="line" smooth="yes"/>
      <point x="43" y="578" type="line" smooth="yes"/>
      <point x="25" y="509" type="line" smooth="yes"/>
      <point x="25" y="502" type="line" smooth="yes"/>
      <point x="36" y="441" type="line" smooth="yes"/>
      <point x="74" y="394" type="line" smooth="yes"/>
      <point x="151" y="376" type="line" smooth="yes"/>
      <point x="197" y="381" type="line" smooth="yes"/>
      <point x="235" y="397" type="line" smooth="yes"/>
      <point x="266" y="421" type="line" smooth="yes"/>
    </contour>
  </outline>
</glyph>
<glyph name="degree" format="1">
  <advance width="400"/>
  <unicode hex="00B0"/>
  <outline>
    <contour>
      <point x="365" y="630" type="line" smooth="yes"/>
      <point x="343" y="717" type="line" smooth="yes"/>
      <point x="285" y="774" type="line" smooth="yes"/>
      <point x="200" y="794" type="line" smooth="yes"/>
      <point x="115" y="774" type="line" smooth="yes"/>
      <point x="57" y="717" type="line" smooth="yes"/>
      <point x="35" y="630" type="line" smooth="yes"/>
      <point x="35" y="625" type="line" smooth="yes"/>
      <point x="57" y="538" type="line" smooth="yes"/>
      <point x="115" y="481" type="line" smooth="yes"/>
      <point x="200" y="461" type="line" smooth="yes"/>
      <point x="285" y="481" type="line" smooth="yes"/>
      <point x="343" y="538" type="line" smooth="yes"/>
      <point x="365" y="625" type="line" smooth="yes"/>
    </contour>
    <contour>
      <point x="256" y="625" type="line" smooth="yes"/>
      <point x="249" y="596" type="line" smooth="yes"/>
      <point x="229" y="578" type="line" smooth="yes"/>
      <point x="202" y="571" type="line" smooth="yes"/>
      <point x="198" y="571" type="line" smooth="yes"/>
      <point x="171" y="578" type="line" smooth="yes"/>
      <point x="151" y="596" type="line" smooth="yes"/>
      <point x="144" y="625" type="line" smooth="yes"/>
      <point x="144" y="630" type="line" smooth="yes"/>
      <point x="151" y="659" type="line" smooth="yes"/>
      <point x="171" y="677" type="line" smooth="yes"/>
      <point x="198" y="684" type="line" smooth="yes"/>
      <point x="202" y="684" type="line" smooth="yes"/>
      <point x="229" y="677" type="line" smooth="yes"/>
      <point x="249" y="659" type="line" smooth="yes"/>
      <point x="256" y="630" type="line" smooth="yes"/>
    </contour>
  </outline>
</glyph>
<glyph name="twosuperior" format="1">
  <advance width="300"/>
  <unicode hex="00B2"/>
  <outline>
    <contour>
      <point x="285" y="503" type="line" smooth="yes"/>
      <point x="193" y="503" type="line" smooth="yes"/>
      <point x="243" y="560" type="line" smooth="yes"/>
      <point x="267" y="591" type="line" smooth="yes"/>
      <point x="281" y="623" type="line" smooth="yes"/>
      <point x="285" y="662" type="line" smooth="yes"/>
      <point x="285" y="674" type="line" smooth="yes"/>
      <point x="275" y="721" type="line" smooth="yes"/>
      <point x="236" y="767" type="line" smooth="yes"/>
      <point x="150" y="788" type="line" smooth="yes"/>
      <point x="75" y="774" type="line" smooth="yes"/>
      <point x="30" y="732" type="line" smooth="yes"/>
      <point x="15" y="658" type="line" smooth="yes"/>
      <point x="15" y="650" type="line" smooth="yes"/>
      <point x="140" y="650" type="line" smooth="yes"/>
      <point x="140" y="674" type="line" smooth="yes"/>
      <point x="144" y="680" type="line" smooth="yes"/>
      <point x="150" y="680" type="line" smooth="yes"/>
      <point x="154" y="674" type="line" smooth="yes"/>
      <point x="154" y="646" type="line" smooth="yes"/>
      <point x="153" y="637" type="line" smooth="yes"/>
      <point x="149" y="630" type="line" smooth="yes"/>
      <point x="144" y="623" type="line" smooth="yes"/>
      <point x="15" y="473" type="line" smooth="yes"/>
      <point x="15" y="390" type="line" smooth="yes"/>
      <point x="285" y="390" type="line" smooth="yes"/>
    </contour>
  </outline>
</glyph>
<glyph name="threesuperior" format="1">
  <advance width="300"/>
  <unicode hex="00B3"/>
  <outline>
    <contour>
      <point x="144" y="515" type="line" smooth="yes"/>
      <point x="12" y="515" type="line" smooth="yes"/>
      <point x="12" y="506" type="line" smooth="yes"/>
      <point x="28" y="437" type="line" smooth="yes"/>
      <point x="74" y="395" type="line" smooth="yes"/>
      <point x="150" y="381" type="line" smooth="yes"/>
      <point x="238" y="403" type="line" smooth="yes"/>
      <point x="277" y="450" type="line" smooth="yes"/>
      <point x="287" y="494" type="line" smooth="yes"/>
      <point x="287" y="505" type="line" smooth="yes"/>
      <point x="281" y="543" type="line" smooth="yes"/>
      <point x="266" y="572" type="line" smooth="yes"/>
      <point x="243" y="590" type="line" smooth="yes"/>
      <point x="265" y="609" type="line" smooth="yes"/>
      <point x="280" y="637" type="line" smooth="yes"/>
      <point x="285" y="673" type="line" smooth="yes"/>
      <point x="285" y="684" type="line" smooth="yes"/>
      <point x="275" y="725" type="line" smooth="yes"/>
      <point x="236" y="768" type="line" smooth="yes"/>
      <point x="150" y="788" type="line" smooth="yes"/>
      <point x="75" y="774" type="line" smooth="yes"/>
      <point x="30" y="732" type="line" smooth="yes"/>
      <point x="15" y="658" type="line" smooth="yes"/>
      <point x="15" y="650" type="line" smooth="yes"/>
      <point x="140" y="650" type="line" smooth="yes"/>
      <point x="140" y="674" type="line" smooth="yes"/>
      <point x="144" y="680" type="line" smooth="yes"/>
      <point x="150" y="680" type="line" smooth="yes"/>
      <point x="154" y="674" type="line" smooth="yes"/>
      <point x="154" y="648" type="line" smooth="yes"/>
      <point x="152" y="642" type="line" smooth="yes"/>
      <point x="148" y="639" type="line" smooth="yes"/>
      <point x="142" y="638" type="line" smooth="yes"/>
      <point x="100" y="638" type="line" smooth="yes"/>
      <point x="100" y="532" type="line" smooth="yes"/>
      <point x="145" y="532" type="line" smooth="yes"/>
      <point x="152" y="531" type="line" smooth="yes"/>
      <point x="156" y="527" type="line" smooth="yes"/>
      <point x="158" y="518" type="line" smooth="yes"/>
      <point x="158" y="496" type="line" smooth="yes"/>
      <point x="154" y="490" type="line" smooth="yes"/>
      <point x="148" y="490" type="line" smooth="yes"/>
      <point x="144" y="496" type="line" smooth="yes"/>
    </contour>
  </outline>
</glyph>
<glyph name="cedilla" format="1">
  <advance width="602"/>
  <unicode hex="00B8"/>
  <outline>
    <contour>
      <point x="141" y="-190" type="line" smooth="yes"/>
      <point x="166" y="-202" type="line" smooth="yes"/>
      <point x="204" y="-212" type="line" smooth="yes"/>
      <point x="252" y="-216" type="line" smooth="yes"/>
      <point x="322" y="-205" type="line" smooth="yes"/>
      <point x="363" y="-174" type="line" smooth="yes"/>
      <point x="377" y="-125" type="line" smooth="yes"/>
      <point x="364" y="-78" type="line" smooth="yes"/>
      <point x="328" y="-50" type="line" smooth="yes"/>
      <point x="277" y="-37" type="line" smooth="yes"/>
      <point x="292" y="0" type="line" smooth="yes"/>
      <point x="212" y="0" type="line" smooth="yes"/>
      <point x="184" y="-70" type="line" smooth="yes"/>
      <point x="198" y="-99" type="line" smooth="yes"/>
      <point x="204" y="-98" type="line" smooth="yes"/>
      <point x="219" y="-95" type="line" smooth="yes"/>
      <point x="238" y="-94" type="line" smooth="yes"/>
      <point x="265" y="-97" type="line" smooth="yes"/>
      <point x="278" y="-104" type="line" smooth="yes"/>
      <point x="282" y="-116" type="line" smooth="yes"/>
      <point x="278" y="-127" type="line" smooth="yes"/>
      <point x="265" y="-135" type="line" smooth="yes"/>
      <point x="238" y="-138" type="line" smooth="yes"/>
      <point x="212" y="-136" type="line" smooth="yes"/>
      <point x="187" y="-130" type="line" smooth="yes"/>
      <point x="168" y="-121" type="line" smooth="yes"/>
    </contour>
  </outline>
</glyph>
<glyph name="ordmasculine" format="1">
  <advance width="450"/>
  <unicode hex="00BA"/>
  <outline>
    <contour>
      <point x="225" y="513" type="line" smooth="yes"/>
      <point x="203" y="519" type="line" smooth="yes"/>
      <point x="191" y="538" type="line" smooth="yes"/>
      <point x="187" y="569" type="line" smooth="yes"/>
      <point x="187" y="602" type="line" smooth="yes"/>
      <point x="191" y="633" type="line" smooth="yes"/>
      <point x="203" y="652" type="line" smooth="yes"/>
      <point x="225" y="658" type="line" smooth="yes"/>
      <point x="247" y="652" type="line" smooth="yes"/>
      <point x="259" y="633" type="line" smooth="yes"/>
      <point x="263" y="602" type="line" smooth="yes"/>
      <point x="263" y="569" type="line" smooth="yes"/>
      <point x="259" y="538" type="line" smooth="yes"/>
      <point x="247" y="519" type="line" smooth="yes"/>
    </contour>
    <contour>
      <point x="38" y="172" type="line" smooth="yes"/>
      <point x="412" y="172" type="line" smooth="yes"/>
      <point x="412" y="309" type="line" smooth="yes"/>
      <point x="38" y="309" type="line" smooth="yes"/>
    </contour>
    <contour>
      <point x="225" y="376" type="line" smooth="yes"/>
      <point x="336" y="400" type="line" smooth="yes"/>
      <point x="401" y="467" type="line" smooth="yes"/>
      <point x="422" y="569" type="line" smooth="yes"/>
      <point x="422" y="602" type="line" smooth="yes"/>
      <point x="401" y="704" type="line" smooth="yes"/>
      <point x="336" y="771" type="line" smooth="yes"/>
      <point x="225" y="795" type="line" smooth="yes"/>
      <point x="114" y="771" type="line" smooth="yes"/>
      <point x="49" y="704" type="line" smooth="yes"/>
      <point x="28" y="602" type="line" smooth="yes"/>
      <point x="28" y="569" type="line" smooth="yes"/>
      <point x="49" y="467" type="line" smooth="yes"/>
      <point x="114" y="400" type="line" smooth="yes"/>
    </contour>
  </outline>
</glyph>
<glyph name="guillemotright" format="1">
  <advance width="580"/>
  <unicode hex="00BB"/>
  <outline>
    <contour>
      <point x="50" y="415" type="line" smooth="yes"/>
      <point x="147" y="340" type="line" smooth="yes"/>
      <point x="50" y="265" type="line" smooth="yes"/>
      <point x="50" y="105" type="line" smooth="yes"/>
      <point x="270" y="250" type="line" smooth="yes"/>
      <point x="270" y="430" type="line" smooth="yes"/>
      <point x="50" y="575" type="line" smooth="yes"/>
    </contour>
    <contour>
      <point x="310" y="415" type="line" smooth="yes"/>
      <point x="407" y="340" type="line" smooth="yes"/>
      <point x="310" y="265" type="line" smooth="yes"/>
      <point x="310" y="105" type="line" smooth="yes"/>
      <point x="530" y="250" type="line" smooth="yes"/>
      <point x="530" y="430" type="line" smooth="yes"/>
      <point x="310" y="575" type="line" smooth="yes"/>
    </contour>
  </outline>
</glyph>
<glyph name="onehalf" format="1">
  <advance width="800"/>
  <unicode hex="00BD"/>
  <outline>
    <contour>
      <point x="785" y="113" type="line" smooth="yes"/>
      <point x="693" y="113" type="line" smooth="yes"/>
      <point x="743" y="170" type="line" smooth="yes"/>
      <point x="767" y="201" type="line" smooth="yes"/>
      <point x="781" y="233" type="line" smooth="yes"/>
      <point x="785" y="272" type="line" smooth="yes"/>
      <point x="785" y="284" type="line" smooth="yes"/>
      <point x="775" y="331" type="line" smooth="yes"/>
      <point x="736" y="377" type="line" smooth="yes"/>
      <point x="650" y="398" type="line" smooth="yes"/>
      <point x="575" y="384" type="line" smooth="yes"/>
      <point x="530" y="342" type="line" smooth="yes"/>
      <point x="515" y="268" type="line" smooth="yes"/>
      <point x="515" y="260" type="line" smooth="yes"/>
      <point x="640" y="260" type="line" smooth="yes"/>
      <point x="640" y="284" type="line" smooth="yes"/>
      <point x="644" y="290" type="line" smooth="yes"/>
      <point x="650" y="290" type="line" smooth="yes"/>
      <point x="654" y="284" type="line" smooth="yes"/>
      <point x="654" y="256" type="line" smooth="yes"/>
      <point x="653" y="247" type="line" smooth="yes"/>
      <point x="649" y="240" type="line" smooth="yes"/>
      <point x="644" y="233" type="line" smooth="yes"/>
      <point x="515" y="83" type="line" smooth="yes"/>
      <point x="515" y="0" type="line" smooth="yes"/>
      <point x="785" y="0" type="line" smooth="yes"/>
    </contour>
    <contour>
      <point x="187" y="0" type="line" smooth="yes"/>
      <point x="763" y="780" type="line" smooth="yes"/>
      <point x="613" y="780" type="line" smooth="yes"/>
      <point x="37" y="0" type="line" smooth="yes"/>
    </contour>
    <contour>
      <point x="287" y="390" type="line" smooth="yes"/>
      <point x="287" y="503" type="line" smooth="yes"/>
      <point x="221" y="503" type="line" smooth="yes"/>
      <point x="221" y="778" type="line" smooth="yes"/>
      <point x="118" y="778" type="line" smooth="yes"/>
      <point x="-2" y="696" type="line" smooth="yes"/>
      <point x="62" y="603" type="line" smooth="yes"/>
      <point x="89" y="621" type="line" smooth="yes"/>
      <point x="89" y="503" type="line" smooth="yes"/>
      <point x="22" y="503" type="line" smooth="yes"/>
      <point x="22" y="390" type="line" smooth="yes"/>
    </contour>
  </outline>
</glyph>
<glyph name="threequarters" format="1">
  <advance width="800"/>
  <unicode hex="00BE"/>
  <outline>
    <contour>
      <point x="620" y="175" type="line" smooth="yes"/>
      <point x="644" y="215" type="line" smooth="yes"/>
      <point x="642" y="175" type="line" smooth="yes"/>
    </contour>
    <contour>
      <point x="774" y="0" type="line" smooth="yes"/>
      <point x="774" y="63" type="line" smooth="yes"/>
      <point x="790" y="63" type="line" smooth="yes"/>
      <point x="790" y="177" type="line" smooth="yes"/>
      <point x="774" y="177" type="line" smooth="yes"/>
      <point x="774" y="390" type="line" smooth="yes"/>
      <point x="649" y="390" type="line" smooth="yes"/>
      <point x="510" y="156" type="line" smooth="yes"/>
      <point x="510" y="63" type="line" smooth="yes"/>
      <point x="642" y="63" type="line" smooth="yes"/>
      <point x="642" y="0" type="line" smooth="yes"/>
    </contour>
    <contour>
      <point x="187" y="0" type="line" smooth="yes"/>
      <point x="763" y="780" type="line" smooth="yes"/>
      <point x="613" y="780" type="line" smooth="yes"/>
      <point x="37" y="0" type="line" smooth="yes"/>
    </contour>
    <contour>
      <point x="144" y="515" type="line" smooth="yes"/>
      <point x="12" y="515" type="line" smooth="yes"/>
      <point x="12" y="506" type="line" smooth="yes"/>
      <point x="28" y="437" type="line" smooth="yes"/>
      <point x="74" y="395" type="line" smooth="yes"/>
      <point x="150" y="381" type="line" smooth="yes"/>
      <point x="238" y="403" type="line" smooth="yes"/>
      <point x="277" y="450" type="line" smooth="yes"/>
      <point x="287" y="494" type="line" smooth="yes"/>
      <point x="287" y="505" type="line" smooth="yes"/>
      <point x="281" y="543" type="line" smooth="yes"/>
      <point x="266" y="572" type="line" smooth="yes"/>
      <point x="243" y="590" type="line" smooth="yes"/>
      <point x="265" y="609" type="line" smooth="yes"/>
      <point x="280" y="637" type="line" smooth="yes"/>
      <point x="285" y="673" type="line" smooth="yes"/>
      <point x="285" y="684" type="line" smooth="yes"/>
      <point x="275" y="725" type="line" smooth="yes"/>
      <point x="236" y="768" type="line" smooth="yes"/>
      <point x="150" y="788" type="line" smooth="yes"/>
      <point x="75" y="774" type="line" smooth="yes"/>
      <point x="30" y="732" type="line" smooth="yes"/>
      <point x="15" y="658" type="line" smooth="yes"/>
      <point x="15" y="650" type="line" smooth="yes"/>
      <point x="140" y="650" type="line" smooth="yes"/>
      <point x="140" y="674" type="line" smooth="yes"/>
      <point x="144" y="680" type="line" smooth="yes"/>
      <point x="150" y="680" type="line" smooth="yes"/>
      <point x="154" y="674" type="line" smooth="yes"/>
      <point x="154" y="648" type="line" smooth="yes"/>
      <point x="152" y="642" type="line" smooth="yes"/>
      <point x="148" y="639" type="line" smooth="yes"/>
      <point x="142" y="638" type="line" smooth="yes"/>
      <point x="100" y="638" type="line" smooth="yes"/>
      <point x="100" y="532" type="line" smooth="yes"/>
      <point x="145" y="532" type="line" smooth="yes"/>
      <point x="152" y="531" type="line" smooth="yes"/>
      <point x="156" y="527" type="line" smooth="yes"/>
      <point x="158" y="518" type="line" smooth="yes"/>
      <point x="158" y="496" type="line" smooth="yes"/>
      <point x="154" y="490" type="line" smooth="yes"/>
      <point x="148" y="490" type="line" smooth="yes"/>
      <point x="144" y="496" type="line" smooth="yes"/>
    </contour>
  </outline>
</glyph>
<glyph name="questiondown" format="1">
  <advance width="510"/>
  <unicode hex="00BF"/>
  <outline>
    <contour>
      <point x="165" y="340" type="line" smooth="yes"/>
      <point x="355" y="340" type="line" smooth="yes"/>
      <point x="355" y="530" type="line" smooth="yes"/>
      <point x="165" y="530" type="line" smooth="yes"/>
    </contour>
    <contour>
      <point x="250" y="-52" type="line" smooth="yes"/>
      <point x="221" y="-47" type="line" smooth="yes"/>
      <point x="206" y="-33" type="line" smooth="yes"/>
      <point x="201" y="-10" type="line" smooth="yes"/>
      <point x="236" y="64" type="line" smooth="yes"/>
      <point x="300" y="162" type="line" smooth="yes"/>
      <point x="325" y="290" type="line" smooth="yes"/>
      <point x="195" y="290" type="line" smooth="yes"/>
      <point x="142" y="187" type="line" smooth="yes"/>
      <point x="58" y="110" type="line" smooth="yes"/>
      <point x="15" y="-25" type="line" smooth="yes"/>
      <point x="34" y="-113" type="line" smooth="yes"/>
      <point x="106" y="-184" type="line" smooth="yes"/>
      <point x="250" y="-214" type="line" smooth="yes"/>
      <point x="390" y="-186" type="line" smooth="yes"/>
      <point x="467" y="-101" type="line" smooth="yes"/>
      <point x="490" y="41" type="line" smooth="yes"/>
      <point x="490" y="60" type="line" smooth="yes"/>
      <point x="304" y="60" type="line" smooth="yes"/>
      <point x="299" y="-7" type="line" smooth="yes"/>
      <point x="281" y="-42" type="line" smooth="yes"/>
    </contour>
  </outline>
</glyph>
<glyph name="Agrave" format="1">
  <advance width="650"/>
  <unicode hex="00C0"/>
  <outline>
    <contour>
      <point x="325" y="560" type="line" smooth="yes"/>
      <point x="373" y="322" type="line" smooth="yes"/>
      <point x="277" y="322" type="line" smooth="yes"/>
    </contour>
    <contour>
      <point x="170" y="950" type="line" smooth="yes"/>
      <point x="234" y="840" type="line" smooth="yes"/>
      <point x="416" y="840" type="line" smooth="yes"/>
      <point x="363" y="950" type="line" smooth="yes"/>
    </contour>
    <contour>
      <point x="195" y="780" type="line" smooth="yes"/>
      <point x="9" y="0" type="line" smooth="yes"/>
      <point x="213" y="0" type="line" smooth="yes"/>
      <point x="244" y="158" type="line" smooth="yes"/>
      <point x="406" y="158" type="line" smooth="yes"/>
      <point x="438" y="0" type="line" smooth="yes"/>
      <point x="641" y="0" type="line" smooth="yes"/>
      <point x="455" y="780" type="line" smooth="yes"/>
    </contour>
  </outline>
</glyph>
<glyph name="Atilde" format="1">
  <advance width="650"/>
  <unicode hex="00C3"/>
  <outline>
    <contour>
      <point x="325" y="560" type="line" smooth="yes"/>
      <point x="373" y="322" type="line" smooth="yes"/>
      <point x="277" y="322" type="line" smooth="yes"/>
    </contour>
    <contour>
      <point x="425" y="950" type="line" smooth="yes"/>
      <point x="420" y="932" type="line" smooth="yes"/>
      <point x="409" y="923" type="line" smooth="yes"/>
      <point x="392" y="920" type="line" smooth="yes"/>
      <point x="351" y="932" type="line" smooth="yes"/>
      <point x="300" y="954" type="line" smooth="yes"/>
      <point x="240" y="966" type="line" smooth="yes"/>
      <point x="187" y="954" type="line" smooth="yes"/>
      <point x="146" y="915" type="line" smooth="yes"/>
      <point x="130" y="840" type="line" smooth="yes"/>
      <point x="225" y="840" type="line" smooth="yes"/>
      <point x="230" y="858" type="line" smooth="yes"/>
      <point x="241" y="867" type="line" smooth="yes"/>
      <point x="258" y="870" type="line" smooth="yes"/>
      <point x="299" y="858" type="line" smooth="yes"/>
      <point x="350" y="836" type="line" smooth="yes"/>
      <point x="410" y="824" type="line" smooth="yes"/>
      <point x="463" y="836" type="line" smooth="yes"/>
      <point x="504" y="875" type="line" smooth="yes"/>
      <point x="520" y="950" type="line" smooth="yes"/>
    </contour>
    <contour>
      <point x="195" y="780" type="line" smooth="yes"/>
      <point x="9" y="0" type="line" smooth="yes"/>
      <point x="213" y="0" type="line" smooth="yes"/>
      <point x="244" y="158" type="line" smooth="yes"/>
      <point x="406" y="158" type="line" smooth="yes"/>
      <point x="438" y="0" type="line" smooth="yes"/>
      <point x="641" y="0" type="line" smooth="yes"/>
      <point x="455" y="780" type="line" smooth="yes"/>
    </contour>
  </outline>
</glyph>
<glyph name="Aring" format="1">
  <advance width="650"/>
  <unicode hex="00C5"/>
  <outline>
    <contour>
      <point x="276" y="855" type="line" smooth="yes"/>
      <point x="283" y="880" type="line" smooth="yes"/>
      <point x="300" y="897" type="line" smooth="yes"/>
      <point x="325" y="904" type="line" smooth="yes"/>
      <point x="350" y="897" type="line" smooth="yes"/>
      <point x="367" y="880" type="line" smooth="yes"/>
      <point x="374" y="855" type="line" smooth="yes"/>
      <point x="367" y="830" type="line" smooth="yes"/>
      <point x="350" y="813" type="line" smooth="yes"/>
      <point x="325" y="806" type="line" smooth="yes"/>
      <point x="300" y="813" type="line" smooth="yes"/>
      <point x="283" y="830" type="line" smooth="yes"/>
    </contour>
    <contour>
      <point x="325" y="560" type="line" smooth="yes"/>
      <point x="373" y="322" type="line" smooth="yes"/>
      <point x="277" y="322" type="line" smooth="yes"/>
    </contour>
    <contour>
      <point x="216" y="855" type="line" smooth="yes"/>
      <point x="220" y="827" type="line" smooth="yes"/>
      <point x="230" y="801" type="line" smooth="yes"/>
      <point x="246" y="780" type="line" smooth="yes"/>
      <point x="195" y="780" type="line" smooth="yes"/>
      <point x="9" y="0" type="line" smooth="yes"/>
      <point x="213" y="0" type="line" smooth="yes"/>
      <point x="244" y="158" type="line" smooth="yes"/>
      <point x="406" y="158" type="line" smooth="yes"/>
      <point x="438" y="0" type="line" smooth="yes"/>
      <point x="641" y="0" type="line" smooth="yes"/>
      <point x="455" y="780" type="line" smooth="yes"/>
      <point x="404" y="780" type="line" smooth="yes"/>
      <point x="420" y="801" type="line" smooth="yes"/>
      <point x="430" y="827" type="line" smooth="yes"/>
      <point x="434" y="855" type="line" smooth="yes"/>
      <point x="419" y="910" type="line" smooth="yes"/>
      <point x="380" y="949" type="line" smooth="yes"/>
      <point x="325" y="964" type="line" smooth="yes"/>
      <point x="270" y="949" type="line" smooth="yes"/>
      <point x="231" y="910" type="line" smooth="yes"/>
    </contour>
  </outline>
</glyph>
<glyph name="AE" format="1">
  <advance width="900"/>
  <unicode hex="00C6"/>
  <outline>
    <contour>
      <point x="378" y="560" type="line" smooth="yes"/>
      <point x="401" y="322" type="line" smooth="yes"/>
      <point x="306" y="322" type="line" smooth="yes"/>
    </contour>
    <contour>
      <point x="271" y="780" type="line" smooth="yes"/>
      <point x="4" y="0" type="line" smooth="yes"/>
      <point x="208" y="0" type="line" smooth="yes"/>
      <point x="256" y="158" type="line" smooth="yes"/>
      <point x="417" y="158" type="line" smooth="yes"/>
      <point x="433" y="0" type="line" smooth="yes"/>
      <point x="860" y="0" type="line" smooth="yes"/>
      <point x="860" y="164" type="line" smooth="yes"/>
      <point x="614" y="164" type="line" smooth="yes"/>
      <point x="593" y="316" type="line" smooth="yes"/>
      <point x="810" y="316" type="line" smooth="yes"/>
      <point x="810" y="480" type="line" smooth="yes"/>
      <point x="571" y="480" type="line" smooth="yes"/>
      <point x="553" y="616" type="line" smooth="yes"/>
      <point x="860" y="616" type="line" smooth="yes"/>
      <point x="860" y="780" type="line" smooth="yes"/>
    </contour>
  </outline>
</glyph>
<glyph name="Ccedilla" format="1">
  <advance width="660"/>
  <unicode hex="00C7"/>
  <outline>
    <contour>
      <point x="236" y="-190" type="line" smooth="yes"/>
      <point x="261" y="-202" type="line" smooth="yes"/>
      <point x="299" y="-212" type="line" smooth="yes"/>
      <point x="347" y="-216" type="line" smooth="yes"/>
      <point x="417" y="-205" type="line" smooth="yes"/>
      <point x="458" y="-174" type="line" smooth="yes"/>
      <point x="472" y="-125" type="line" smooth="yes"/>
      <point x="459" y="-78" type="line" smooth="yes"/>
      <point x="423" y="-50" type="line" smooth="yes"/>
      <point x="372" y="-37" type="line" smooth="yes"/>
      <point x="382" y="-12" type="line" smooth="yes"/>
      <point x="516" y="23" type="line" smooth="yes"/>
      <point x="598" y="111" type="line" smooth="yes"/>
      <point x="625" y="261" type="line" smooth="yes"/>
      <point x="625" y="270" type="line" smooth="yes"/>
      <point x="435" y="270" type="line" smooth="yes"/>
      <point x="427" y="208" type="line" smooth="yes"/>
      <point x="398" y="166" type="line" smooth="yes"/>
      <point x="345" y="150" type="line" smooth="yes"/>
      <point x="335" y="150" type="line" smooth="yes"/>
      <point x="265" y="177" type="line" smooth="yes"/>
      <point x="233" y="253" type="line" smooth="yes"/>
      <point x="226" y="370" type="line" smooth="yes"/>
      <point x="226" y="410" type="line" smooth="yes"/>
      <point x="233" y="527" type="line" smooth="yes"/>
      <point x="265" y="603" type="line" smooth="yes"/>
      <point x="335" y="630" type="line" smooth="yes"/>
      <point x="345" y="630" type="line" smooth="yes"/>
      <point x="402" y="611" type="line" smooth="yes"/>
      <point x="428" y="559" type="line" smooth="yes"/>
      <point x="435" y="480" type="line" smooth="yes"/>
      <point x="625" y="480" type="line" smooth="yes"/>
      <point x="625" y="519" type="line" smooth="yes"/>
      <point x="592" y="680" type="line" smooth="yes"/>
      <point x="495" y="767" type="line" smooth="yes"/>
      <point x="335" y="794" type="line" smooth="yes"/>
      <point x="163" y="754" type="line" smooth="yes"/>
      <point x="65" y="630" type="line" smooth="yes"/>
      <point x="33" y="410" type="line" smooth="yes"/>
      <point x="33" y="370" type="line" smooth="yes"/>
      <point x="61" y="160" type="line" smooth="yes"/>
      <point x="149" y="35" type="line" smooth="yes"/>
      <point x="302" y="-13" type="line" smooth="yes"/>
      <point x="279" y="-70" type="line" smooth="yes"/>
      <point x="293" y="-99" type="line" smooth="yes"/>
      <point x="299" y="-98" type="line" smooth="yes"/>
      <point x="314" y="-95" type="line" smooth="yes"/>
      <point x="333" y="-94" type="line" smooth="yes"/>
      <point x="360" y="-97" type="line" smooth="yes"/>
      <point x="373" y="-104" type="line" smooth="yes"/>
      <point x="377" y="-116" type="line" smooth="yes"/>
      <point x="373" y="-127" type="line" smooth="yes"/>
      <point x="360" y="-135" type="line" smooth="yes"/>
      <point x="333" y="-138" type="line" smooth="yes"/>
      <point x="307" y="-136" type="line" smooth="yes"/>
      <point x="282" y="-130" type="line" smooth="yes"/>
      <point x="263" y="-121" type="line" smooth="yes"/>
    </contour>
  </outline>
</glyph>
<glyph name="Igrave" format="1">
  <advance width="300"/>
  <unicode hex="00CC"/>
  <outline>
    <contour>
      <point x="-5" y="950" type="line" smooth="yes"/>
      <point x="59" y="840" type="line" smooth="yes"/>
      <point x="241" y="840" type="line" smooth="yes"/>
      <point x="188" y="950" type="line" smooth="yes"/>
    </contour>
    <contour>
      <point x="245" y="780" type="line" smooth="yes"/>
      <point x="55" y="780" type="line" smooth="yes"/>
      <point x="55" y="0" type="line" smooth="yes"/>
      <point x="245" y="0" type="line" smooth="yes"/>
    </contour>
  </outline>
</glyph>
<glyph name="Iacute" format="1">
  <advance width="300"/>
  <unicode hex="00CD"/>
  <outline>
    <contour>
      <point x="112" y="950" type="line" smooth="yes"/>
      <point x="59" y="840" type="line" smooth="yes"/>
      <point x="241" y="840" type="line" smooth="yes"/>
      <point x="305" y="950" type="line" smooth="yes"/>
    </contour>
    <contour>
      <point x="245" y="780" type="line" smooth="yes"/>
      <point x="55" y="780" type="line" smooth="yes"/>
      <point x="55" y="0" type="line" smooth="yes"/>
      <point x="245" y="0" type="line" smooth="yes"/>
    </contour>
  </outline>
</glyph>
<glyph name="Icircumflex" format="1">
  <advance width="300"/>
  <unicode hex="00CE"/>
  <outline>
    <contour>
      <point x="90" y="840" type="line" smooth="yes"/>
      <point x="150" y="879" type="line" smooth="yes"/>
      <point x="210" y="840" type="line" smooth="yes"/>
      <point x="375" y="840" type="line" smooth="yes"/>
      <point x="245" y="950" type="line" smooth="yes"/>
      <point x="55" y="950" type="line" smooth="yes"/>
      <point x="-75" y="840" type="line" smooth="yes"/>
    </contour>
    <contour>
      <point x="245" y="780" type="line" smooth="yes"/>
      <point x="55" y="780" type="line" smooth="yes"/>
      <point x="55" y="0" type="line" smooth="yes"/>
      <point x="245" y="0" type="line" smooth="yes"/>
    </contour>
  </outline>
</glyph>
<glyph name="Ntilde" format="1">
  <advance width="690"/>
  <unicode hex="00D1"/>
  <outline>
    <contour>
      <point x="445" y="950" type="line" smooth="yes"/>
      <point x="440" y="932" type="line" smooth="yes"/>
      <point x="429" y="923" type="line" smooth="yes"/>
      <point x="412" y="920" type="line" smooth="yes"/>
      <point x="371" y="932" type="line" smooth="yes"/>
      <point x="320" y="954" type="line" smooth="yes"/>
      <point x="260" y="966" type="line" smooth="yes"/>
      <point x="207" y="954" type="line" smooth="yes"/>
      <point x="166" y="915" type="line" smooth="yes"/>
      <point x="150" y="840" type="line" smooth="yes"/>
      <point x="245" y="840" type="line" smooth="yes"/>
      <point x="250" y="858" type="line" smooth="yes"/>
      <point x="261" y="867" type="line" smooth="yes"/>
      <point x="278" y="870" type="line" smooth="yes"/>
      <point x="319" y="858" type="line" smooth="yes"/>
      <point x="370" y="836" type="line" smooth="yes"/>
      <point x="430" y="824" type="line" smooth="yes"/>
      <point x="483" y="836" type="line" smooth="yes"/>
      <point x="524" y="875" type="line" smooth="yes"/>
      <point x="540" y="950" type="line" smooth="yes"/>
    </contour>
    <contour>
      <point x="640" y="780" type="line" smooth="yes"/>
      <point x="460" y="780" type="line" smooth="yes"/>
      <point x="460" y="500" type="line" smooth="yes"/>
      <point x="465" y="350" type="line" smooth="yes"/>
      <point x="250" y="780" type="line" smooth="yes"/>
      <point x="50" y="780" type="line" smooth="yes"/>
      <point x="50" y="0" type="line" smooth="yes"/>
      <point x="230" y="0" type="line" smooth="yes"/>
      <point x="230" y="280" type="line" smooth="yes"/>
      <point x="225" y="430" type="line" smooth="yes"/>
      <point x="440" y="0" type="line" smooth="yes"/>
      <point x="640" y="0" type="line" smooth="yes"/>
    </contour>
  </outline>
</glyph>
<glyph name="Ocircumflex" format="1">
  <advance width="680"/>
  <unicode hex="00D4"/>
  <outline>
    <contour>
      <point x="280" y="840" type="line" smooth="yes"/>
      <point x="340" y="879" type="line" smooth="yes"/>
      <point x="400" y="840" type="line" smooth="yes"/>
      <point x="565" y="840" type="line" smooth="yes"/>
      <point x="435" y="950" type="line" smooth="yes"/>
      <point x="245" y="950" type="line" smooth="yes"/>
      <point x="115" y="840" type="line" smooth="yes"/>
    </contour>
    <contour>
      <point x="335" y="150" type="line" smooth="yes"/>
      <point x="267" y="177" type="line" smooth="yes"/>
      <point x="234" y="253" type="line" smooth="yes"/>
      <point x="226" y="370" type="line" smooth="yes"/>
      <point x="226" y="410" type="line" smooth="yes"/>
      <point x="234" y="527" type="line" smooth="yes"/>
      <point x="267" y="603" type="line" smooth="yes"/>
      <point x="335" y="630" type="line" smooth="yes"/>
      <point x="345" y="630" type="line" smooth="yes"/>
      <point x="413" y="603" type="line" smooth="yes"/>
      <point x="446" y="527" type="line" smooth="yes"/>
      <point x="454" y="410" type="line" smooth="yes"/>
      <point x="454" y="370" type="line" smooth="yes"/>
      <point x="446" y="253" type="line" smooth="yes"/>
      <point x="413" y="177" type="line" smooth="yes"/>
      <point x="345" y="150" type="line" smooth="yes"/>
    </contour>
    <contour>
      <point x="340" y="-14" type="line" smooth="yes"/>
      <point x="513" y="26" type="line" smooth="yes"/>
      <point x="614" y="150" type="line" smooth="yes"/>
      <point x="647" y="370" type="line" smooth="yes"/>
      <point x="647" y="410" type="line" smooth="yes"/>
      <point x="614" y="630" type="line" smooth="yes"/>
      <point x="513" y="754" type="line" smooth="yes"/>
      <point x="340" y="794" type="line" smooth="yes"/>
      <point x="167" y="754" type="line" smooth="yes"/>
      <point x="66" y="630" type="line" smooth="yes"/>
      <point x="33" y="410" type="line" smooth="yes"/>
      <point x="33" y="370" type="line" smooth="yes"/>
      <point x="66" y="150" type="line" smooth="yes"/>
      <point x="167" y="26" type="line" smooth="yes"/>
    </contour>
  </outline>
</glyph>
<glyph name="Oslash" format="1">
  <advance width="680"/>
  <unicode hex="00D8"/>
  <outline>
    <contour>
      <point x="226" y="370" type="line" smooth="yes"/>
      <point x="226" y="410" type="line" smooth="yes"/>
      <point x="234" y="527" type="line" smooth="yes"/>
      <point x="267" y="603" type="line" smooth="yes"/>
      <point x="335" y="630" type="line" smooth="yes"/>
      <point x="345" y="630" type="line" smooth="yes"/>
      <point x="375" y="626" type="line" smooth="yes"/>
      <point x="399" y="615" type="line" smooth="yes"/>
      <point x="418" y="596" type="line" smooth="yes"/>
      <point x="228" y="302" type="line" smooth="yes"/>
      <point x="227" y="323" type="line" smooth="yes"/>
      <point x="226" y="346" type="line" smooth="yes"/>
    </contour>
    <contour>
      <point x="454" y="410" type="line" smooth="yes"/>
      <point x="454" y="370" type="line" smooth="yes"/>
      <point x="446" y="253" type="line" smooth="yes"/>
      <point x="413" y="177" type="line" smooth="yes"/>
      <point x="345" y="150" type="line" smooth="yes"/>
      <point x="335" y="150" type="line" smooth="yes"/>
      <point x="304" y="154" type="line" smooth="yes"/>
      <point x="280" y="165" type="line" smooth="yes"/>
      <point x="261" y="183" type="line" smooth="yes"/>
      <point x="452" y="478" type="line" smooth="yes"/>
      <point x="453" y="456" type="line" smooth="yes"/>
      <point x="454" y="434" type="line" smooth="yes"/>
    </contour>
    <contour>
      <point x="33" y="410" type="line" smooth="yes"/>
      <point x="33" y="370" type="line" smooth="yes"/>
      <point x="40" y="258" type="line" smooth="yes"/>
      <point x="60" y="167" type="line" smooth="yes"/>
      <point x="94" y="95" type="line" smooth="yes"/>
      <point x="33" y="0" type="line" smooth="yes"/>
      <point x="143" y="0" type="line" smooth="yes"/>
      <point x="161" y="29" type="line" smooth="yes"/>
      <point x="212" y="5" type="line" smooth="yes"/>
      <point x="272" y="-9" type="line" smooth="yes"/>
      <point x="340" y="-14" type="line" smooth="yes"/>
      <point x="513" y="26" type="line" smooth="yes"/>
      <point x="614" y="150" type="line" smooth="yes"/>
      <point x="647" y="370" type="line" smooth="yes"/>
      <point x="647" y="410" type="line" smooth="yes"/>
      <point x="640" y="522" type="line" smooth="yes"/>
      <point x="620" y="613" type="line" smooth="yes"/>
      <point x="585" y="685" type="line" smooth="yes"/>
      <point x="647" y="780" type="line" smooth="yes"/>
      <point x="537" y="780" type="line" smooth="yes"/>
      <point x="518" y="751" type="line" smooth="yes"/>
      <point x="468" y="775" type="line" smooth="yes"/>
      <point x="408" y="789" type="line" smooth="yes"/>
      <point x="340" y="794" type="line" smooth="yes"/>
      <point x="167" y="754" type="line" smooth="yes"/>
      <point x="66" y="630" type="line" smooth="yes"/>
    </contour>
  </outline>
</glyph>
<glyph name="Uacute" format="1">
  <advance width="670"/>
  <unicode hex="00DA"/>
  <outline>
    <contour>
      <point x="297" y="950" type="line" smooth="yes"/>
      <point x="244" y="840" type="line" smooth="yes"/>
      <point x="426" y="840" type="line" smooth="yes"/>
      <point x="490" y="950" type="line" smooth="yes"/>
    </contour>
    <contour>
      <point x="335" y="-14" type="line" smooth="yes"/>
      <point x="511" y="17" type="line" smooth="yes"/>
      <point x="600" y="107" type="line" smooth="yes"/>
      <point x="625" y="248" type="line" smooth="yes"/>
      <point x="625" y="780" type="line" smooth="yes"/>
      <point x="435" y="780" type="line" smooth="yes"/>
      <point x="435" y="253" type="line" smooth="yes"/>
      <point x="428" y="199" type="line" smooth="yes"/>
      <point x="398" y="163" type="line" smooth="yes"/>
      <point x="335" y="150" type="line" smooth="yes"/>
      <point x="272" y="163" type="line" smooth="yes"/>
      <point x="242" y="199" type="line" smooth="yes"/>
      <point x="235" y="253" type="line" smooth="yes"/>
      <point x="235" y="780" type="line" smooth="yes"/>
      <point x="45" y="780" type="line" smooth="yes"/>
      <point x="45" y="248" type="line" smooth="yes"/>
      <point x="70" y="107" type="line" smooth="yes"/>
      <point x="159" y="17" type="line" smooth="yes"/>
    </contour>
  </outline>
</glyph>
<glyph name="Ucircumflex" format="1">
  <advance width="670"/>
  <unicode hex="00DB"/>
  <outline>
    <contour>
      <point x="275" y="840" type="line" smooth="yes"/>
      <point x="335" y="879" type="line" smooth="yes"/>
      <point x="395" y="840" type="line" smooth="yes"/>
      <point x="560" y="840" type="line" smooth="yes"/>
      <point x="430" y="950" type="line" smooth="yes"/>
      <point x="240" y="950" type="line" smooth="yes"/>
      <point x="110" y="840" type="line" smooth="yes"/>
    </contour>
    <contour>
      <point x="335" y="-14" type="line" smooth="yes"/>
      <point x="511" y="17" type="line" smooth="yes"/>
      <point x="600" y="107" type="line" smooth="yes"/>
      <point x="625" y="248" type="line" smooth="yes"/>
      <point x="625" y="780" type="line" smooth="yes"/>
      <point x="435" y="780" type="line" smooth="yes"/>
      <point x="435" y="253" type="line" smooth="yes"/>
      <point x="428" y="199" type="line" smooth="yes"/>
      <point x="398" y="163" type="line" smooth="yes"/>
      <point x="335" y="150" type="line" smooth="yes"/>
      <point x="272" y="163" type="line" smooth="yes"/>
      <point x="242" y="199" type="line" smooth="yes"/>
      <point x="235" y="253" type="line" smooth="yes"/>
      <point x="235" y="780" type="line" smooth="yes"/>
      <point x="45" y="780" type="line" smooth="yes"/>
      <point x="45" y="248" type="line" smooth="yes"/>
      <point x="70" y="107" type="line" smooth="yes"/>
      <point x="159" y="17" type="line" smooth="yes"/>
    </contour>
  </outline>
</glyph>
<glyph name="Thorn" format="1">
  <advance width="620"/>
  <unicode hex="00DE"/>
  <outline>
    <contour>
      <point x="240" y="298" type="line" smooth="yes"/>
      <point x="240" y="482" type="line" smooth="yes"/>
      <point x="327" y="482" type="line" smooth="yes"/>
      <point x="364" y="476" type="line" smooth="yes"/>
      <point x="395" y="450" type="line" smooth="yes"/>
      <point x="408" y="394" type="line" smooth="yes"/>
      <point x="408" y="386" type="line" smooth="yes"/>
      <point x="395" y="330" type="line" smooth="yes"/>
      <point x="364" y="304" type="line" smooth="yes"/>
      <point x="327" y="298" type="line" smooth="yes"/>
    </contour>
    <contour>
      <point x="240" y="780" type="line" smooth="yes"/>
      <point x="50" y="780" type="line" smooth="yes"/>
      <point x="50" y="0" type="line" smooth="yes"/>
      <point x="240" y="0" type="line" smooth="yes"/>
      <point x="240" y="134" type="line" smooth="yes"/>
      <point x="319" y="134" type="line" smooth="yes"/>
      <point x="451" y="150" type="line" smooth="yes"/>
      <point x="556" y="220" type="line" smooth="yes"/>
      <point x="600" y="380" type="line" smooth="yes"/>
      <point x="600" y="400" type="line" smooth="yes"/>
      <point x="556" y="560" type="line" smooth="yes"/>
      <point x="451" y="630" type="line" smooth="yes"/>
      <point x="319" y="646" type="line" smooth="yes"/>
      <point x="240" y="646" type="line" smooth="yes"/>
    </contour>
  </outline>
</glyph>
<glyph name="germandbls" format="1">
  <advance width="650"/>
  <unicode hex="00DF"/>
  <outline>
    <contour>
      <point x="291" y="324" type="line" smooth="yes"/>
      <point x="389" y="256" type="line" smooth="yes"/>
      <point x="425" y="223" type="line" smooth="yes"/>
      <point x="443" y="190" type="line" smooth="yes"/>
      <point x="448" y="163" type="line" smooth="yes"/>
      <point x="446" y="144" type="line" smooth="yes"/>
      <point x="440" y="129" type="line" smooth="yes"/>
      <point x="425" y="124" type="line" smooth="yes"/>
      <point x="411" y="129" type="line" smooth="yes"/>
      <point x="403" y="145" type="line" smooth="yes"/>
      <point x="401" y="170" type="line" smooth="yes"/>
      <point x="258" y="170" type="line" smooth="yes"/>
      <point x="258" y="161" type="line" smooth="yes"/>
      <point x="272" y="73" type="line" smooth="yes"/>
      <point x="327" y="10" type="line" smooth="yes"/>
      <point x="440" y="-14" type="line" smooth="yes"/>
      <point x="556" y="11" type="line" smooth="yes"/>
      <point x="615" y="77" type="line" smooth="yes"/>
      <point x="632" y="166" type="line" smooth="yes"/>
      <point x="632" y="176" type="line" smooth="yes"/>
      <point x="616" y="253" type="line" smooth="yes"/>
      <point x="569" y="324" type="line" smooth="yes"/>
      <point x="494" y="387" type="line" smooth="yes"/>
      <point x="478" y="398" type="line" smooth="yes"/>
      <point x="526" y="445" type="line" smooth="yes"/>
      <point x="558" y="504" type="line" smooth="yes"/>
      <point x="569" y="579" type="line" smooth="yes"/>
      <point x="569" y="590" type="line" smooth="yes"/>
      <point x="541" y="699" type="line" smooth="yes"/>
      <point x="455" y="781" type="line" smooth="yes"/>
      <point x="307" y="814" type="line" smooth="yes"/>
      <point x="153" y="783" type="line" smooth="yes"/>
      <point x="69" y="702" type="line" smooth="yes"/>
      <point x="44" y="589" type="line" smooth="yes"/>
      <point x="44" y="0" type="line" smooth="yes"/>
      <point x="228" y="0" type="line" smooth="yes"/>
      <point x="228" y="580" type="line" smooth="yes"/>
      <point x="236" y="615" type="line" smooth="yes"/>
      <point x="261" y="644" type="line" smooth="yes"/>
      <point x="307" y="656" type="line" smooth="yes"/>
      <point x="352" y="645" type="line" smooth="yes"/>
      <point x="377" y="615" type="line" smooth="yes"/>
      <point x="385" y="570" type="line" smooth="yes"/>
      <point x="372" y="517" type="line" smooth="yes"/>
      <point x="338" y="473" type="line" smooth="yes"/>
      <point x="291" y="439" type="line" smooth="yes"/>
    </contour>
  </outline>
</glyph>
<glyph name="atilde" format="1">
  <advance width="560"/>
  <unicode hex="00E3"/>
  <outline>
    <contour>
      <point x="260" y="134" type="line" smooth="yes"/>
      <point x="230" y="140" type="line" smooth="yes"/>
      <point x="213" y="157" type="line" smooth="yes"/>
      <point x="208" y="177" type="line" smooth="yes"/>
      <point x="208" y="183" type="line" smooth="yes"/>
      <point x="212" y="205" type="line" smooth="yes"/>
      <point x="227" y="222" type="line" smooth="yes"/>
      <point x="260" y="233" type="line" smooth="yes"/>
      <point x="332" y="244" type="line" smooth="yes"/>
      <point x="332" y="163" type="line" smooth="yes"/>
      <point x="314" y="149" type="line" smooth="yes"/>
      <point x="289" y="138" type="line" smooth="yes"/>
    </contour>
    <contour>
      <point x="375" y="780" type="line" smooth="yes"/>
      <point x="371" y="760" type="line" smooth="yes"/>
      <point x="361" y="749" type="line" smooth="yes"/>
      <point x="345" y="745" type="line" smooth="yes"/>
      <point x="300" y="758" type="line" smooth="yes"/>
      <point x="246" y="783" type="line" smooth="yes"/>
      <point x="185" y="796" type="line" smooth="yes"/>
      <point x="125" y="778" type="line" smooth="yes"/>
      <point x="81" y="721" type="line" smooth="yes"/>
      <point x="65" y="620" type="line" smooth="yes"/>
      <point x="185" y="620" type="line" smooth="yes"/>
      <point x="189" y="640" type="line" smooth="yes"/>
      <point x="199" y="651" type="line" smooth="yes"/>
      <point x="215" y="655" type="line" smooth="yes"/>
      <point x="260" y="642" type="line" smooth="yes"/>
      <point x="314" y="617" type="line" smooth="yes"/>
      <point x="375" y="604" type="line" smooth="yes"/>
      <point x="435" y="622" type="line" smooth="yes"/>
      <point x="479" y="679" type="line" smooth="yes"/>
      <point x="495" y="780" type="line" smooth="yes"/>
    </contour>
    <contour>
      <point x="360" y="0" type="line" smooth="yes"/>
      <point x="526" y="0" type="line" smooth="yes"/>
      <point x="516" y="150" type="line" smooth="yes"/>
      <point x="516" y="340" type="line" smooth="yes"/>
      <point x="495" y="451" type="line" smooth="yes"/>
      <point x="422" y="520" type="line" smooth="yes"/>
      <point x="280" y="544" type="line" smooth="yes"/>
      <point x="139" y="519" type="line" smooth="yes"/>
      <point x="66" y="453" type="line" smooth="yes"/>
      <point x="45" y="364" type="line" smooth="yes"/>
      <point x="45" y="355" type="line" smooth="yes"/>
      <point x="218" y="355" type="line" smooth="yes"/>
      <point x="223" y="379" type="line" smooth="yes"/>
      <point x="240" y="398" type="line" smooth="yes"/>
      <point x="275" y="406" type="line" smooth="yes"/>
      <point x="307" y="400" type="line" smooth="yes"/>
      <point x="325" y="381" type="line" smooth="yes"/>
      <point x="332" y="350" type="line" smooth="yes"/>
      <point x="220" y="332" type="line" smooth="yes"/>
      <point x="117" y="305" type="line" smooth="yes"/>
      <point x="49" y="252" type="line" smooth="yes"/>
      <point x="25" y="160" type="line" smooth="yes"/>
      <point x="25" y="150" type="line" smooth="yes"/>
      <point x="40" y="70" type="line" smooth="yes"/>
      <point x="92" y="10" type="line" smooth="yes"/>
      <point x="190" y="-14" type="line" smooth="yes"/>
      <point x="254" y="-6" type="line" smooth="yes"/>
      <point x="308" y="16" type="line" smooth="yes"/>
      <point x="350" y="50" type="line" smooth="yes"/>
    </contour>
  </outline>
</glyph>
<glyph name="aring" format="1">
  <advance width="560"/>
  <unicode hex="00E5"/>
  <outline>
    <contour>
      <point x="231" y="685" type="line" smooth="yes"/>
      <point x="238" y="710" type="line" smooth="yes"/>
      <point x="255" y="727" type="line" smooth="yes"/>
      <point x="280" y="734" type="line" smooth="yes"/>
      <point x="305" y="727" type="line" smooth="yes"/>
      <point x="322" y="710" type="line" smooth="yes"/>
      <point x="329" y="685" type="line" smooth="yes"/>
      <point x="322" y="660" type="line" smooth="yes"/>
      <point x="305" y="643" type="line" smooth="yes"/>
      <point x="280" y="636" type="line" smooth="yes"/>
      <point x="255" y="643" type="line" smooth="yes"/>
      <point x="238" y="660" type="line" smooth="yes"/>
    </contour>
    <contour>
      <point x="260" y="134" type="line" smooth="yes"/>
      <point x="230" y="140" type="line" smooth="yes"/>
      <point x="213" y="157" type="line" smooth="yes"/>
      <point x="208" y="177" type="line" smooth="yes"/>
      <point x="208" y="183" type="line" smooth="yes"/>
      <point x="212" y="205" type="line" smooth="yes"/>
      <point x="227" y="222" type="line" smooth="yes"/>
      <point x="260" y="233" type="line" smooth="yes"/>
      <point x="332" y="244" type="line" smooth="yes"/>
      <point x="332" y="163" type="line" smooth="yes"/>
      <point x="314" y="149" type="line" smooth="yes"/>
      <point x="289" y="138" type="line" smooth="yes"/>
    </contour>
    <contour>
      <point x="171" y="685" type="line" smooth="yes"/>
      <point x="186" y="630" type="line" smooth="yes"/>
      <point x="225" y="591" type="line" smooth="yes"/>
      <point x="280" y="576" type="line" smooth="yes"/>
      <point x="335" y="591" type="line" smooth="yes"/>
      <point x="374" y="630" type="line" smooth="yes"/>
      <point x="389" y="685" type="line" smooth="yes"/>
      <point x="374" y="740" type="line" smooth="yes"/>
      <point x="335" y="779" type="line" smooth="yes"/>
      <point x="280" y="794" type="line" smooth="yes"/>
      <point x="225" y="779" type="line" smooth="yes"/>
      <point x="186" y="740" type="line" smooth="yes"/>
    </contour>
    <contour>
      <point x="360" y="0" type="line" smooth="yes"/>
      <point x="526" y="0" type="line" smooth="yes"/>
      <point x="516" y="150" type="line" smooth="yes"/>
      <point x="516" y="340" type="line" smooth="yes"/>
      <point x="495" y="451" type="line" smooth="yes"/>
      <point x="422" y="520" type="line" smooth="yes"/>
      <point x="280" y="544" type="line" smooth="yes"/>
      <point x="139" y="519" type="line" smooth="yes"/>
      <point x="66" y="453" type="line" smooth="yes"/>
      <point x="45" y="364" type="line" smooth="yes"/>
      <point x="45" y="355" type="line" smooth="yes"/>
      <point x="218" y="355" type="line" smooth="yes"/>
      <point x="223" y="379" type="line" smooth="yes"/>
      <point x="240" y="398" type="line" smooth="yes"/>
      <point x="275" y="406" type="line" smooth="yes"/>
      <point x="307" y="400" type="line" smooth="yes"/>
      <point x="325" y="381" type="line" smooth="yes"/>
      <point x="332" y="350" type="line" smooth="yes"/>
      <point x="220" y="332" type="line" smooth="yes"/>
      <point x="117" y="305" type="line" smooth="yes"/>
      <point x="49" y="252" type="line" smooth="yes"/>
      <point x="25" y="160" type="line" smooth="yes"/>
      <point x="25" y="150" type="line" smooth="yes"/>
      <point x="40" y="70" type="line" smooth="yes"/>
      <point x="92" y="10" type="line" smooth="yes"/>
      <point x="190" y="-14" type="line" smooth="yes"/>
      <point x="254" y="-6" type="line" smooth="yes"/>
      <point x="308" y="16" type="line" smooth="yes"/>
      <point x="350" y="50" type="line" smooth="yes"/>
    </contour>
  </outline>
</glyph>
<glyph name="ae" format="1">
  <advance width="856"/>
  <unicode hex="00E6"/>
  <outline>
    <contour>
      <point x="587" y="406" type="line" smooth="yes"/>
      <point x="623" y="399" type="line" smooth="yes"/>
      <point x="647" y="375" type="line" smooth="yes"/>
      <point x="658" y="330" type="line" smooth="yes"/>
      <point x="516" y="330" type="line" smooth="yes"/>
      <point x="527" y="375" type="line" smooth="yes"/>
      <point x="551" y="399" type="line" smooth="yes"/>
    </contour>
    <contour>
      <point x="341" y="168" type="line" smooth="yes"/>
      <point x="324" y="151" type="line" smooth="yes"/>
      <point x="295" y="136" type="line" smooth="yes"/>
      <point x="260" y="129" type="line" smooth="yes"/>
      <point x="230" y="135" type="line" smooth="yes"/>
      <point x="213" y="152" type="line" smooth="yes"/>
      <point x="208" y="172" type="line" smooth="yes"/>
      <point x="208" y="178" type="line" smooth="yes"/>
      <point x="212" y="200" type="line" smooth="yes"/>
      <point x="228" y="217" type="line" smooth="yes"/>
      <point x="261" y="228" type="line" smooth="yes"/>
      <point x="332" y="239" type="line" smooth="yes"/>
      <point x="333" y="214" type="line" smooth="yes"/>
      <point x="336" y="191" type="line" smooth="yes"/>
    </contour>
    <contour>
      <point x="842" y="200" type="line" smooth="yes"/>
      <point x="842" y="280" type="line" smooth="yes"/>
      <point x="815" y="417" type="line" smooth="yes"/>
      <point x="732" y="510" type="line" smooth="yes"/>
      <point x="591" y="544" type="line" smooth="yes"/>
      <point x="531" y="538" type="line" smooth="yes"/>
      <point x="481" y="520" type="line" smooth="yes"/>
      <point x="441" y="493" type="line" smooth="yes"/>
      <point x="403" y="520" type="line" smooth="yes"/>
      <point x="351" y="538" type="line" smooth="yes"/>
      <point x="280" y="544" type="line" smooth="yes"/>
      <point x="139" y="519" type="line" smooth="yes"/>
      <point x="66" y="453" type="line" smooth="yes"/>
      <point x="45" y="364" type="line" smooth="yes"/>
      <point x="45" y="355" type="line" smooth="yes"/>
      <point x="218" y="355" type="line" smooth="yes"/>
      <point x="223" y="379" type="line" smooth="yes"/>
      <point x="240" y="398" type="line" smooth="yes"/>
      <point x="275" y="406" type="line" smooth="yes"/>
      <point x="307" y="400" type="line" smooth="yes"/>
      <point x="325" y="381" type="line" smooth="yes"/>
      <point x="332" y="349" type="line" smooth="yes"/>
      <point x="222" y="332" type="line" smooth="yes"/>
      <point x="118" y="305" type="line" smooth="yes"/>
      <point x="50" y="252" type="line" smooth="yes"/>
      <point x="25" y="160" type="line" smooth="yes"/>
      <point x="25" y="150" type="line" smooth="yes"/>
      <point x="42" y="70" type="line" smooth="yes"/>
      <point x="98" y="10" type="line" smooth="yes"/>
      <point x="205" y="-14" type="line" smooth="yes"/>
      <point x="277" y="-5" type="line" smooth="yes"/>
      <point x="344" y="19" type="line" smooth="yes"/>
      <point x="401" y="55" type="line" smooth="yes"/>
      <point x="452" y="18" type="line" smooth="yes"/>
      <point x="517" y="-6" type="line" smooth="yes"/>
      <point x="597" y="-14" type="line" smooth="yes"/>
      <point x="729" y="9" type="line" smooth="yes"/>
      <point x="813" y="72" type="line" smooth="yes"/>
      <point x="842" y="166" type="line" smooth="yes"/>
      <point x="842" y="170" type="line" smooth="yes"/>
      <point x="669" y="170" type="line" smooth="yes"/>
      <point x="659" y="147" type="line" smooth="yes"/>
      <point x="634" y="130" type="line" smooth="yes"/>
      <point x="598" y="124" type="line" smooth="yes"/>
      <point x="558" y="130" type="line" smooth="yes"/>
      <point x="530" y="154" type="line" smooth="yes"/>
      <point x="516" y="200" type="line" smooth="yes"/>
    </contour>
  </outline>
</glyph>
<glyph name="ccedilla" format="1">
  <advance width="528"/>
  <unicode hex="00E7"/>
  <outline>
    <contour>
      <point x="161" y="-190" type="line" smooth="yes"/>
      <point x="186" y="-202" type="line" smooth="yes"/>
      <point x="224" y="-212" type="line" smooth="yes"/>
      <point x="272" y="-216" type="line" smooth="yes"/>
      <point x="342" y="-205" type="line" smooth="yes"/>
      <point x="383" y="-174" type="line" smooth="yes"/>
      <point x="397" y="-125" type="line" smooth="yes"/>
      <point x="384" y="-78" type="line" smooth="yes"/>
      <point x="348" y="-50" type="line" smooth="yes"/>
      <point x="297" y="-37" type="line" smooth="yes"/>
      <point x="307" y="-12" type="line" smooth="yes"/>
      <point x="416" y="18" type="line" smooth="yes"/>
      <point x="483" y="82" type="line" smooth="yes"/>
      <point x="505" y="176" type="line" smooth="yes"/>
      <point x="505" y="200" type="line" smooth="yes"/>
      <point x="332" y="200" type="line" smooth="yes"/>
      <point x="325" y="170" type="line" smooth="yes"/>
      <point x="305" y="151" type="line" smooth="yes"/>
      <point x="274" y="144" type="line" smooth="yes"/>
      <point x="235" y="156" type="line" smooth="yes"/>
      <point x="214" y="190" type="line" smooth="yes"/>
      <point x="208" y="245" type="line" smooth="yes"/>
      <point x="208" y="285" type="line" smooth="yes"/>
      <point x="214" y="340" type="line" smooth="yes"/>
      <point x="235" y="374" type="line" smooth="yes"/>
      <point x="274" y="386" type="line" smooth="yes"/>
      <point x="305" y="379" type="line" smooth="yes"/>
      <point x="325" y="358" type="line" smooth="yes"/>
      <point x="332" y="320" type="line" smooth="yes"/>
      <point x="505" y="320" type="line" smooth="yes"/>
      <point x="505" y="344" type="line" smooth="yes"/>
      <point x="478" y="452" type="line" smooth="yes"/>
      <point x="399" y="520" type="line" smooth="yes"/>
      <point x="270" y="544" type="line" smooth="yes"/>
      <point x="130" y="511" type="line" smooth="yes"/>
      <point x="51" y="421" type="line" smooth="yes"/>
      <point x="25" y="285" type="line" smooth="yes"/>
      <point x="25" y="245" type="line" smooth="yes"/>
      <point x="46" y="119" type="line" smooth="yes"/>
      <point x="112" y="30" type="line" smooth="yes"/>
      <point x="227" y="-12" type="line" smooth="yes"/>
      <point x="204" y="-70" type="line" smooth="yes"/>
      <point x="218" y="-99" type="line" smooth="yes"/>
      <point x="224" y="-98" type="line" smooth="yes"/>
      <point x="239" y="-95" type="line" smooth="yes"/>
      <point x="258" y="-94" type="line" smooth="yes"/>
      <point x="285" y="-97" type="line" smooth="yes"/>
      <point x="298" y="-104" type="line" smooth="yes"/>
      <point x="302" y="-116" type="line" smooth="yes"/>
      <point x="298" y="-127" type="line" smooth="yes"/>
      <point x="285" y="-135" type="line" smooth="yes"/>
      <point x="258" y="-138" type="line" smooth="yes"/>
      <point x="232" y="-136" type="line" smooth="yes"/>
      <point x="207" y="-130" type="line" smooth="yes"/>
      <point x="188" y="-121" type="line" smooth="yes"/>
    </contour>
  </outline>
</glyph>
<glyph name="iacute" format="1">
  <advance width="280"/>
  <unicode hex="00ED"/>
  <outline>
    <contour>
      <point x="140" y="780" type="line" smooth="yes"/>
      <point x="49" y="590" type="line" smooth="yes"/>
      <point x="231" y="590" type="line" smooth="yes"/>
      <point x="342" y="780" type="line" smooth="yes"/>
    </contour>
    <contour>
      <point x="48" y="0" type="line" smooth="yes"/>
      <point x="232" y="0" type="line" smooth="yes"/>
      <point x="232" y="530" type="line" smooth="yes"/>
      <point x="48" y="530" type="line" smooth="yes"/>
    </contour>
  </outline>
</glyph>
<glyph name="eth" format="1">
  <advance width="560"/>
  <unicode hex="00F0"/>
  <outline>
    <contour>
      <point x="280" y="144" type="line" smooth="yes"/>
      <point x="239" y="156" type="line" smooth="yes"/>
      <point x="216" y="190" type="line" smooth="yes"/>
      <point x="208" y="245" type="line" smooth="yes"/>
      <point x="208" y="285" type="line" smooth="yes"/>
      <point x="216" y="340" type="line" smooth="yes"/>
      <point x="239" y="374" type="line" smooth="yes"/>
      <point x="280" y="386" type="line" smooth="yes"/>
      <point x="321" y="374" type="line" smooth="yes"/>
      <point x="344" y="340" type="line" smooth="yes"/>
      <point x="352" y="285" type="line" smooth="yes"/>
      <point x="352" y="245" type="line" smooth="yes"/>
      <point x="344" y="190" type="line" smooth="yes"/>
      <point x="321" y="156" type="line" smooth="yes"/>
    </contour>
    <contour>
      <point x="25" y="650" type="line" smooth="yes"/>
      <point x="57" y="646" type="line" smooth="yes"/>
      <point x="87" y="642" type="line" smooth="yes"/>
      <point x="116" y="636" type="line" smooth="yes"/>
      <point x="50" y="600" type="line" smooth="yes"/>
      <point x="50" y="500" type="line" smooth="yes"/>
      <point x="228" y="598" type="line" smooth="yes"/>
      <point x="251" y="583" type="line" smooth="yes"/>
      <point x="271" y="567" type="line" smooth="yes"/>
      <point x="289" y="550" type="line" smooth="yes"/>
      <point x="297" y="539" type="line" smooth="yes"/>
      <point x="282" y="542" type="line" smooth="yes"/>
      <point x="266" y="543" type="line" smooth="yes"/>
      <point x="250" y="544" type="line" smooth="yes"/>
      <point x="127" y="511" type="line" smooth="yes"/>
      <point x="51" y="421" type="line" smooth="yes"/>
      <point x="25" y="285" type="line" smooth="yes"/>
      <point x="25" y="245" type="line" smooth="yes"/>
      <point x="52" y="109" type="line" smooth="yes"/>
      <point x="136" y="19" type="line" smooth="yes"/>
      <point x="280" y="-14" type="line" smooth="yes"/>
      <point x="424" y="19" type="line" smooth="yes"/>
      <point x="508" y="109" type="line" smooth="yes"/>
      <point x="535" y="245" type="line" smooth="yes"/>
      <point x="535" y="285" type="line" smooth="yes"/>
      <point x="527" y="411" type="line" smooth="yes"/>
      <point x="496" y="536" type="line" smooth="yes"/>
      <point x="432" y="653" type="line" smooth="yes"/>
      <point x="421" y="666" type="line" smooth="yes"/>
      <point x="410" y="679" type="line" smooth="yes"/>
      <point x="398" y="691" type="line" smooth="yes"/>
      <point x="440" y="714" type="line" smooth="yes"/>
      <point x="440" y="814" type="line" smooth="yes"/>
      <point x="318" y="747" type="line" smooth="yes"/>
      <point x="230" y="782" type="line" smooth="yes"/>
      <point x="131" y="803" type="line" smooth="yes"/>
      <point x="25" y="814" type="line" smooth="yes"/>
    </contour>
  </outline>
</glyph>
<glyph name="ntilde" format="1">
  <advance width="595"/>
  <unicode hex="00F1"/>
  <outline>
    <contour>
      <point x="396" y="780" type="line" smooth="yes"/>
      <point x="392" y="760" type="line" smooth="yes"/>
      <point x="382" y="749" type="line" smooth="yes"/>
      <point x="366" y="745" type="line" smooth="yes"/>
      <point x="321" y="758" type="line" smooth="yes"/>
      <point x="267" y="783" type="line" smooth="yes"/>
      <point x="206" y="796" type="line" smooth="yes"/>
      <point x="146" y="778" type="line" smooth="yes"/>
      <point x="102" y="721" type="line" smooth="yes"/>
      <point x="86" y="620" type="line" smooth="yes"/>
      <point x="206" y="620" type="line" smooth="yes"/>
      <point x="210" y="640" type="line" smooth="yes"/>
      <point x="220" y="651" type="line" smooth="yes"/>
      <point x="236" y="655" type="line" smooth="yes"/>
      <point x="281" y="642" type="line" smooth="yes"/>
      <point x="335" y="617" type="line" smooth="yes"/>
      <point x="396" y="604" type="line" smooth="yes"/>
      <point x="456" y="622" type="line" smooth="yes"/>
      <point x="500" y="679" type="line" smooth="yes"/>
      <point x="516" y="780" type="line" smooth="yes"/>
    </contour>
    <contour>
      <point x="551" y="0" type="line" smooth="yes"/>
      <point x="551" y="355" type="line" smooth="yes"/>
      <point x="536" y="446" type="line" smooth="yes"/>
      <point x="484" y="516" type="line" smooth="yes"/>
      <point x="386" y="544" type="line" smooth="yes"/>
      <point x="315" y="534" type="line" smooth="yes"/>
      <point x="260" y="506" type="line" smooth="yes"/>
      <point x="218" y="464" type="line" smooth="yes"/>
      <point x="206" y="530" type="line" smooth="yes"/>
      <point x="40" y="530" type="line" smooth="yes"/>
      <point x="50" y="380" type="line" smooth="yes"/>
      <point x="50" y="0" type="line" smooth="yes"/>
      <point x="234" y="0" type="line" smooth="yes"/>
      <point x="234" y="345" type="line" smooth="yes"/>
      <point x="250" y="362" type="line" smooth="yes"/>
      <point x="275" y="379" type="line" smooth="yes"/>
      <point x="311" y="386" type="line" smooth="yes"/>
      <point x="348" y="376" type="line" smooth="yes"/>
      <point x="364" y="352" type="line" smooth="yes"/>
      <point x="367" y="325" type="line" smooth="yes"/>
      <point x="367" y="0" type="line" smooth="yes"/>
    </contour>
  </outline>
</glyph>
<glyph name="oacute" format="1">
  <advance width="560"/>
  <unicode hex="00F3"/>
  <outline>
    <contour>
      <point x="280" y="144" type="line" smooth="yes"/>
      <point x="239" y="156" type="line" smooth="yes"/>
      <point x="216" y="190" type="line" smooth="yes"/>
      <point x="208" y="245" type="line" smooth="yes"/>
      <point x="208" y="285" type="line" smooth="yes"/>
      <point x="216" y="340" type="line" smooth="yes"/>
      <point x="239" y="374" type="line" smooth="yes"/>
      <point x="280" y="386" type="line" smooth="yes"/>
      <point x="321" y="374" type="line" smooth="yes"/>
      <point x="344" y="340" type="line" smooth="yes"/>
      <point x="352" y="285" type="line" smooth="yes"/>
      <point x="352" y="245" type="line" smooth="yes"/>
      <point x="344" y="190" type="line" smooth="yes"/>
      <point x="321" y="156" type="line" smooth="yes"/>
    </contour>
    <contour>
      <point x="280" y="780" type="line" smooth="yes"/>
      <point x="189" y="590" type="line" smooth="yes"/>
      <point x="371" y="590" type="line" smooth="yes"/>
      <point x="482" y="780" type="line" smooth="yes"/>
    </contour>
    <contour>
      <point x="280" y="-14" type="line" smooth="yes"/>
      <point x="424" y="19" type="line" smooth="yes"/>
      <point x="508" y="109" type="line" smooth="yes"/>
      <point x="535" y="245" type="line" smooth="yes"/>
      <point x="535" y="285" type="line" smooth="yes"/>
      <point x="508" y="421" type="line" smooth="yes"/>
      <point x="424" y="511" type="line" smooth="yes"/>
      <point x="280" y="544" type="line" smooth="yes"/>
      <point x="136" y="511" type="line" smooth="yes"/>
      <point x="52" y="421" type="line" smooth="yes"/>
      <point x="25" y="285" type="line" smooth="yes"/>
      <point x="25" y="245" type="line" smooth="yes"/>
      <point x="52" y="109" type="line" smooth="yes"/>
      <point x="136" y="19" type="line" smooth="yes"/>
    </contour>
  </outline>
</glyph>
<glyph name="ocircumflex" format="1">
  <advance width="560"/>
  <unicode hex="00F4"/>
  <outline>
    <contour>
      <point x="280" y="144" type="line" smooth="yes"/>
      <point x="239" y="156" type="line" smooth="yes"/>
      <point x="216" y="190" type="line" smooth="yes"/>
      <point x="208" y="245" type="line" smooth="yes"/>
      <point x="208" y="285" type="line" smooth="yes"/>
      <point x="216" y="340" type="line" smooth="yes"/>
      <point x="239" y="374" type="line" smooth="yes"/>
      <point x="280" y="386" type="line" smooth="yes"/>
      <point x="321" y="374" type="line" smooth="yes"/>
      <point x="344" y="340" type="line" smooth="yes"/>
      <point x="352" y="285" type="line" smooth="yes"/>
      <point x="352" y="245" type="line" smooth="yes"/>
      <point x="344" y="190" type="line" smooth="yes"/>
      <point x="321" y="156" type="line" smooth="yes"/>
    </contour>
    <contour>
      <point x="215" y="590" type="line" smooth="yes"/>
      <point x="280" y="663" type="line" smooth="yes"/>
      <point x="345" y="590" type="line" smooth="yes"/>
      <point x="505" y="590" type="line" smooth="yes"/>
      <point x="370" y="780" type="line" smooth="yes"/>
      <point x="190" y="780" type="line" smooth="yes"/>
      <point x="55" y="590" type="line" smooth="yes"/>
    </contour>
    <contour>
      <point x="280" y="-14" type="line" smooth="yes"/>
      <point x="424" y="19" type="line" smooth="yes"/>
      <point x="508" y="109" type="line" smooth="yes"/>
      <point x="535" y="245" type="line" smooth="yes"/>
      <point x="535" y="285" type="line" smooth="yes"/>
      <point x="508" y="421" type="line" smooth="yes"/>
      <point x="424" y="511" type="line" smooth="yes"/>
      <point x="280" y="544" type="line" smooth="yes"/>
      <point x="136" y="511" type="line" smooth="yes"/>
      <point x="52" y="421" type="line" smooth="yes"/>
      <point x="25" y="285" type="line" smooth="yes"/>
      <point x="25" y="245" type="line" smooth="yes"/>
      <point x="52" y="109" type="line" smooth="yes"/>
      <point x="136" y="19" type="line" smooth="yes"/>
    </contour>
  </outline>
</glyph>
<glyph name="otilde" format="1">
  <advance width="560"/>
  <unicode hex="00F5"/>
  <outline>
    <contour>
      <point x="280" y="144" type="line" smooth="yes"/>
      <point x="239" y="156" type="line" smooth="yes"/>
      <point x="216" y="190" type="line" smooth="yes"/>
      <point x="208" y="245" type="line" smooth="yes"/>
      <point x="208" y="285" type="line" smooth="yes"/>
      <point x="216" y="340" type="line" smooth="yes"/>
      <point x="239" y="374" type="line" smooth="yes"/>
      <point x="280" y="386" type="line" smooth="yes"/>
      <point x="321" y="374" type="line" smooth="yes"/>
      <point x="344" y="340" type="line" smooth="yes"/>
      <point x="352" y="285" type="line" smooth="yes"/>
      <point x="352" y="245" type="line" smooth="yes"/>
      <point x="344" y="190" type="line" smooth="yes"/>
      <point x="321" y="156" type="line" smooth="yes"/>
    </contour>
    <contour>
      <point x="375" y="780" type="line" smooth="yes"/>
      <point x="371" y="760" type="line" smooth="yes"/>
      <point x="361" y="749" type="line" smooth="yes"/>
      <point x="345" y="745" type="line" smooth="yes"/>
      <point x="300" y="758" type="line" smooth="yes"/>
      <point x="246" y="783" type="line" smooth="yes"/>
      <point x="185" y="796" type="line" smooth="yes"/>
      <point x="125" y="778" type="line" smooth="yes"/>
      <point x="81" y="721" type="line" smooth="yes"/>
      <point x="65" y="620" type="line" smooth="yes"/>
      <point x="185" y="620" type="line" smooth="yes"/>
      <point x="189" y="640" type="line" smooth="yes"/>
      <point x="199" y="651" type="line" smooth="yes"/>
      <point x="215" y="655" type="line" smooth="yes"/>
      <point x="260" y="642" type="line" smooth="yes"/>
      <point x="314" y="617" type="line" smooth="yes"/>
      <point x="375" y="604" type="line" smooth="yes"/>
      <point x="435" y="622" type="line" smooth="yes"/>
      <point x="479" y="679" type="line" smooth="yes"/>
      <point x="495" y="780" type="line" smooth="yes"/>
    </contour>
    <contour>
      <point x="280" y="-14" type="line" smooth="yes"/>
      <point x="424" y="19" type="line" smooth="yes"/>
      <point x="508" y="109" type="line" smooth="yes"/>
      <point x="535" y="245" type="line" smooth="yes"/>
      <point x="535" y="285" type="line" smooth="yes"/>
      <point x="508" y="421" type="line" smooth="yes"/>
      <point x="424" y="511" type="line" smooth="yes"/>
      <point x="280" y="544" type="line" smooth="yes"/>
      <point x="136" y="511" type="line" smooth="yes"/>
      <point x="52" y="421" type="line" smooth="yes"/>
      <point x="25" y="285" type="line" smooth="yes"/>
      <point x="25" y="245" type="line" smooth="yes"/>
      <point x="52" y="109" type="line" smooth="yes"/>
      <point x="136" y="19" type="line" smooth="yes"/>
    </contour>
  </outline>
</glyph>
<glyph name="divide" format="1">
  <advance width="600"/>
  <unicode hex="00F7"/>
  <outline>
    <contour>
      <point x="395" y="690" type="line" smooth="yes"/>
      <point x="205" y="690" type="line" smooth="yes"/>
      <point x="205" y="500" type="line" smooth="yes"/>
      <point x="395" y="500" type="line" smooth="yes"/>
    </contour>
    <contour>
      <point x="395" y="280" type="line" smooth="yes"/>
      <point x="205" y="280" type="line" smooth="yes"/>
      <point x="205" y="90" type="line" smooth="yes"/>
      <point x="395" y="90" type="line" smooth="yes"/>
    </contour>
    <contour>
      <point x="40" y="308" type="line" smooth="yes"/>
      <point x="560" y="308" type="line" smooth="yes"/>
      <point x="560" y="472" type="line" smooth="yes"/>
      <point x="40" y="472" type="line" smooth="yes"/>
    </contour>
  </outline>
</glyph>
<glyph name="oslash" format="1">
  <advance width="560"/>
  <unicode hex="00F8"/>
  <outline>
    <contour>
      <point x="208" y="232" type="line" smooth="yes"/>
      <point x="208" y="285" type="line" smooth="yes"/>
      <point x="216" y="340" type="line" smooth="yes"/>
      <point x="239" y="374" type="line" smooth="yes"/>
      <point x="280" y="386" type="line" smooth="yes"/>
      <point x="296" y="385" type="line" smooth="yes"/>
      <point x="309" y="381" type="line" smooth="yes"/>
      <point x="321" y="374" type="line" smooth="yes"/>
    </contour>
    <contour>
      <point x="352" y="285" type="line" smooth="yes"/>
      <point x="352" y="245" type="line" smooth="yes"/>
      <point x="344" y="190" type="line" smooth="yes"/>
      <point x="321" y="156" type="line" smooth="yes"/>
      <point x="280" y="144" type="line" smooth="yes"/>
      <point x="264" y="145" type="line" smooth="yes"/>
      <point x="250" y="149" type="line" smooth="yes"/>
      <point x="238" y="156" type="line" smooth="yes"/>
      <point x="351" y="299" type="line" smooth="yes"/>
      <point x="352" y="295" type="line" smooth="yes"/>
      <point x="352" y="290" type="line" smooth="yes"/>
    </contour>
    <contour>
      <point x="535" y="530" type="line" smooth="yes"/>
      <point x="445" y="530" type="line" smooth="yes"/>
      <point x="428" y="509" type="line" smooth="yes"/>
      <point x="386" y="528" type="line" smooth="yes"/>
      <point x="336" y="540" type="line" smooth="yes"/>
      <point x="280" y="544" type="line" smooth="yes"/>
      <point x="136" y="511" type="line" smooth="yes"/>
      <point x="52" y="421" type="line" smooth="yes"/>
      <point x="25" y="285" type="line" smooth="yes"/>
      <point x="25" y="245" type="line" smooth="yes"/>
      <point x="31" y="177" type="line" smooth="yes"/>
      <point x="48" y="117" type="line" smooth="yes"/>
      <point x="78" y="68" type="line" smooth="yes"/>
      <point x="24" y="0" type="line" smooth="yes"/>
      <point x="114" y="0" type="line" smooth="yes"/>
      <point x="131" y="21" type="line" smooth="yes"/>
      <point x="173" y="2" type="line" smooth="yes"/>
      <point x="223" y="-10" type="line" smooth="yes"/>
      <point x="280" y="-14" type="line" smooth="yes"/>
      <point x="424" y="19" type="line" smooth="yes"/>
      <point x="508" y="109" type="line" smooth="yes"/>
      <point x="535" y="245" type="line" smooth="yes"/>
      <point x="535" y="285" type="line" smooth="yes"/>
      <point x="529" y="353" type="line" smooth="yes"/>
      <point x="511" y="413" type="line" smooth="yes"/>
      <point x="481" y="462" type="line" smooth="yes"/>
    </contour>
  </outline>
</glyph>
<glyph name="udieresis" format="1">
  <advance width="595"/>
  <unicode hex="00FC"/>
  <outline>
    <contour>
      <point x="274" y="780" type="line" smooth="yes"/>
      <point x="84" y="780" type="line" smooth="yes"/>
      <point x="84" y="590" type="line" smooth="yes"/>
      <point x="274" y="590" type="line" smooth="yes"/>
    </contour>
    <contour>
      <point x="504" y="780" type="line" smooth="yes"/>
      <point x="314" y="780" type="line" smooth="yes"/>
      <point x="314" y="590" type="line" smooth="yes"/>
      <point x="504" y="590" type="line" smooth="yes"/>
    </contour>
    <contour>
      <point x="44" y="530" type="line" smooth="yes"/>
      <point x="44" y="175" type="line" smooth="yes"/>
      <point x="59" y="84" type="line" smooth="yes"/>
      <point x="111" y="14" type="line" smooth="yes"/>
      <point x="209" y="-14" type="line" smooth="yes"/>
      <point x="280" y="-4" type="line" smooth="yes"/>
      <point x="335" y="24" type="line" smooth="yes"/>
      <point x="376" y="65" type="line" smooth="yes"/>
      <point x="389" y="0" type="line" smooth="yes"/>
      <point x="555" y="0" type="line" smooth="yes"/>
      <point x="545" y="150" type="line" smooth="yes"/>
      <point x="545" y="530" type="line" smooth="yes"/>
      <point x="361" y="530" type="line" smooth="yes"/>
      <point x="361" y="185" type="line" smooth="yes"/>
      <point x="345" y="168" type="line" smooth="yes"/>
      <point x="320" y="151" type="line" smooth="yes"/>
      <point x="284" y="144" type="line" smooth="yes"/>
      <point x="247" y="154" type="line" smooth="yes"/>
      <point x="231" y="178" type="line" smooth="yes"/>
      <point x="228" y="205" type="line" smooth="yes"/>
      <point x="228" y="530" type="line" smooth="yes"/>
    </contour>
  </outline>
</glyph>
<glyph name="thorn" format="1">
  <advance width="585"/>
  <unicode hex="00FE"/>
  <outline>
    <contour>
      <point x="233" y="185" type="line" smooth="yes"/>
      <point x="233" y="345" type="line" smooth="yes"/>
      <point x="249" y="362" type="line" smooth="yes"/>
      <point x="274" y="379" type="line" smooth="yes"/>
      <point x="310" y="386" type="line" smooth="yes"/>
      <point x="350" y="374" type="line" smooth="yes"/>
      <point x="371" y="340" type="line" smooth="yes"/>
      <point x="377" y="285" type="line" smooth="yes"/>
      <point x="377" y="245" type="line" smooth="yes"/>
      <point x="371" y="190" type="line" smooth="yes"/>
      <point x="350" y="156" type="line" smooth="yes"/>
      <point x="310" y="144" type="line" smooth="yes"/>
      <point x="274" y="151" type="line" smooth="yes"/>
      <point x="249" y="168" type="line" smooth="yes"/>
    </contour>
    <contour>
      <point x="48" y="800" type="line" smooth="yes"/>
      <point x="48" y="-200" type="line" smooth="yes"/>
      <point x="232" y="-200" type="line" smooth="yes"/>
      <point x="232" y="41" type="line" smooth="yes"/>
      <point x="266" y="12" type="line" smooth="yes"/>
      <point x="311" y="-7" type="line" smooth="yes"/>
      <point x="365" y="-14" type="line" smooth="yes"/>
      <point x="480" y="19" type="line" smooth="yes"/>
      <point x="542" y="109" type="line" smooth="yes"/>
      <point x="560" y="245" type="line" smooth="yes"/>
      <point x="560" y="285" type="line" smooth="yes"/>
      <point x="542" y="421" type="line" smooth="yes"/>
      <point x="480" y="511" type="line" smooth="yes"/>
      <point x="365" y="544" type="line" smooth="yes"/>
      <point x="311" y="537" type="line" smooth="yes"/>
      <point x="266" y="518" type="line" smooth="yes"/>
      <point x="232" y="489" type="line" smooth="yes"/>
      <point x="232" y="800" type="line" smooth="yes"/>
    </contour>
  </outline>
</glyph>
<glyph name="amacron" format="1">
  <advance width="560"/>
  <unicode hex="0101"/>
  <outline>
    <contour>
      <point x="260" y="134" type="line" smooth="yes"/>
      <point x="230" y="140" type="line" smooth="yes"/>
      <point x="213" y="157" type="line" smooth="yes"/>
      <point x="208" y="177" type="line" smooth="yes"/>
      <point x="208" y="183" type="line" smooth="yes"/>
      <point x="212" y="205" type="line" smooth="yes"/>
      <point x="227" y="222" type="line" smooth="yes"/>
      <point x="260" y="233" type="line" smooth="yes"/>
      <point x="332" y="244" type="line" smooth="yes"/>
      <point x="332" y="163" type="line" smooth="yes"/>
      <point x="314" y="149" type="line" smooth="yes"/>
      <point x="289" y="138" type="line" smooth="yes"/>
    </contour>
    <contour>
      <point x="120" y="605" type="line" smooth="yes"/>
      <point x="440" y="605" type="line" smooth="yes"/>
      <point x="440" y="765" type="line" smooth="yes"/>
      <point x="120" y="765" type="line" smooth="yes"/>
    </contour>
    <contour>
      <point x="360" y="0" type="line" smooth="yes"/>
      <point x="526" y="0" type="line" smooth="yes"/>
      <point x="516" y="150" type="line" smooth="yes"/>
      <point x="516" y="340" type="line" smooth="yes"/>
      <point x="495" y="451" type="line" smooth="yes"/>
      <point x="422" y="520" type="line" smooth="yes"/>
      <point x="280" y="544" type="line" smooth="yes"/>
      <point x="139" y="519" type="line" smooth="yes"/>
      <point x="66" y="453" type="line" smooth="yes"/>
      <point x="45" y="364" type="line" smooth="yes"/>
      <point x="45" y="355" type="line" smooth="yes"/>
      <point x="218" y="355" type="line" smooth="yes"/>
      <point x="223" y="379" type="line" smooth="yes"/>
      <point x="240" y="398" type="line" smooth="yes"/>
      <point x="275" y="406" type="line" smooth="yes"/>
      <point x="307" y="400" type="line" smooth="yes"/>
      <point x="325" y="381" type="line" smooth="yes"/>
      <point x="332" y="350" type="line" smooth="yes"/>
      <point x="220" y="332" type="line" smooth="yes"/>
      <point x="117" y="305" type="line" smooth="yes"/>
      <point x="49" y="252" type="line" smooth="yes"/>
      <point x="25" y="160" type="line" smooth="yes"/>
      <point x="25" y="150" type="line" smooth="yes"/>
      <point x="40" y="70" type="line" smooth="yes"/>
      <point x="92" y="10" type="line" smooth="yes"/>
      <point x="190" y="-14" type="line" smooth="yes"/>
      <point x="254" y="-6" type="line" smooth="yes"/>
      <point x="308" y="16" type="line" smooth="yes"/>
      <point x="350" y="50" type="line" smooth="yes"/>
    </contour>
  </outline>
</glyph>
<glyph name="Abreve" format="1">
  <advance width="650"/>
  <unicode hex="0102"/>
  <outline>
    <contour>
      <point x="325" y="560" type="line" smooth="yes"/>
      <point x="373" y="322" type="line" smooth="yes"/>
      <point x="277" y="322" type="line" smooth="yes"/>
    </contour>
    <contour>
      <point x="325" y="824" type="line" smooth="yes"/>
      <point x="447" y="842" type="line" smooth="yes"/>
      <point x="505" y="888" type="line" smooth="yes"/>
      <point x="520" y="950" type="line" smooth="yes"/>
      <point x="395" y="950" type="line" smooth="yes"/>
      <point x="388" y="933" type="line" smooth="yes"/>
      <point x="365" y="923" type="line" smooth="yes"/>
      <point x="325" y="920" type="line" smooth="yes"/>
      <point x="285" y="923" type="line" smooth="yes"/>
      <point x="262" y="933" type="line" smooth="yes"/>
      <point x="255" y="950" type="line" smooth="yes"/>
      <point x="130" y="950" type="line" smooth="yes"/>
      <point x="145" y="888" type="line" smooth="yes"/>
      <point x="203" y="842" type="line" smooth="yes"/>
    </contour>
    <contour>
      <point x="195" y="780" type="line" smooth="yes"/>
      <point x="9" y="0" type="line" smooth="yes"/>
      <point x="213" y="0" type="line" smooth="yes"/>
      <point x="244" y="158" type="line" smooth="yes"/>
      <point x="406" y="158" type="line" smooth="yes"/>
      <point x="438" y="0" type="line" smooth="yes"/>
      <point x="641" y="0" type="line" smooth="yes"/>
      <point x="455" y="780" type="line" smooth="yes"/>
    </contour>
  </outline>
</glyph>
<glyph name="Aogonek" format="1">
  <advance width="650"/>
  <unicode hex="0104"/>
  <outline>
    <contour>
      <point x="325" y="560" type="line" smooth="yes"/>
      <point x="373" y="322" type="line" smooth="yes"/>
      <point x="277" y="322" type="line" smooth="yes"/>
    </contour>
    <contour>
      <point x="586" y="-58" type="line" smooth="yes"/>
      <point x="592" y="-37" type="line" smooth="yes"/>
      <point x="610" y="-17" type="line" smooth="yes"/>
      <point x="641" y="0" type="line" smooth="yes"/>
      <point x="455" y="780" type="line" smooth="yes"/>
      <point x="195" y="780" type="line" smooth="yes"/>
      <point x="9" y="0" type="line" smooth="yes"/>
      <point x="213" y="0" type="line" smooth="yes"/>
      <point x="244" y="158" type="line" smooth="yes"/>
      <point x="406" y="158" type="line" smooth="yes"/>
      <point x="438" y="0" type="line" smooth="yes"/>
      <point x="492" y="0" type="line" smooth="yes"/>
      <point x="470" y="-31" type="line" smooth="yes"/>
      <point x="456" y="-66" type="line" smooth="yes"/>
      <point x="451" y="-105" type="line" smooth="yes"/>
      <point x="469" y="-167" type="line" smooth="yes"/>
      <point x="518" y="-204" type="line" smooth="yes"/>
      <point x="593" y="-216" type="line" smooth="yes"/>
      <point x="636" y="-212" type="line" smooth="yes"/>
      <point x="674" y="-203" type="line" smooth="yes"/>
      <point x="701" y="-190" type="line" smooth="yes"/>
      <point x="660" y="-80" type="line" smooth="yes"/>
      <point x="652" y="-84" type="line" smooth="yes"/>
      <point x="640" y="-88" type="line" smooth="yes"/>
      <point x="624" y="-90" type="line" smooth="yes"/>
      <point x="604" y="-86" type="line" smooth="yes"/>
      <point x="591" y="-75" type="line" smooth="yes"/>
    </contour>
  </outline>
</glyph>
<glyph name="aogonek" format="1">
  <advance width="560"/>
  <unicode hex="0105"/>
  <outline>
    <contour>
      <point x="336" y="-105" type="line" smooth="yes"/>
      <point x="354" y="-167" type="line" smooth="yes"/>
      <point x="403" y="-204" type="line" smooth="yes"/>
      <point x="478" y="-216" type="line" smooth="yes"/>
      <point x="521" y="-212" type="line" smooth="yes"/>
      <point x="559" y="-203" type="line" smooth="yes"/>
      <point x="586" y="-190" type="line" smooth="yes"/>
      <point x="545" y="-80" type="line" smooth="yes"/>
      <point x="537" y="-84" type="line" smooth="yes"/>
      <point x="525" y="-88" type="line" smooth="yes"/>
      <point x="509" y="-90" type="line" smooth="yes"/>
      <point x="489" y="-86" type="line" smooth="yes"/>
      <point x="476" y="-75" type="line" smooth="yes"/>
      <point x="471" y="-58" type="line" smooth="yes"/>
      <point x="477" y="-37" type="line" smooth="yes"/>
      <point x="495" y="-17" type="line" smooth="yes"/>
      <point x="526" y="0" type="line" smooth="yes"/>
      <point x="516" y="150" type="line" smooth="yes"/>
      <point x="516" y="340" type="line" smooth="yes"/>
      <point x="495" y="451" type="line" smooth="yes"/>
      <point x="422" y="520" type="line" smooth="yes"/>
      <point x="280" y="544" type="line" smooth="yes"/>
      <point x="139" y="519" type="line" smooth="yes"/>
      <point x="66" y="453" type="line" smooth="yes"/>
      <point x="45" y="364" type="line" smooth="yes"/>
      <point x="45" y="355" type="line" smooth="yes"/>
      <point x="218" y="355" type="line" smooth="yes"/>
      <point x="223" y="379" type="line" smooth="yes"/>
      <point x="240" y="398" type="line" smooth="yes"/>
      <point x="275" y="406" type="line" smooth="yes"/>
      <point x="307" y="400" type="line" smooth="yes"/>
      <point x="325" y="381" type="line" smooth="yes"/>
      <point x="332" y="350" type="line" smooth="yes"/>
      <point x="220" y="332" type="line" smooth="yes"/>
      <point x="117" y="305" type="line" smooth="yes"/>
      <point x="49" y="252" type="line" smooth="yes"/>
      <point x="25" y="160" type="line" smooth="yes"/>
      <point x="25" y="150" type="line" smooth="yes"/>
      <point x="40" y="70" type="line" smooth="yes"/>
      <point x="92" y="10" type="line" smooth="yes"/>
      <point x="190" y="-14" type="line" smooth="yes"/>
      <point x="254" y="-6" type="line" smooth="yes"/>
      <point x="308" y="16" type="line" smooth="yes"/>
      <point x="350" y="50" type="line" smooth="yes"/>
      <point x="363" y="-17" type="line" smooth="yes"/>
      <point x="348" y="-44" type="line" smooth="yes"/>
      <point x="339" y="-73" type="line" smooth="yes"/>
    </contour>
    <contour>
      <point x="260" y="134" type="line" smooth="yes"/>
      <point x="230" y="140" type="line" smooth="yes"/>
      <point x="213" y="157" type="line" smooth="yes"/>
      <point x="208" y="177" type="line" smooth="yes"/>
      <point x="208" y="183" type="line" smooth="yes"/>
      <point x="212" y="205" type="line" smooth="yes"/>
      <point x="227" y="222" type="line" smooth="yes"/>
      <point x="260" y="233" type="line" smooth="yes"/>
      <point x="332" y="244" type="line" smooth="yes"/>
      <point x="332" y="163" type="line" smooth="yes"/>
      <point x="314" y="149" type="line" smooth="yes"/>
      <point x="289" y="138" type="line" smooth="yes"/>
    </contour>
  </outline>
</glyph>
<glyph name="cacute" format="1">
  <advance width="528"/>
  <unicode hex="0107"/>
  <outline>
    <contour>
      <point x="270" y="780" type="line" smooth="yes"/>
      <point x="179" y="590" type="line" smooth="yes"/>
      <point x="361" y="590" type="line" smooth="yes"/>
      <point x="472" y="780" type="line" smooth="yes"/>
    </contour>
    <contour>
      <point x="208" y="245" type="line" smooth="yes"/>
      <point x="208" y="285" type="line" smooth="yes"/>
      <point x="214" y="340" type="line" smooth="yes"/>
      <point x="235" y="374" type="line" smooth="yes"/>
      <point x="274" y="386" type="line" smooth="yes"/>
      <point x="305" y="379" type="line" smooth="yes"/>
      <point x="325" y="358" type="line" smooth="yes"/>
      <point x="332" y="320" type="line" smooth="yes"/>
      <point x="505" y="320" type="line" smooth="yes"/>
      <point x="505" y="344" type="line" smooth="yes"/>
      <point x="478" y="452" type="line" smooth="yes"/>
      <point x="399" y="520" type="line" smooth="yes"/>
      <point x="270" y="544" type="line" smooth="yes"/>
      <point x="130" y="511" type="line" smooth="yes"/>
      <point x="51" y="421" type="line" smooth="yes"/>
      <point x="25" y="285" type="line" smooth="yes"/>
      <point x="25" y="245" type="line" smooth="yes"/>
      <point x="51" y="109" type="line" smooth="yes"/>
      <point x="130" y="19" type="line" smooth="yes"/>
      <point x="270" y="-14" type="line" smooth="yes"/>
      <point x="399" y="9" type="line" smooth="yes"/>
      <point x="478" y="75" type="line" smooth="yes"/>
      <point x="505" y="176" type="line" smooth="yes"/>
      <point x="505" y="200" type="line" smooth="yes"/>
      <point x="332" y="200" type="line" smooth="yes"/>
      <point x="325" y="170" type="line" smooth="yes"/>
      <point x="305" y="151" type="line" smooth="yes"/>
      <point x="274" y="144" type="line" smooth="yes"/>
      <point x="235" y="156" type="line" smooth="yes"/>
      <point x="214" y="190" type="line" smooth="yes"/>
    </contour>
  </outline>
</glyph>
<glyph name="ccaron" format="1">
  <advance width="528"/>
  <unicode hex="010D"/>
  <outline>
    <contour>
      <point x="45" y="780" type="line" smooth="yes"/>
      <point x="180" y="590" type="line" smooth="yes"/>
      <point x="360" y="590" type="line" smooth="yes"/>
      <point x="495" y="780" type="line" smooth="yes"/>
      <point x="335" y="780" type="line" smooth="yes"/>
      <point x="270" y="706" type="line" smooth="yes"/>
      <point x="205" y="780" type="line" smooth="yes"/>
    </contour>
    <contour>
      <point x="208" y="245" type="line" smooth="yes"/>
      <point x="208" y="285" type="line" smooth="yes"/>
      <point x="214" y="340" type="line" smooth="yes"/>
      <point x="235" y="374" type="line" smooth="yes"/>
      <point x="274" y="386" type="line" smooth="yes"/>
      <point x="305" y="379" type="line" smooth="yes"/>
      <point x="325" y="358" type="line" smooth="yes"/>
      <point x="332" y="320" type="line" smooth="yes"/>
      <point x="505" y="320" type="line" smooth="yes"/>
      <point x="505" y="344" type="line" smooth="yes"/>
      <point x="478" y="452" type="line" smooth="yes"/>
      <point x="399" y="520" type="line" smooth="yes"/>
      <point x="270" y="544" type="line" smooth="yes"/>
      <point x="130" y="511" type="line" smooth="yes"/>
      <point x="51" y="421" type="line" smooth="yes"/>
      <point x="25" y="285" type="line" smooth="yes"/>
      <point x="25" y="245" type="line" smooth="yes"/>
      <point x="51" y="109" type="line" smooth="yes"/>
      <point x="130" y="19" type="line" smooth="yes"/>
      <point x="270" y="-14" type="line" smooth="yes"/>
      <point x="399" y="9" type="line" smooth="yes"/>
      <point x="478" y="75" type="line" smooth="yes"/>
      <point x="505" y="176" type="line" smooth="yes"/>
      <point x="505" y="200" type="line" smooth="yes"/>
      <point x="332" y="200" type="line" smooth="yes"/>
      <point x="325" y="170" type="line" smooth="yes"/>
      <point x="305" y="151" type="line" smooth="yes"/>
      <point x="274" y="144" type="line" smooth="yes"/>
      <point x="235" y="156" type="line" smooth="yes"/>
      <point x="214" y="190" type="line" smooth="yes"/>
    </contour>
  </outline>
</glyph>
<glyph name="Dcaron" format="1">
  <advance width="670"/>
  <unicode hex="010E"/>
  <outline>
    <contour>
      <point x="95" y="950" type="line" smooth="yes"/>
      <point x="225" y="840" type="line" smooth="yes"/>
      <point x="415" y="840" type="line" smooth="yes"/>
      <point x="545" y="950" type="line" smooth="yes"/>
      <point x="380" y="950" type="line" smooth="yes"/>
      <point x="320" y="910" type="line" smooth="yes"/>
      <point x="260" y="950" type="line" smooth="yes"/>
    </contour>
    <contour>
      <point x="240" y="164" type="line" smooth="yes"/>
      <point x="240" y="616" type="line" smooth="yes"/>
      <point x="290" y="616" type="line" smooth="yes"/>
      <point x="388" y="593" type="line" smooth="yes"/>
      <point x="433" y="523" type="line" smooth="yes"/>
      <point x="444" y="410" type="line" smooth="yes"/>
      <point x="444" y="370" type="line" smooth="yes"/>
      <point x="433" y="257" type="line" smooth="yes"/>
      <point x="388" y="187" type="line" smooth="yes"/>
      <point x="290" y="164" type="line" smooth="yes"/>
    </contour>
    <contour>
      <point x="637" y="370" type="line" smooth="yes"/>
      <point x="637" y="410" type="line" smooth="yes"/>
      <point x="604" y="626" type="line" smooth="yes"/>
      <point x="496" y="744" type="line" smooth="yes"/>
      <point x="300" y="780" type="line" smooth="yes"/>
      <point x="50" y="780" type="line" smooth="yes"/>
      <point x="50" y="0" type="line" smooth="yes"/>
      <point x="300" y="0" type="line" smooth="yes"/>
      <point x="496" y="36" type="line" smooth="yes"/>
      <point x="604" y="154" type="line" smooth="yes"/>
    </contour>
  </outline>
</glyph>
<glyph name="Dcroat" format="1">
  <advance width="730"/>
  <unicode hex="0110"/>
  <outline>
    <contour>
      <point x="300" y="616" type="line" smooth="yes"/>
      <point x="350" y="616" type="line" smooth="yes"/>
      <point x="448" y="593" type="line" smooth="yes"/>
      <point x="493" y="523" type="line" smooth="yes"/>
      <point x="504" y="410" type="line" smooth="yes"/>
      <point x="504" y="370" type="line" smooth="yes"/>
      <point x="493" y="257" type="line" smooth="yes"/>
      <point x="448" y="187" type="line" smooth="yes"/>
      <point x="350" y="164" type="line" smooth="yes"/>
      <point x="300" y="164" type="line" smooth="yes"/>
      <point x="300" y="330" type="line" smooth="yes"/>
      <point x="450" y="330" type="line" smooth="yes"/>
      <point x="450" y="470" type="line" smooth="yes"/>
      <point x="300" y="470" type="line" smooth="yes"/>
    </contour>
    <contour>
      <point x="10" y="330" type="line" smooth="yes"/>
      <point x="110" y="330" type="line" smooth="yes"/>
      <point x="110" y="0" type="line" smooth="yes"/>
      <point x="360" y="0" type="line" smooth="yes"/>
      <point x="556" y="36" type="line" smooth="yes"/>
      <point x="664" y="154" type="line" smooth="yes"/>
      <point x="697" y="370" type="line" smooth="yes"/>
      <point x="697" y="410" type="line" smooth="yes"/>
      <point x="664" y="626" type="line" smooth="yes"/>
      <point x="556" y="744" type="line" smooth="yes"/>
      <point x="360" y="780" type="line" smooth="yes"/>
      <point x="110" y="780" type="line" smooth="yes"/>
      <point x="110" y="470" type="line" smooth="yes"/>
      <point x="10" y="470" type="line" smooth="yes"/>
    </contour>
  </outline>
</glyph>
<glyph name="Ebreve" format="1">
  <advance width="580"/>
  <unicode hex="0114"/>
  <outline>
    <contour>
      <point x="295" y="824" type="line" smooth="yes"/>
      <point x="417" y="842" type="line" smooth="yes"/>
      <point x="475" y="888" type="line" smooth="yes"/>
      <point x="490" y="950" type="line" smooth="yes"/>
      <point x="365" y="950" type="line" smooth="yes"/>
      <point x="358" y="933" type="line" smooth="yes"/>
      <point x="335" y="923" type="line" smooth="yes"/>
      <point x="295" y="920" type="line" smooth="yes"/>
      <point x="255" y="923" type="line" smooth="yes"/>
      <point x="232" y="933" type="line" smooth="yes"/>
      <point x="225" y="950" type="line" smooth="yes"/>
      <point x="100" y="950" type="line" smooth="yes"/>
      <point x="115" y="888" type="line" smooth="yes"/>
      <point x="173" y="842" type="line" smooth="yes"/>
    </contour>
    <contour>
      <point x="50" y="780" type="line" smooth="yes"/>
      <point x="50" y="0" type="line" smooth="yes"/>
      <point x="540" y="0" type="line" smooth="yes"/>
      <point x="540" y="164" type="line" smooth="yes"/>
      <point x="240" y="164" type="line" smooth="yes"/>
      <point x="240" y="316" type="line" smooth="yes"/>
      <point x="490" y="316" type="line" smooth="yes"/>
      <point x="490" y="480" type="line" smooth="yes"/>
      <point x="240" y="480" type="line" smooth="yes"/>
      <point x="240" y="616" type="line" smooth="yes"/>
      <point x="540" y="616" type="line" smooth="yes"/>
      <point x="540" y="780" type="line" smooth="yes"/>
    </contour>
  </outline>
</glyph>
<glyph name="Edotaccent" format="1">
  <advance width="580"/>
  <unicode hex="0116"/>
  <outline>
    <contour>
      <point x="370" y="950" type="line" smooth="yes"/>
      <point x="220" y="950" type="line" smooth="yes"/>
      <point x="220" y="840" type="line" smooth="yes"/>
      <point x="370" y="840" type="line" smooth="yes"/>
    </contour>
    <contour>
      <point x="50" y="780" type="line" smooth="yes"/>
      <point x="50" y="0" type="line" smooth="yes"/>
      <point x="540" y="0" type="line" smooth="yes"/>
      <point x="540" y="164" type="line" smooth="yes"/>
      <point x="240" y="164" type="line" smooth="yes"/>
      <point x="240" y="316" type="line" smooth="yes"/>
      <point x="490" y="316" type="line" smooth="yes"/>
      <point x="490" y="480" type="line" smooth="yes"/>
      <point x="240" y="480" type="line" smooth="yes"/>
      <point x="240" y="616" type="line" smooth="yes"/>
      <point x="540" y="616" type="line" smooth="yes"/>
      <point x="540" y="780" type="line" smooth="yes"/>
    </contour>
  </outline>
</glyph>
<glyph name="Eogonek" format="1">
  <advance width="580"/>
  <unicode hex="0118"/>
  <outline>
    <contour>
      <point x="485" y="-58" type="line" smooth="yes"/>
      <point x="491" y="-37" type="line" smooth="yes"/>
      <point x="509" y="-17" type="line" smooth="yes"/>
      <point x="540" y="0" type="line" smooth="yes"/>
      <point x="540" y="164" type="line" smooth="yes"/>
      <point x="240" y="164" type="line" smooth="yes"/>
      <point x="240" y="316" type="line" smooth="yes"/>
      <point x="490" y="316" type="line" smooth="yes"/>
      <point x="490" y="480" type="line" smooth="yes"/>
      <point x="240" y="480" type="line" smooth="yes"/>
      <point x="240" y="616" type="line" smooth="yes"/>
      <point x="540" y="616" type="line" smooth="yes"/>
      <point x="540" y="780" type="line" smooth="yes"/>
      <point x="50" y="780" type="line" smooth="yes"/>
      <point x="50" y="0" type="line" smooth="yes"/>
      <point x="391" y="0" type="line" smooth="yes"/>
      <point x="369" y="-31" type="line" smooth="yes"/>
      <point x="355" y="-66" type="line" smooth="yes"/>
      <point x="350" y="-105" type="line" smooth="yes"/>
      <point x="368" y="-167" type="line" smooth="yes"/>
      <point x="417" y="-204" type="line" smooth="yes"/>
      <point x="492" y="-216" type="line" smooth="yes"/>
      <point x="535" y="-212" type="line" smooth="yes"/>
      <point x="573" y="-203" type="line" smooth="yes"/>
      <point x="600" y="-190" type="line" smooth="yes"/>
      <point x="559" y="-80" type="line" smooth="yes"/>
      <point x="551" y="-84" type="line" smooth="yes"/>
      <point x="539" y="-88" type="line" smooth="yes"/>
      <point x="523" y="-90" type="line" smooth="yes"/>
      <point x="503" y="-86" type="line" smooth="yes"/>
      <point x="490" y="-75" type="line" smooth="yes"/>
    </contour>
  </outline>
</glyph>
<glyph name="eogonek" format="1">
  <advance width="560"/>
  <unicode hex="0119"/>
  <outline>
    <contour>
      <point x="280" y="406" type="line" smooth="yes"/>
      <point x="316" y="399" type="line" smooth="yes"/>
      <point x="340" y="375" type="line" smooth="yes"/>
      <point x="351" y="330" type="line" smooth="yes"/>
      <point x="209" y="330" type="line" smooth="yes"/>
      <point x="220" y="375" type="line" smooth="yes"/>
      <point x="244" y="399" type="line" smooth="yes"/>
    </contour>
    <contour>
      <point x="341" y="-58" type="line" smooth="yes"/>
      <point x="347" y="-35" type="line" smooth="yes"/>
      <point x="364" y="-15" type="line" smooth="yes"/>
      <point x="396" y="0" type="line" smooth="yes"/>
      <point x="472" y="38" type="line" smooth="yes"/>
      <point x="519" y="94" type="line" smooth="yes"/>
      <point x="535" y="166" type="line" smooth="yes"/>
      <point x="535" y="170" type="line" smooth="yes"/>
      <point x="362" y="170" type="line" smooth="yes"/>
      <point x="352" y="147" type="line" smooth="yes"/>
      <point x="327" y="130" type="line" smooth="yes"/>
      <point x="291" y="124" type="line" smooth="yes"/>
      <point x="251" y="130" type="line" smooth="yes"/>
      <point x="223" y="154" type="line" smooth="yes"/>
      <point x="209" y="200" type="line" smooth="yes"/>
      <point x="535" y="200" type="line" smooth="yes"/>
      <point x="535" y="280" type="line" smooth="yes"/>
      <point x="508" y="417" type="line" smooth="yes"/>
      <point x="425" y="510" type="line" smooth="yes"/>
      <point x="284" y="544" type="line" smooth="yes"/>
      <point x="141" y="510" type="line" smooth="yes"/>
      <point x="54" y="417" type="line" smooth="yes"/>
      <point x="25" y="280" type="line" smooth="yes"/>
      <point x="25" y="250" type="line" smooth="yes"/>
      <point x="48" y="124" type="line" smooth="yes"/>
      <point x="118" y="34" type="line" smooth="yes"/>
      <point x="238" y="-11" type="line" smooth="yes"/>
      <point x="221" y="-39" type="line" smooth="yes"/>
      <point x="210" y="-70" type="line" smooth="yes"/>
      <point x="206" y="-105" type="line" smooth="yes"/>
      <point x="224" y="-167" type="line" smooth="yes"/>
      <point x="273" y="-204" type="line" smooth="yes"/>
      <point x="348" y="-216" type="line" smooth="yes"/>
      <point x="391" y="-212" type="line" smooth="yes"/>
      <point x="429" y="-203" type="line" smooth="yes"/>
      <point x="456" y="-190" type="line" smooth="yes"/>
      <point x="415" y="-80" type="line" smooth="yes"/>
      <point x="407" y="-84" type="line" smooth="yes"/>
      <point x="395" y="-88" type="line" smooth="yes"/>
      <point x="379" y="-90" type="line" smooth="yes"/>
      <point x="359" y="-86" type="line" smooth="yes"/>
      <point x="346" y="-75" type="line" smooth="yes"/>
    </contour>
  </outline>
</glyph>
<glyph name="gcircumflex" format="1">
  <advance width="585"/>
  <unicode hex="011D"/>
  <outline>
    <contour>
      <point x="352" y="215" type="line" smooth="yes"/>
      <point x="336" y="198" type="line" smooth="yes"/>
      <point x="311" y="181" type="line" smooth="yes"/>
      <point x="275" y="174" type="line" smooth="yes"/>
      <point x="238" y="183" type="line" smooth="yes"/>
      <point x="215" y="213" type="line" smooth="yes"/>
      <point x="208" y="265" type="line" smooth="yes"/>
      <point x="208" y="295" type="line" smooth="yes"/>
      <point x="215" y="343" type="line" smooth="yes"/>
      <point x="238" y="375" type="line" smooth="yes"/>
      <point x="275" y="386" type="line" smooth="yes"/>
      <point x="311" y="379" type="line" smooth="yes"/>
      <point x="336" y="362" type="line" smooth="yes"/>
      <point x="352" y="345" type="line" smooth="yes"/>
    </contour>
    <contour>
      <point x="220" y="590" type="line" smooth="yes"/>
      <point x="285" y="663" type="line" smooth="yes"/>
      <point x="350" y="590" type="line" smooth="yes"/>
      <point x="510" y="590" type="line" smooth="yes"/>
      <point x="375" y="780" type="line" smooth="yes"/>
      <point x="195" y="780" type="line" smooth="yes"/>
      <point x="60" y="590" type="line" smooth="yes"/>
    </contour>
    <contour>
      <point x="352" y="15" type="line" smooth="yes"/>
      <point x="343" y="-35" type="line" smooth="yes"/>
      <point x="317" y="-59" type="line" smooth="yes"/>
      <point x="276" y="-66" type="line" smooth="yes"/>
      <point x="233" y="-57" type="line" smooth="yes"/>
      <point x="213" y="-33" type="line" smooth="yes"/>
      <point x="208" y="0" type="line" smooth="yes"/>
      <point x="35" y="0" type="line" smooth="yes"/>
      <point x="35" y="-24" type="line" smooth="yes"/>
      <point x="58" y="-120" type="line" smooth="yes"/>
      <point x="135" y="-188" type="line" smooth="yes"/>
      <point x="280" y="-214" type="line" smooth="yes"/>
      <point x="422" y="-189" type="line" smooth="yes"/>
      <point x="508" y="-113" type="line" smooth="yes"/>
      <point x="536" y="15" type="line" smooth="yes"/>
      <point x="536" y="380" type="line" smooth="yes"/>
      <point x="546" y="530" type="line" smooth="yes"/>
      <point x="380" y="530" type="line" smooth="yes"/>
      <point x="369" y="472" type="line" smooth="yes"/>
      <point x="333" y="509" type="line" smooth="yes"/>
      <point x="284" y="535" type="line" smooth="yes"/>
      <point x="220" y="544" type="line" smooth="yes"/>
      <point x="107" y="512" type="line" smooth="yes"/>
      <point x="44" y="424" type="line" smooth="yes"/>
      <point x="25" y="295" type="line" smooth="yes"/>
      <point x="25" y="265" type="line" smooth="yes"/>
      <point x="44" y="132" type="line" smooth="yes"/>
      <point x="107" y="46" type="line" smooth="yes"/>
      <point x="220" y="16" type="line" smooth="yes"/>
      <point x="274" y="22" type="line" smooth="yes"/>
      <point x="318" y="39" type="line" smooth="yes"/>
      <point x="352" y="66" type="line" smooth="yes"/>
    </contour>
  </outline>
</glyph>
<glyph name="Gbreve" format="1">
  <advance width="680"/>
  <unicode hex="011E"/>
  <outline>
    <contour>
      <point x="340" y="824" type="line" smooth="yes"/>
      <point x="462" y="842" type="line" smooth="yes"/>
      <point x="520" y="888" type="line" smooth="yes"/>
      <point x="535" y="950" type="line" smooth="yes"/>
      <point x="410" y="950" type="line" smooth="yes"/>
      <point x="403" y="933" type="line" smooth="yes"/>
      <point x="380" y="923" type="line" smooth="yes"/>
      <point x="340" y="920" type="line" smooth="yes"/>
      <point x="300" y="923" type="line" smooth="yes"/>
      <point x="277" y="933" type="line" smooth="yes"/>
      <point x="270" y="950" type="line" smooth="yes"/>
      <point x="145" y="950" type="line" smooth="yes"/>
      <point x="160" y="888" type="line" smooth="yes"/>
      <point x="218" y="842" type="line" smooth="yes"/>
    </contour>
    <contour>
      <point x="350" y="-14" type="line" smooth="yes"/>
      <point x="472" y="-1" type="line" smooth="yes"/>
      <point x="563" y="32" type="line" smooth="yes"/>
      <point x="634" y="78" type="line" smooth="yes"/>
      <point x="634" y="434" type="line" smooth="yes"/>
      <point x="350" y="434" type="line" smooth="yes"/>
      <point x="350" y="270" type="line" smooth="yes"/>
      <point x="444" y="270" type="line" smooth="yes"/>
      <point x="444" y="170" type="line" smooth="yes"/>
      <point x="418" y="159" type="line" smooth="yes"/>
      <point x="389" y="152" type="line" smooth="yes"/>
      <point x="355" y="150" type="line" smooth="yes"/>
      <point x="345" y="150" type="line" smooth="yes"/>
      <point x="267" y="177" type="line" smooth="yes"/>
      <point x="234" y="253" type="line" smooth="yes"/>
      <point x="226" y="370" type="line" smooth="yes"/>
      <point x="226" y="410" type="line" smooth="yes"/>
      <point x="233" y="527" type="line" smooth="yes"/>
      <point x="266" y="603" type="line" smooth="yes"/>
      <point x="340" y="630" type="line" smooth="yes"/>
      <point x="350" y="630" type="line" smooth="yes"/>
      <point x="410" y="611" type="line" smooth="yes"/>
      <point x="438" y="559" type="line" smooth="yes"/>
      <point x="445" y="480" type="line" smooth="yes"/>
      <point x="635" y="480" type="line" smooth="yes"/>
      <point x="635" y="519" type="line" smooth="yes"/>
      <point x="601" y="680" type="line" smooth="yes"/>
      <point x="501" y="767" type="line" smooth="yes"/>
      <point x="340" y="794" type="line" smooth="yes"/>
      <point x="167" y="754" type="line" smooth="yes"/>
      <point x="66" y="630" type="line" smooth="yes"/>
      <point x="33" y="410" type="line" smooth="yes"/>
      <point x="33" y="370" type="line" smooth="yes"/>
      <point x="66" y="150" type="line" smooth="yes"/>
      <point x="170" y="26" type="line" smooth="yes"/>
    </contour>
  </outline>
</glyph>
<glyph name="Gdotaccent" format="1">
  <advance width="680"/>
  <unicode hex="0120"/>
  <outline>
    <contour>
      <point x="415" y="950" type="line" smooth="yes"/>
      <point x="265" y="950" type="line" smooth="yes"/>
      <point x="265" y="840" type="line" smooth="yes"/>
      <point x="415" y="840" type="line" smooth="yes"/>
    </contour>
    <contour>
      <point x="350" y="-14" type="line" smooth="yes"/>
      <point x="472" y="-1" type="line" smooth="yes"/>
      <point x="563" y="32" type="line" smooth="yes"/>
      <point x="634" y="78" type="line" smooth="yes"/>
      <point x="634" y="434" type="line" smooth="yes"/>
      <point x="350" y="434" type="line" smooth="yes"/>
      <point x="350" y="270" type="line" smooth="yes"/>
      <point x="444" y="270" type="line" smooth="yes"/>
      <point x="444" y="170" type="line" smooth="yes"/>
      <point x="418" y="159" type="line" smooth="yes"/>
      <point x="389" y="152" type="line" smooth="yes"/>
      <point x="355" y="150" type="line" smooth="yes"/>
      <point x="345" y="150" type="line" smooth="yes"/>
      <point x="267" y="177" type="line" smooth="yes"/>
      <point x="234" y="253" type="line" smooth="yes"/>
      <point x="226" y="370" type="line" smooth="yes"/>
      <point x="226" y="410" type="line" smooth="yes"/>
      <point x="233" y="527" type="line" smooth="yes"/>
      <point x="266" y="603" type="line" smooth="yes"/>
      <point x="340" y="630" type="line" smooth="yes"/>
      <point x="350" y="630" type="line" smooth="yes"/>
      <point x="410" y="611" type="line" smooth="yes"/>
      <point x="438" y="559" type="line" smooth="yes"/>
      <point x="445" y="480" type="line" smooth="yes"/>
      <point x="635" y="480" type="line" smooth="yes"/>
      <point x="635" y="519" type="line" smooth="yes"/>
      <point x="601" y="680" type="line" smooth="yes"/>
      <point x="501" y="767" type="line" smooth="yes"/>
      <point x="340" y="794" type="line" smooth="yes"/>
      <point x="167" y="754" type="line" smooth="yes"/>
      <point x="66" y="630" type="line" smooth="yes"/>
      <point x="33" y="410" type="line" smooth="yes"/>
      <point x="33" y="370" type="line" smooth="yes"/>
      <point x="66" y="150" type="line" smooth="yes"/>
      <point x="170" y="26" type="line" smooth="yes"/>
    </contour>
  </outline>
</glyph>
<glyph name="Gcommaaccent" format="1">
  <advance width="680"/>
  <unicode hex="0122"/>
  <outline>
    <contour>
      <point x="430" y="-40" type="line" smooth="yes"/>
      <point x="270" y="-40" type="line" smooth="yes"/>
      <point x="270" y="-140" type="line" smooth="yes"/>
      <point x="358" y="-140" type="line" smooth="yes"/>
      <point x="338" y="-158" type="line" smooth="yes"/>
      <point x="309" y="-167" type="line" smooth="yes"/>
      <point x="270" y="-170" type="line" smooth="yes"/>
      <point x="270" y="-230" type="line" smooth="yes"/>
      <point x="360" y="-217" type="line" smooth="yes"/>
      <point x="413" y="-176" type="line" smooth="yes"/>
      <point x="430" y="-100" type="line" smooth="yes"/>
    </contour>
    <contour>
      <point x="350" y="-14" type="line" smooth="yes"/>
      <point x="472" y="-1" type="line" smooth="yes"/>
      <point x="563" y="32" type="line" smooth="yes"/>
      <point x="634" y="78" type="line" smooth="yes"/>
      <point x="634" y="434" type="line" smooth="yes"/>
      <point x="350" y="434" type="line" smooth="yes"/>
      <point x="350" y="270" type="line" smooth="yes"/>
      <point x="444" y="270" type="line" smooth="yes"/>
      <point x="444" y="170" type="line" smooth="yes"/>
      <point x="418" y="159" type="line" smooth="yes"/>
      <point x="389" y="152" type="line" smooth="yes"/>
      <point x="355" y="150" type="line" smooth="yes"/>
      <point x="345" y="150" type="line" smooth="yes"/>
      <point x="267" y="177" type="line" smooth="yes"/>
      <point x="234" y="253" type="line" smooth="yes"/>
      <point x="226" y="370" type="line" smooth="yes"/>
      <point x="226" y="410" type="line" smooth="yes"/>
      <point x="233" y="527" type="line" smooth="yes"/>
      <point x="266" y="603" type="line" smooth="yes"/>
      <point x="340" y="630" type="line" smooth="yes"/>
      <point x="350" y="630" type="line" smooth="yes"/>
      <point x="410" y="611" type="line" smooth="yes"/>
      <point x="438" y="559" type="line" smooth="yes"/>
      <point x="445" y="480" type="line" smooth="yes"/>
      <point x="635" y="480" type="line" smooth="yes"/>
      <point x="635" y="519" type="line" smooth="yes"/>
      <point x="601" y="680" type="line" smooth="yes"/>
      <point x="501" y="767" type="line" smooth="yes"/>
      <point x="340" y="794" type="line" smooth="yes"/>
      <point x="167" y="754" type="line" smooth="yes"/>
      <point x="66" y="630" type="line" smooth="yes"/>
      <point x="33" y="410" type="line" smooth="yes"/>
      <point x="33" y="370" type="line" smooth="yes"/>
      <point x="66" y="150" type="line" smooth="yes"/>
      <point x="170" y="26" type="line" smooth="yes"/>
    </contour>
  </outline>
</glyph>
<glyph name="gcommaaccent" format="1">
  <advance width="585"/>
  <unicode hex="0123"/>
  <outline>
    <contour>
      <point x="352" y="345" type="line" smooth="yes"/>
      <point x="352" y="215" type="line" smooth="yes"/>
      <point x="336" y="198" type="line" smooth="yes"/>
      <point x="311" y="181" type="line" smooth="yes"/>
      <point x="275" y="174" type="line" smooth="yes"/>
      <point x="238" y="183" type="line" smooth="yes"/>
      <point x="215" y="213" type="line" smooth="yes"/>
      <point x="208" y="265" type="line" smooth="yes"/>
      <point x="208" y="295" type="line" smooth="yes"/>
      <point x="215" y="343" type="line" smooth="yes"/>
      <point x="238" y="375" type="line" smooth="yes"/>
      <point x="275" y="386" type="line" smooth="yes"/>
      <point x="311" y="379" type="line" smooth="yes"/>
      <point x="336" y="362" type="line" smooth="yes"/>
    </contour>
    <contour>
      <point x="200" y="590" type="line" smooth="yes"/>
      <point x="360" y="590" type="line" smooth="yes"/>
      <point x="360" y="700" type="line" smooth="yes"/>
      <point x="271" y="700" type="line" smooth="yes"/>
      <point x="291" y="720" type="line" smooth="yes"/>
      <point x="321" y="731" type="line" smooth="yes"/>
      <point x="360" y="734" type="line" smooth="yes"/>
      <point x="360" y="794" type="line" smooth="yes"/>
      <point x="270" y="780" type="line" smooth="yes"/>
      <point x="217" y="737" type="line" smooth="yes"/>
      <point x="200" y="660" type="line" smooth="yes"/>
    </contour>
    <contour>
      <point x="352" y="15" type="line" smooth="yes"/>
      <point x="343" y="-35" type="line" smooth="yes"/>
      <point x="317" y="-59" type="line" smooth="yes"/>
      <point x="276" y="-66" type="line" smooth="yes"/>
      <point x="233" y="-57" type="line" smooth="yes"/>
      <point x="213" y="-33" type="line" smooth="yes"/>
      <point x="208" y="0" type="line" smooth="yes"/>
      <point x="35" y="0" type="line" smooth="yes"/>
      <point x="35" y="-24" type="line" smooth="yes"/>
      <point x="58" y="-120" type="line" smooth="yes"/>
      <point x="135" y="-188" type="line" smooth="yes"/>
      <point x="280" y="-214" type="line" smooth="yes"/>
      <point x="422" y="-189" type="line" smooth="yes"/>
      <point x="508" y="-113" type="line" smooth="yes"/>
      <point x="536" y="15" type="line" smooth="yes"/>
      <point x="536" y="380" type="line" smooth="yes"/>
      <point x="546" y="530" type="line" smooth="yes"/>
      <point x="380" y="530" type="line" smooth="yes"/>
      <point x="369" y="472" type="line" smooth="yes"/>
      <point x="333" y="509" type="line" smooth="yes"/>
      <point x="284" y="535" type="line" smooth="yes"/>
      <point x="220" y="544" type="line" smooth="yes"/>
      <point x="107" y="512" type="line" smooth="yes"/>
      <point x="44" y="424" type="line" smooth="yes"/>
      <point x="25" y="295" type="line" smooth="yes"/>
      <point x="25" y="265" type="line" smooth="yes"/>
      <point x="44" y="132" type="line" smooth="yes"/>
      <point x="107" y="46" type="line" smooth="yes"/>
      <point x="220" y="16" type="line" smooth="yes"/>
      <point x="274" y="22" type="line" smooth="yes"/>
      <point x="318" y="39" type="line" smooth="yes"/>
      <point x="352" y="66" type="line" smooth="yes"/>
    </contour>
  </outline>
</glyph>
<glyph name="hcircumflex" format="1">
  <advance width="595"/>
  <unicode hex="0125"/>
  <outline>
    <contour>
      <point x="82" y="840" type="line" smooth="yes"/>
      <point x="142" y="879" type="line" smooth="yes"/>
      <point x="202" y="840" type="line" smooth="yes"/>
      <point x="367" y="840" type="line" smooth="yes"/>
      <point x="237" y="950" type="line" smooth="yes"/>
      <point x="47" y="950" type="line" smooth="yes"/>
      <point x="-83" y="840" type="line" smooth="yes"/>
    </contour>
    <contour>
      <point x="234" y="800" type="line" smooth="yes"/>
      <point x="50" y="800" type="line" smooth="yes"/>
      <point x="50" y="0" type="line" smooth="yes"/>
      <point x="234" y="0" type="line" smooth="yes"/>
      <point x="234" y="345" type="line" smooth="yes"/>
      <point x="250" y="362" type="line" smooth="yes"/>
      <point x="275" y="379" type="line" smooth="yes"/>
      <point x="311" y="386" type="line" smooth="yes"/>
      <point x="348" y="376" type="line" smooth="yes"/>
      <point x="364" y="352" type="line" smooth="yes"/>
      <point x="367" y="325" type="line" smooth="yes"/>
      <point x="367" y="0" type="line" smooth="yes"/>
      <point x="551" y="0" type="line" smooth="yes"/>
      <point x="551" y="355" type="line" smooth="yes"/>
      <point x="536" y="446" type="line" smooth="yes"/>
      <point x="484" y="516" type="line" smooth="yes"/>
      <point x="386" y="544" type="line" smooth="yes"/>
      <point x="324" y="536" type="line" smooth="yes"/>
      <point x="273" y="515" type="line" smooth="yes"/>
      <point x="234" y="483" type="line" smooth="yes"/>
    </contour>
  </outline>
</glyph>
<glyph name="hbar" format="1">
  <advance width="595"/>
  <unicode hex="0127"/>
  <outline>
    <contour>
      <point x="234" y="800" type="line" smooth="yes"/>
      <point x="50" y="800" type="line" smooth="yes"/>
      <point x="50" y="730" type="line" smooth="yes"/>
      <point x="-10" y="730" type="line" smooth="yes"/>
      <point x="-10" y="600" type="line" smooth="yes"/>
      <point x="50" y="600" type="line" smooth="yes"/>
      <point x="50" y="0" type="line" smooth="yes"/>
      <point x="234" y="0" type="line" smooth="yes"/>
      <point x="234" y="345" type="line" smooth="yes"/>
      <point x="250" y="362" type="line" smooth="yes"/>
      <point x="275" y="379" type="line" smooth="yes"/>
      <point x="311" y="386" type="line" smooth="yes"/>
      <point x="348" y="376" type="line" smooth="yes"/>
      <point x="364" y="352" type="line" smooth="yes"/>
      <point x="368" y="325" type="line" smooth="yes"/>
      <point x="368" y="0" type="line" smooth="yes"/>
      <point x="551" y="0" type="line" smooth="yes"/>
      <point x="551" y="355" type="line" smooth="yes"/>
      <point x="536" y="446" type="line" smooth="yes"/>
      <point x="484" y="516" type="line" smooth="yes"/>
      <point x="386" y="544" type="line" smooth="yes"/>
      <point x="324" y="536" type="line" smooth="yes"/>
      <point x="273" y="515" type="line" smooth="yes"/>
      <point x="234" y="483" type="line" smooth="yes"/>
      <point x="234" y="600" type="line" smooth="yes"/>
      <point x="341" y="600" type="line" smooth="yes"/>
      <point x="341" y="730" type="line" smooth="yes"/>
      <point x="234" y="730" type="line" smooth="yes"/>
    </contour>
  </outline>
</glyph>
<glyph name="Itilde" format="1">
  <advance width="300"/>
  <unicode hex="0128"/>
  <outline>
    <contour>
      <point x="250" y="950" type="line" smooth="yes"/>
      <point x="245" y="932" type="line" smooth="yes"/>
      <point x="234" y="923" type="line" smooth="yes"/>
      <point x="217" y="920" type="line" smooth="yes"/>
      <point x="176" y="932" type="line" smooth="yes"/>
      <point x="125" y="954" type="line" smooth="yes"/>
      <point x="65" y="966" type="line" smooth="yes"/>
      <point x="12" y="954" type="line" smooth="yes"/>
      <point x="-29" y="915" type="line" smooth="yes"/>
      <point x="-45" y="840" type="line" smooth="yes"/>
      <point x="50" y="840" type="line" smooth="yes"/>
      <point x="55" y="858" type="line" smooth="yes"/>
      <point x="66" y="867" type="line" smooth="yes"/>
      <point x="83" y="870" type="line" smooth="yes"/>
      <point x="124" y="858" type="line" smooth="yes"/>
      <point x="175" y="836" type="line" smooth="yes"/>
      <point x="235" y="824" type="line" smooth="yes"/>
      <point x="288" y="836" type="line" smooth="yes"/>
      <point x="329" y="875" type="line" smooth="yes"/>
      <point x="345" y="950" type="line" smooth="yes"/>
    </contour>
    <contour>
      <point x="245" y="780" type="line" smooth="yes"/>
      <point x="55" y="780" type="line" smooth="yes"/>
      <point x="55" y="0" type="line" smooth="yes"/>
      <point x="245" y="0" type="line" smooth="yes"/>
    </contour>
  </outline>
</glyph>
<glyph name="itilde" format="1">
  <advance width="280"/>
  <unicode hex="0129"/>
  <outline>
    <contour>
      <point x="235" y="780" type="line" smooth="yes"/>
      <point x="231" y="760" type="line" smooth="yes"/>
      <point x="221" y="749" type="line" smooth="yes"/>
      <point x="205" y="745" type="line" smooth="yes"/>
      <point x="160" y="758" type="line" smooth="yes"/>
      <point x="106" y="783" type="line" smooth="yes"/>
      <point x="45" y="796" type="line" smooth="yes"/>
      <point x="-15" y="778" type="line" smooth="yes"/>
      <point x="-59" y="721" type="line" smooth="yes"/>
      <point x="-75" y="620" type="line" smooth="yes"/>
      <point x="45" y="620" type="line" smooth="yes"/>
      <point x="49" y="640" type="line" smooth="yes"/>
      <point x="59" y="651" type="line" smooth="yes"/>
      <point x="75" y="655" type="line" smooth="yes"/>
      <point x="120" y="642" type="line" smooth="yes"/>
      <point x="174" y="617" type="line" smooth="yes"/>
      <point x="235" y="604" type="line" smooth="yes"/>
      <point x="295" y="622" type="line" smooth="yes"/>
      <point x="339" y="679" type="line" smooth="yes"/>
      <point x="355" y="780" type="line" smooth="yes"/>
    </contour>
    <contour>
      <point x="48" y="0" type="line" smooth="yes"/>
      <point x="232" y="0" type="line" smooth="yes"/>
      <point x="232" y="530" type="line" smooth="yes"/>
      <point x="48" y="530" type="line" smooth="yes"/>
    </contour>
  </outline>
</glyph>
